<?xml version="1.0" encoding="utf-8" standalone="no"?>
<!DOCTYPE svg PUBLIC "-//W3C//DTD SVG 1.1//EN"
  "http://www.w3.org/Graphics/SVG/1.1/DTD/svg11.dtd">
<svg xmlns:xlink="http://www.w3.org/1999/xlink" width="499.761219pt" height="240.838797pt" viewBox="0 0 499.761219 240.838797" xmlns="http://www.w3.org/2000/svg" version="1.1">
 <metadata>
  <rdf:RDF xmlns:dc="http://purl.org/dc/elements/1.1/" xmlns:cc="http://creativecommons.org/ns#" xmlns:rdf="http://www.w3.org/1999/02/22-rdf-syntax-ns#">
   <cc:Work>
    <dc:type rdf:resource="http://purl.org/dc/dcmitype/StillImage"/>
    <dc:date>2026-07-03T19:58:26.812321</dc:date>
    <dc:format>image/svg+xml</dc:format>
    <dc:creator>
     <cc:Agent>
      <dc:title>Matplotlib v3.11.0, https://matplotlib.org/</dc:title>
     </cc:Agent>
    </dc:creator>
   </cc:Work>
  </rdf:RDF>
 </metadata>
 <defs>
  <style type="text/css">*{stroke-linejoin: round; stroke-linecap: butt}</style>
 </defs>
 <g id="figure_1">
  <g id="patch_1">
   <path d="M 0 240.838797 
L 499.761219 240.838797 
L 499.761219 0 
L 0 0 
z
" style="fill: #ffffff"/>
  </g>
  <g id="axes_1">
   <g id="patch_2">
    <path d="M 57.943906 200.637937 
L 476.443906 200.637937 
L 476.443906 23.229937 
L 57.943906 23.229937 
z
" style="fill: #ffffff"/>
   </g>
   <g id="line2d_1">
    <path d="M 76.966634 192.573937 
L 457.421179 192.573937 
" clip-path="url(#p02ee5b9acd)" style="fill: none; stroke: #dddddd; stroke-width: 6; stroke-linecap: square"/>
   </g>
   <g id="line2d_2">
    <path d="M 179.085366 111.933937 
L 443.722325 111.933937 
" clip-path="url(#p02ee5b9acd)" style="fill: none; stroke: #dddddd; stroke-width: 6; stroke-linecap: square"/>
   </g>
   <g id="line2d_3">
    <path d="M 125.535299 31.293937 
L 151.687657 31.293937 
" clip-path="url(#p02ee5b9acd)" style="fill: none; stroke: #dddddd; stroke-width: 6; stroke-linecap: square"/>
   </g>
   <g id="matplotlib.axis_1">
    <g id="xtick_1">
     <g id="line2d_4">
      <defs>
       <path id="m6b8dcc9d94" d="M 0 0 
L 0 3.5 
" style="stroke: #000000; stroke-width: 0.8"/>
      </defs>
      <g>
       <use xlink:href="#m6b8dcc9d94" x="66.381155" y="200.637937" style="stroke: #000000; stroke-width: 0.8"/>
      </g>
     </g>
     <g id="text_1">
      <!-- 200 -->
      <g transform="translate(55.88303 215.995359) scale(0.11 -0.11)">
       <defs>
        <path id="DejaVuSans-15" d="M 1228 531 
L 3431 531 
L 3431 0 
L 469 0 
L 469 531 
Q 828 903 1448 1529 
Q 2069 2156 2228 2338 
Q 2531 2678 2651 2914 
Q 2772 3150 2772 3378 
Q 2772 3750 2511 3984 
Q 2250 4219 1831 4219 
Q 1534 4219 1204 4116 
Q 875 4013 500 3803 
L 500 4441 
Q 881 4594 1212 4672 
Q 1544 4750 1819 4750 
Q 2544 4750 2975 4387 
Q 3406 4025 3406 3419 
Q 3406 3131 3298 2873 
Q 3191 2616 2906 2266 
Q 2828 2175 2409 1742 
Q 1991 1309 1228 531 
z
" transform="scale(0.015625)"/>
        <path id="DejaVuSans-13" d="M 2034 4250 
Q 1547 4250 1301 3770 
Q 1056 3291 1056 2328 
Q 1056 1369 1301 889 
Q 1547 409 2034 409 
Q 2525 409 2770 889 
Q 3016 1369 3016 2328 
Q 3016 3291 2770 3770 
Q 2525 4250 2034 4250 
z
M 2034 4750 
Q 2819 4750 3233 4129 
Q 3647 3509 3647 2328 
Q 3647 1150 3233 529 
Q 2819 -91 2034 -91 
Q 1250 -91 836 529 
Q 422 1150 422 2328 
Q 422 3509 836 4129 
Q 1250 4750 2034 4750 
z
" transform="scale(0.015625)"/>
       </defs>
       <use xlink:href="#DejaVuSans-15"/>
       <use xlink:href="#DejaVuSans-13" transform="translate(63.625 0)"/>
       <use xlink:href="#DejaVuSans-13" transform="translate(127.25 0)"/>
      </g>
     </g>
    </g>
    <g id="xtick_2">
     <g id="line2d_5">
      <g>
       <use xlink:href="#m6b8dcc9d94" x="128.648675" y="200.637937" style="stroke: #000000; stroke-width: 0.8"/>
      </g>
     </g>
     <g id="text_2">
      <!-- 300 -->
      <g transform="translate(118.15055 215.995359) scale(0.11 -0.11)">
       <defs>
        <path id="DejaVuSans-16" d="M 2597 2516 
Q 3050 2419 3304 2112 
Q 3559 1806 3559 1356 
Q 3559 666 3084 287 
Q 2609 -91 1734 -91 
Q 1441 -91 1130 -33 
Q 819 25 488 141 
L 488 750 
Q 750 597 1062 519 
Q 1375 441 1716 441 
Q 2309 441 2620 675 
Q 2931 909 2931 1356 
Q 2931 1769 2642 2001 
Q 2353 2234 1838 2234 
L 1294 2234 
L 1294 2753 
L 1863 2753 
Q 2328 2753 2575 2939 
Q 2822 3125 2822 3475 
Q 2822 3834 2567 4026 
Q 2313 4219 1838 4219 
Q 1578 4219 1281 4162 
Q 984 4106 628 3988 
L 628 4550 
Q 988 4650 1302 4700 
Q 1616 4750 1894 4750 
Q 2613 4750 3031 4423 
Q 3450 4097 3450 3541 
Q 3450 3153 3228 2886 
Q 3006 2619 2597 2516 
z
" transform="scale(0.015625)"/>
       </defs>
       <use xlink:href="#DejaVuSans-16"/>
       <use xlink:href="#DejaVuSans-13" transform="translate(63.625 0)"/>
       <use xlink:href="#DejaVuSans-13" transform="translate(127.25 0)"/>
      </g>
     </g>
    </g>
    <g id="xtick_3">
     <g id="line2d_6">
      <g>
       <use xlink:href="#m6b8dcc9d94" x="190.916195" y="200.637937" style="stroke: #000000; stroke-width: 0.8"/>
      </g>
     </g>
     <g id="text_3">
      <!-- 400 -->
      <g transform="translate(180.41807 215.995359) scale(0.11 -0.11)">
       <defs>
        <path id="DejaVuSans-17" d="M 2419 4116 
L 825 1625 
L 2419 1625 
L 2419 4116 
z
M 2253 4666 
L 3047 4666 
L 3047 1625 
L 3713 1625 
L 3713 1100 
L 3047 1100 
L 3047 0 
L 2419 0 
L 2419 1100 
L 313 1100 
L 313 1709 
L 2253 4666 
z
" transform="scale(0.015625)"/>
       </defs>
       <use xlink:href="#DejaVuSans-17"/>
       <use xlink:href="#DejaVuSans-13" transform="translate(63.625 0)"/>
       <use xlink:href="#DejaVuSans-13" transform="translate(127.25 0)"/>
      </g>
     </g>
    </g>
    <g id="xtick_4">
     <g id="line2d_7">
      <g>
       <use xlink:href="#m6b8dcc9d94" x="253.183714" y="200.637937" style="stroke: #000000; stroke-width: 0.8"/>
      </g>
     </g>
     <g id="text_4">
      <!-- 500 -->
      <g transform="translate(242.685589 215.995359) scale(0.11 -0.11)">
       <defs>
        <path id="DejaVuSans-18" d="M 691 4666 
L 3169 4666 
L 3169 4134 
L 1269 4134 
L 1269 2991 
Q 1406 3038 1543 3061 
Q 1681 3084 1819 3084 
Q 2600 3084 3056 2656 
Q 3513 2228 3513 1497 
Q 3513 744 3044 326 
Q 2575 -91 1722 -91 
Q 1428 -91 1123 -41 
Q 819 9 494 109 
L 494 744 
Q 775 591 1075 516 
Q 1375 441 1709 441 
Q 2250 441 2565 725 
Q 2881 1009 2881 1497 
Q 2881 1984 2565 2268 
Q 2250 2553 1709 2553 
Q 1456 2553 1204 2497 
Q 953 2441 691 2322 
L 691 4666 
z
" transform="scale(0.015625)"/>
       </defs>
       <use xlink:href="#DejaVuSans-18"/>
       <use xlink:href="#DejaVuSans-13" transform="translate(63.625 0)"/>
       <use xlink:href="#DejaVuSans-13" transform="translate(127.25 0)"/>
      </g>
     </g>
    </g>
    <g id="xtick_5">
     <g id="line2d_8">
      <g>
       <use xlink:href="#m6b8dcc9d94" x="315.451234" y="200.637937" style="stroke: #000000; stroke-width: 0.8"/>
      </g>
     </g>
     <g id="text_5">
      <!-- 600 -->
      <g transform="translate(304.953109 215.995359) scale(0.11 -0.11)">
       <defs>
        <path id="DejaVuSans-19" d="M 2113 2584 
Q 1688 2584 1439 2293 
Q 1191 2003 1191 1497 
Q 1191 994 1439 701 
Q 1688 409 2113 409 
Q 2538 409 2786 701 
Q 3034 994 3034 1497 
Q 3034 2003 2786 2293 
Q 2538 2584 2113 2584 
z
M 3366 4563 
L 3366 3988 
Q 3128 4100 2886 4159 
Q 2644 4219 2406 4219 
Q 1781 4219 1451 3797 
Q 1122 3375 1075 2522 
Q 1259 2794 1537 2939 
Q 1816 3084 2150 3084 
Q 2853 3084 3261 2657 
Q 3669 2231 3669 1497 
Q 3669 778 3244 343 
Q 2819 -91 2113 -91 
Q 1303 -91 875 529 
Q 447 1150 447 2328 
Q 447 3434 972 4092 
Q 1497 4750 2381 4750 
Q 2619 4750 2861 4703 
Q 3103 4656 3366 4563 
z
" transform="scale(0.015625)"/>
       </defs>
       <use xlink:href="#DejaVuSans-19"/>
       <use xlink:href="#DejaVuSans-13" transform="translate(63.625 0)"/>
       <use xlink:href="#DejaVuSans-13" transform="translate(127.25 0)"/>
      </g>
     </g>
    </g>
    <g id="xtick_6">
     <g id="line2d_9">
      <g>
       <use xlink:href="#m6b8dcc9d94" x="377.718754" y="200.637937" style="stroke: #000000; stroke-width: 0.8"/>
      </g>
     </g>
     <g id="text_6">
      <!-- 700 -->
      <g transform="translate(367.220629 215.995359) scale(0.11 -0.11)">
       <defs>
        <path id="DejaVuSans-1a" d="M 525 4666 
L 3525 4666 
L 3525 4397 
L 1831 0 
L 1172 0 
L 2766 4134 
L 525 4134 
L 525 4666 
z
" transform="scale(0.015625)"/>
       </defs>
       <use xlink:href="#DejaVuSans-1a"/>
       <use xlink:href="#DejaVuSans-13" transform="translate(63.625 0)"/>
       <use xlink:href="#DejaVuSans-13" transform="translate(127.25 0)"/>
      </g>
     </g>
    </g>
    <g id="xtick_7">
     <g id="line2d_10">
      <g>
       <use xlink:href="#m6b8dcc9d94" x="439.986273" y="200.637937" style="stroke: #000000; stroke-width: 0.8"/>
      </g>
     </g>
     <g id="text_7">
      <!-- 800 -->
      <g transform="translate(429.488148 215.995359) scale(0.11 -0.11)">
       <defs>
        <path id="DejaVuSans-1b" d="M 2034 2216 
Q 1584 2216 1326 1975 
Q 1069 1734 1069 1313 
Q 1069 891 1326 650 
Q 1584 409 2034 409 
Q 2484 409 2743 651 
Q 3003 894 3003 1313 
Q 3003 1734 2745 1975 
Q 2488 2216 2034 2216 
z
M 1403 2484 
Q 997 2584 770 2862 
Q 544 3141 544 3541 
Q 544 4100 942 4425 
Q 1341 4750 2034 4750 
Q 2731 4750 3128 4425 
Q 3525 4100 3525 3541 
Q 3525 3141 3298 2862 
Q 3072 2584 2669 2484 
Q 3125 2378 3379 2068 
Q 3634 1759 3634 1313 
Q 3634 634 3220 271 
Q 2806 -91 2034 -91 
Q 1263 -91 848 271 
Q 434 634 434 1313 
Q 434 1759 690 2068 
Q 947 2378 1403 2484 
z
M 1172 3481 
Q 1172 3119 1398 2916 
Q 1625 2713 2034 2713 
Q 2441 2713 2670 2916 
Q 2900 3119 2900 3481 
Q 2900 3844 2670 4047 
Q 2441 4250 2034 4250 
Q 1625 4250 1398 4047 
Q 1172 3844 1172 3481 
z
" transform="scale(0.015625)"/>
       </defs>
       <use xlink:href="#DejaVuSans-1b"/>
       <use xlink:href="#DejaVuSans-13" transform="translate(63.625 0)"/>
       <use xlink:href="#DejaVuSans-13" transform="translate(127.25 0)"/>
      </g>
     </g>
    </g>
    <g id="text_8">
     <!-- episode length (steps) — identical policy, identical seed -->
     <g transform="translate(113.304766 230.996219) scale(0.11 -0.11)">
      <defs>
       <path id="DejaVuSans-48" d="M 3597 1894 
L 3597 1613 
L 953 1613 
Q 991 1019 1311 708 
Q 1631 397 2203 397 
Q 2534 397 2845 478 
Q 3156 559 3463 722 
L 3463 178 
Q 3153 47 2828 -22 
Q 2503 -91 2169 -91 
Q 1331 -91 842 396 
Q 353 884 353 1716 
Q 353 2575 817 3079 
Q 1281 3584 2069 3584 
Q 2775 3584 3186 3129 
Q 3597 2675 3597 1894 
z
M 3022 2063 
Q 3016 2534 2758 2815 
Q 2500 3097 2075 3097 
Q 1594 3097 1305 2825 
Q 1016 2553 972 2059 
L 3022 2063 
z
" transform="scale(0.015625)"/>
       <path id="DejaVuSans-53" d="M 1159 525 
L 1159 -1331 
L 581 -1331 
L 581 3500 
L 1159 3500 
L 1159 2969 
Q 1341 3281 1617 3432 
Q 1894 3584 2278 3584 
Q 2916 3584 3314 3078 
Q 3713 2572 3713 1747 
Q 3713 922 3314 415 
Q 2916 -91 2278 -91 
Q 1894 -91 1617 61 
Q 1341 213 1159 525 
z
M 3116 1747 
Q 3116 2381 2855 2742 
Q 2594 3103 2138 3103 
Q 1681 3103 1420 2742 
Q 1159 2381 1159 1747 
Q 1159 1113 1420 752 
Q 1681 391 2138 391 
Q 2594 391 2855 752 
Q 3116 1113 3116 1747 
z
" transform="scale(0.015625)"/>
       <path id="DejaVuSans-4c" d="M 603 3500 
L 1178 3500 
L 1178 0 
L 603 0 
L 603 3500 
z
M 603 4863 
L 1178 4863 
L 1178 4134 
L 603 4134 
L 603 4863 
z
" transform="scale(0.015625)"/>
       <path id="DejaVuSans-56" d="M 2834 3397 
L 2834 2853 
Q 2591 2978 2328 3040 
Q 2066 3103 1784 3103 
Q 1356 3103 1142 2972 
Q 928 2841 928 2578 
Q 928 2378 1081 2264 
Q 1234 2150 1697 2047 
L 1894 2003 
Q 2506 1872 2764 1633 
Q 3022 1394 3022 966 
Q 3022 478 2636 193 
Q 2250 -91 1575 -91 
Q 1294 -91 989 -36 
Q 684 19 347 128 
L 347 722 
Q 666 556 975 473 
Q 1284 391 1588 391 
Q 1994 391 2212 530 
Q 2431 669 2431 922 
Q 2431 1156 2273 1281 
Q 2116 1406 1581 1522 
L 1381 1569 
Q 847 1681 609 1914 
Q 372 2147 372 2553 
Q 372 3047 722 3315 
Q 1072 3584 1716 3584 
Q 2034 3584 2315 3537 
Q 2597 3491 2834 3397 
z
" transform="scale(0.015625)"/>
       <path id="DejaVuSans-52" d="M 1959 3097 
Q 1497 3097 1228 2736 
Q 959 2375 959 1747 
Q 959 1119 1226 758 
Q 1494 397 1959 397 
Q 2419 397 2687 759 
Q 2956 1122 2956 1747 
Q 2956 2369 2687 2733 
Q 2419 3097 1959 3097 
z
M 1959 3584 
Q 2709 3584 3137 3096 
Q 3566 2609 3566 1747 
Q 3566 888 3137 398 
Q 2709 -91 1959 -91 
Q 1206 -91 779 398 
Q 353 888 353 1747 
Q 353 2609 779 3096 
Q 1206 3584 1959 3584 
z
" transform="scale(0.015625)"/>
       <path id="DejaVuSans-47" d="M 2906 2969 
L 2906 4863 
L 3481 4863 
L 3481 0 
L 2906 0 
L 2906 525 
Q 2725 213 2448 61 
Q 2172 -91 1784 -91 
Q 1150 -91 751 415 
Q 353 922 353 1747 
Q 353 2572 751 3078 
Q 1150 3584 1784 3584 
Q 2172 3584 2448 3432 
Q 2725 3281 2906 2969 
z
M 947 1747 
Q 947 1113 1208 752 
Q 1469 391 1925 391 
Q 2381 391 2643 752 
Q 2906 1113 2906 1747 
Q 2906 2381 2643 2742 
Q 2381 3103 1925 3103 
Q 1469 3103 1208 2742 
Q 947 2381 947 1747 
z
" transform="scale(0.015625)"/>
       <path id="DejaVuSans-3" transform="scale(0.015625)"/>
       <path id="DejaVuSans-4f" d="M 603 4863 
L 1178 4863 
L 1178 0 
L 603 0 
L 603 4863 
z
" transform="scale(0.015625)"/>
       <path id="DejaVuSans-51" d="M 3513 2113 
L 3513 0 
L 2938 0 
L 2938 2094 
Q 2938 2591 2744 2837 
Q 2550 3084 2163 3084 
Q 1697 3084 1428 2787 
Q 1159 2491 1159 1978 
L 1159 0 
L 581 0 
L 581 3500 
L 1159 3500 
L 1159 2956 
Q 1366 3272 1645 3428 
Q 1925 3584 2291 3584 
Q 2894 3584 3203 3211 
Q 3513 2838 3513 2113 
z
" transform="scale(0.015625)"/>
       <path id="DejaVuSans-4a" d="M 2906 1791 
Q 2906 2416 2648 2759 
Q 2391 3103 1925 3103 
Q 1463 3103 1205 2759 
Q 947 2416 947 1791 
Q 947 1169 1205 825 
Q 1463 481 1925 481 
Q 2391 481 2648 825 
Q 2906 1169 2906 1791 
z
M 3481 434 
Q 3481 -459 3084 -895 
Q 2688 -1331 1869 -1331 
Q 1566 -1331 1297 -1286 
Q 1028 -1241 775 -1147 
L 775 -588 
Q 1028 -725 1275 -790 
Q 1522 -856 1778 -856 
Q 2344 -856 2625 -561 
Q 2906 -266 2906 331 
L 2906 616 
Q 2728 306 2450 153 
Q 2172 0 1784 0 
Q 1141 0 747 490 
Q 353 981 353 1791 
Q 353 2603 747 3093 
Q 1141 3584 1784 3584 
Q 2172 3584 2450 3431 
Q 2728 3278 2906 2969 
L 2906 3500 
L 3481 3500 
L 3481 434 
z
" transform="scale(0.015625)"/>
       <path id="DejaVuSans-57" d="M 1172 4494 
L 1172 3500 
L 2356 3500 
L 2356 3053 
L 1172 3053 
L 1172 1153 
Q 1172 725 1289 603 
Q 1406 481 1766 481 
L 2356 481 
L 2356 0 
L 1766 0 
Q 1100 0 847 248 
Q 594 497 594 1153 
L 594 3053 
L 172 3053 
L 172 3500 
L 594 3500 
L 594 4494 
L 1172 4494 
z
" transform="scale(0.015625)"/>
       <path id="DejaVuSans-4b" d="M 3513 2113 
L 3513 0 
L 2938 0 
L 2938 2094 
Q 2938 2591 2744 2837 
Q 2550 3084 2163 3084 
Q 1697 3084 1428 2787 
Q 1159 2491 1159 1978 
L 1159 0 
L 581 0 
L 581 4863 
L 1159 4863 
L 1159 2956 
Q 1366 3272 1645 3428 
Q 1925 3584 2291 3584 
Q 2894 3584 3203 3211 
Q 3513 2838 3513 2113 
z
" transform="scale(0.015625)"/>
       <path id="DejaVuSans-b" d="M 1984 4856 
Q 1566 4138 1362 3434 
Q 1159 2731 1159 2009 
Q 1159 1288 1364 580 
Q 1569 -128 1984 -844 
L 1484 -844 
Q 1016 -109 783 600 
Q 550 1309 550 2009 
Q 550 2706 781 3412 
Q 1013 4119 1484 4856 
L 1984 4856 
z
" transform="scale(0.015625)"/>
       <path id="DejaVuSans-c" d="M 513 4856 
L 1013 4856 
Q 1481 4119 1714 3412 
Q 1947 2706 1947 2009 
Q 1947 1309 1714 600 
Q 1481 -109 1013 -844 
L 513 -844 
Q 928 -128 1133 580 
Q 1338 1288 1338 2009 
Q 1338 2731 1133 3434 
Q 928 4138 513 4856 
z
" transform="scale(0.015625)"/>
       <path id="DejaVuSans-af6" d="M 313 1978 
L 6088 1978 
L 6088 1528 
L 313 1528 
L 313 1978 
z
" transform="scale(0.015625)"/>
       <path id="DejaVuSans-46" d="M 3122 3366 
L 3122 2828 
Q 2878 2963 2633 3030 
Q 2388 3097 2138 3097 
Q 1578 3097 1268 2742 
Q 959 2388 959 1747 
Q 959 1106 1268 751 
Q 1578 397 2138 397 
Q 2388 397 2633 464 
Q 2878 531 3122 666 
L 3122 134 
Q 2881 22 2623 -34 
Q 2366 -91 2075 -91 
Q 1284 -91 818 406 
Q 353 903 353 1747 
Q 353 2603 823 3093 
Q 1294 3584 2113 3584 
Q 2378 3584 2631 3529 
Q 2884 3475 3122 3366 
z
" transform="scale(0.015625)"/>
       <path id="DejaVuSans-44" d="M 2194 1759 
Q 1497 1759 1228 1600 
Q 959 1441 959 1056 
Q 959 750 1161 570 
Q 1363 391 1709 391 
Q 2188 391 2477 730 
Q 2766 1069 2766 1631 
L 2766 1759 
L 2194 1759 
z
M 3341 1997 
L 3341 0 
L 2766 0 
L 2766 531 
Q 2569 213 2275 61 
Q 1981 -91 1556 -91 
Q 1019 -91 701 211 
Q 384 513 384 1019 
Q 384 1609 779 1909 
Q 1175 2209 1959 2209 
L 2766 2209 
L 2766 2266 
Q 2766 2663 2505 2880 
Q 2244 3097 1772 3097 
Q 1472 3097 1187 3025 
Q 903 2953 641 2809 
L 641 3341 
Q 956 3463 1253 3523 
Q 1550 3584 1831 3584 
Q 2591 3584 2966 3190 
Q 3341 2797 3341 1997 
z
" transform="scale(0.015625)"/>
       <path id="DejaVuSans-5c" d="M 2059 -325 
Q 1816 -950 1584 -1140 
Q 1353 -1331 966 -1331 
L 506 -1331 
L 506 -850 
L 844 -850 
Q 1081 -850 1212 -737 
Q 1344 -625 1503 -206 
L 1606 56 
L 191 3500 
L 800 3500 
L 1894 763 
L 2988 3500 
L 3597 3500 
L 2059 -325 
z
" transform="scale(0.015625)"/>
       <path id="DejaVuSans-f" d="M 750 794 
L 1409 794 
L 1409 256 
L 897 -744 
L 494 -744 
L 750 256 
L 750 794 
z
" transform="scale(0.015625)"/>
      </defs>
      <use xlink:href="#DejaVuSans-48"/>
      <use xlink:href="#DejaVuSans-53" transform="translate(61.53125 0)"/>
      <use xlink:href="#DejaVuSans-4c" transform="translate(125.015625 0)"/>
      <use xlink:href="#DejaVuSans-56" transform="translate(152.796875 0)"/>
      <use xlink:href="#DejaVuSans-52" transform="translate(204.890625 0)"/>
      <use xlink:href="#DejaVuSans-47" transform="translate(266.078125 0)"/>
      <use xlink:href="#DejaVuSans-48" transform="translate(329.5625 0)"/>
      <use xlink:href="#DejaVuSans-3" transform="translate(391.09375 0)"/>
      <use xlink:href="#DejaVuSans-4f" transform="translate(422.875 0)"/>
      <use xlink:href="#DejaVuSans-48" transform="translate(450.65625 0)"/>
      <use xlink:href="#DejaVuSans-51" transform="translate(512.1875 0)"/>
      <use xlink:href="#DejaVuSans-4a" transform="translate(575.5625 0)"/>
      <use xlink:href="#DejaVuSans-57" transform="translate(639.046875 0)"/>
      <use xlink:href="#DejaVuSans-4b" transform="translate(678.25 0)"/>
      <use xlink:href="#DejaVuSans-3" transform="translate(741.625 0)"/>
      <use xlink:href="#DejaVuSans-b" transform="translate(773.40625 0)"/>
      <use xlink:href="#DejaVuSans-56" transform="translate(812.421875 0)"/>
      <use xlink:href="#DejaVuSans-57" transform="translate(864.515625 0)"/>
      <use xlink:href="#DejaVuSans-48" transform="translate(903.71875 0)"/>
      <use xlink:href="#DejaVuSans-53" transform="translate(965.25 0)"/>
      <use xlink:href="#DejaVuSans-56" transform="translate(1028.734375 0)"/>
      <use xlink:href="#DejaVuSans-c" transform="translate(1080.828125 0)"/>
      <use xlink:href="#DejaVuSans-3" transform="translate(1119.84375 0)"/>
      <use xlink:href="#DejaVuSans-af6" transform="translate(1151.625 0)"/>
      <use xlink:href="#DejaVuSans-3" transform="translate(1251.625 0)"/>
      <use xlink:href="#DejaVuSans-4c" transform="translate(1283.40625 0)"/>
      <use xlink:href="#DejaVuSans-47" transform="translate(1311.1875 0)"/>
      <use xlink:href="#DejaVuSans-48" transform="translate(1374.671875 0)"/>
      <use xlink:href="#DejaVuSans-51" transform="translate(1436.203125 0)"/>
      <use xlink:href="#DejaVuSans-57" transform="translate(1499.578125 0)"/>
      <use xlink:href="#DejaVuSans-4c" transform="translate(1538.78125 0)"/>
      <use xlink:href="#DejaVuSans-46" transform="translate(1566.5625 0)"/>
      <use xlink:href="#DejaVuSans-44" transform="translate(1621.546875 0)"/>
      <use xlink:href="#DejaVuSans-4f" transform="translate(1682.828125 0)"/>
      <use xlink:href="#DejaVuSans-3" transform="translate(1710.609375 0)"/>
      <use xlink:href="#DejaVuSans-53" transform="translate(1742.390625 0)"/>
      <use xlink:href="#DejaVuSans-52" transform="translate(1805.875 0)"/>
      <use xlink:href="#DejaVuSans-4f" transform="translate(1867.0625 0)"/>
      <use xlink:href="#DejaVuSans-4c" transform="translate(1894.84375 0)"/>
      <use xlink:href="#DejaVuSans-46" transform="translate(1922.625 0)"/>
      <use xlink:href="#DejaVuSans-5c" transform="translate(1977.609375 0)"/>
      <use xlink:href="#DejaVuSans-f" transform="translate(2036.796875 0)"/>
      <use xlink:href="#DejaVuSans-3" transform="translate(2068.578125 0)"/>
      <use xlink:href="#DejaVuSans-4c" transform="translate(2100.359375 0)"/>
      <use xlink:href="#DejaVuSans-47" transform="translate(2128.140625 0)"/>
      <use xlink:href="#DejaVuSans-48" transform="translate(2191.625 0)"/>
      <use xlink:href="#DejaVuSans-51" transform="translate(2253.15625 0)"/>
      <use xlink:href="#DejaVuSans-57" transform="translate(2316.53125 0)"/>
      <use xlink:href="#DejaVuSans-4c" transform="translate(2355.734375 0)"/>
      <use xlink:href="#DejaVuSans-46" transform="translate(2383.515625 0)"/>
      <use xlink:href="#DejaVuSans-44" transform="translate(2438.5 0)"/>
      <use xlink:href="#DejaVuSans-4f" transform="translate(2499.78125 0)"/>
      <use xlink:href="#DejaVuSans-3" transform="translate(2527.5625 0)"/>
      <use xlink:href="#DejaVuSans-56" transform="translate(2559.34375 0)"/>
      <use xlink:href="#DejaVuSans-48" transform="translate(2611.4375 0)"/>
      <use xlink:href="#DejaVuSans-48" transform="translate(2672.96875 0)"/>
      <use xlink:href="#DejaVuSans-47" transform="translate(2734.5 0)"/>
     </g>
    </g>
   </g>
   <g id="matplotlib.axis_2">
    <g id="ytick_1">
     <g id="line2d_11">
      <defs>
       <path id="m2168a6418b" d="M 0 0 
L -3.5 0 
" style="stroke: #000000; stroke-width: 0.8"/>
      </defs>
      <g>
       <use xlink:href="#m2168a6418b" x="57.943906" y="192.573937" style="stroke: #000000; stroke-width: 0.8"/>
      </g>
     </g>
     <g id="text_9">
      <!-- seed 13 -->
      <g transform="translate(7.2 196.753078) scale(0.11 -0.11)">
       <defs>
        <path id="DejaVuSans-14" d="M 794 531 
L 1825 531 
L 1825 4091 
L 703 3866 
L 703 4441 
L 1819 4666 
L 2450 4666 
L 2450 531 
L 3481 531 
L 3481 0 
L 794 0 
L 794 531 
z
" transform="scale(0.015625)"/>
       </defs>
       <use xlink:href="#DejaVuSans-56"/>
       <use xlink:href="#DejaVuSans-48" transform="translate(52.09375 0)"/>
       <use xlink:href="#DejaVuSans-48" transform="translate(113.625 0)"/>
       <use xlink:href="#DejaVuSans-47" transform="translate(175.15625 0)"/>
       <use xlink:href="#DejaVuSans-3" transform="translate(238.640625 0)"/>
       <use xlink:href="#DejaVuSans-14" transform="translate(270.421875 0)"/>
       <use xlink:href="#DejaVuSans-16" transform="translate(334.046875 0)"/>
      </g>
     </g>
    </g>
    <g id="ytick_2">
     <g id="line2d_12">
      <g>
       <use xlink:href="#m2168a6418b" x="57.943906" y="111.933937" style="stroke: #000000; stroke-width: 0.8"/>
      </g>
     </g>
     <g id="text_10">
      <!-- seed 0 -->
      <g transform="translate(14.19875 116.113078) scale(0.11 -0.11)">
       <use xlink:href="#DejaVuSans-56"/>
       <use xlink:href="#DejaVuSans-48" transform="translate(52.09375 0)"/>
       <use xlink:href="#DejaVuSans-48" transform="translate(113.625 0)"/>
       <use xlink:href="#DejaVuSans-47" transform="translate(175.15625 0)"/>
       <use xlink:href="#DejaVuSans-3" transform="translate(238.640625 0)"/>
       <use xlink:href="#DejaVuSans-13" transform="translate(270.421875 0)"/>
      </g>
     </g>
    </g>
    <g id="ytick_3">
     <g id="line2d_13">
      <g>
       <use xlink:href="#m2168a6418b" x="57.943906" y="31.293937" style="stroke: #000000; stroke-width: 0.8"/>
      </g>
     </g>
     <g id="text_11">
      <!-- seed 7 -->
      <g transform="translate(14.19875 35.473078) scale(0.11 -0.11)">
       <use xlink:href="#DejaVuSans-56"/>
       <use xlink:href="#DejaVuSans-48" transform="translate(52.09375 0)"/>
       <use xlink:href="#DejaVuSans-48" transform="translate(113.625 0)"/>
       <use xlink:href="#DejaVuSans-47" transform="translate(175.15625 0)"/>
       <use xlink:href="#DejaVuSans-3" transform="translate(238.640625 0)"/>
       <use xlink:href="#DejaVuSans-1a" transform="translate(270.421875 0)"/>
      </g>
     </g>
    </g>
   </g>
   <g id="patch_3">
    <path d="M 57.943906 200.637937 
L 476.443906 200.637937 
" style="fill: none; stroke: #cccccc; stroke-width: 0.8; stroke-linejoin: miter; stroke-linecap: square"/>
   </g>
   <g id="PathCollection_1">
    <defs>
     <path id="meb210959ae" d="M 0 4.1833 
C 1.109424 4.1833 2.173559 3.742521 2.95804 2.95804 
C 3.742521 2.173559 4.1833 1.109424 4.1833 0 
C 4.1833 -1.109424 3.742521 -2.173559 2.95804 -2.95804 
C 2.173559 -3.742521 1.109424 -4.1833 0 -4.1833 
C -1.109424 -4.1833 -2.173559 -3.742521 -2.95804 -2.95804 
C -3.742521 -2.173559 -4.1833 -1.109424 -4.1833 0 
C -4.1833 1.109424 -3.742521 2.173559 -2.95804 2.95804 
C -2.173559 3.742521 -1.109424 4.1833 0 4.1833 
z
" style="stroke: #2d3142; stroke-opacity: 0.75"/>
    </defs>
    <g clip-path="url(#p02ee5b9acd)">
     <use xlink:href="#meb210959ae" x="95.646889" y="192.573937" style="fill: #2d3142; fill-opacity: 0.75; stroke: #2d3142; stroke-opacity: 0.75"/>
     <use xlink:href="#meb210959ae" x="185.312118" y="192.573937" style="fill: #2d3142; fill-opacity: 0.75; stroke: #2d3142; stroke-opacity: 0.75"/>
     <use xlink:href="#meb210959ae" x="80.702685" y="192.573937" style="fill: #2d3142; fill-opacity: 0.75; stroke: #2d3142; stroke-opacity: 0.75"/>
     <use xlink:href="#meb210959ae" x="76.966634" y="192.573937" style="fill: #2d3142; fill-opacity: 0.75; stroke: #2d3142; stroke-opacity: 0.75"/>
     <use xlink:href="#meb210959ae" x="457.421179" y="192.573937" style="fill: #2d3142; fill-opacity: 0.75; stroke: #2d3142; stroke-opacity: 0.75"/>
     <use xlink:href="#meb210959ae" x="121.799248" y="192.573937" style="fill: #2d3142; fill-opacity: 0.75; stroke: #2d3142; stroke-opacity: 0.75"/>
    </g>
   </g>
   <g id="PathCollection_2">
    <g clip-path="url(#p02ee5b9acd)">
     <use xlink:href="#meb210959ae" x="179.085366" y="111.933937" style="fill: #2d3142; fill-opacity: 0.75; stroke: #2d3142; stroke-opacity: 0.75"/>
     <use xlink:href="#meb210959ae" x="353.434421" y="111.933937" style="fill: #2d3142; fill-opacity: 0.75; stroke: #2d3142; stroke-opacity: 0.75"/>
     <use xlink:href="#meb210959ae" x="280.581423" y="111.933937" style="fill: #2d3142; fill-opacity: 0.75; stroke: #2d3142; stroke-opacity: 0.75"/>
     <use xlink:href="#meb210959ae" x="292.412252" y="111.933937" style="fill: #2d3142; fill-opacity: 0.75; stroke: #2d3142; stroke-opacity: 0.75"/>
     <use xlink:href="#meb210959ae" x="443.722325" y="111.933937" style="fill: #2d3142; fill-opacity: 0.75; stroke: #2d3142; stroke-opacity: 0.75"/>
     <use xlink:href="#meb210959ae" x="232.012758" y="111.933937" style="fill: #2d3142; fill-opacity: 0.75; stroke: #2d3142; stroke-opacity: 0.75"/>
    </g>
   </g>
   <g id="PathCollection_3">
    <g clip-path="url(#p02ee5b9acd)">
     <use xlink:href="#meb210959ae" x="151.687657" y="31.293937" style="fill: #2d3142; fill-opacity: 0.75; stroke: #2d3142; stroke-opacity: 0.75"/>
     <use xlink:href="#meb210959ae" x="151.687657" y="31.293937" style="fill: #2d3142; fill-opacity: 0.75; stroke: #2d3142; stroke-opacity: 0.75"/>
     <use xlink:href="#meb210959ae" x="151.687657" y="31.293937" style="fill: #2d3142; fill-opacity: 0.75; stroke: #2d3142; stroke-opacity: 0.75"/>
     <use xlink:href="#meb210959ae" x="151.687657" y="31.293937" style="fill: #2d3142; fill-opacity: 0.75; stroke: #2d3142; stroke-opacity: 0.75"/>
     <use xlink:href="#meb210959ae" x="125.535299" y="31.293937" style="fill: #2d3142; fill-opacity: 0.75; stroke: #2d3142; stroke-opacity: 0.75"/>
     <use xlink:href="#meb210959ae" x="125.535299" y="31.293937" style="fill: #2d3142; fill-opacity: 0.75; stroke: #2d3142; stroke-opacity: 0.75"/>
    </g>
   </g>
   <g id="text_12">
    <!-- Crafter isn't deterministic per seed  (six identical runs each) -->
    <g transform="translate(41.826594 17.229937) scale(0.132 -0.132)">
     <defs>
      <path id="DejaVuSans-Bold-26" d="M 4288 256 
Q 3956 84 3597 -3 
Q 3238 -91 2847 -91 
Q 1681 -91 1000 561 
Q 319 1213 319 2328 
Q 319 3447 1000 4098 
Q 1681 4750 2847 4750 
Q 3238 4750 3597 4662 
Q 3956 4575 4288 4403 
L 4288 3438 
Q 3953 3666 3628 3772 
Q 3303 3878 2944 3878 
Q 2300 3878 1931 3465 
Q 1563 3053 1563 2328 
Q 1563 1606 1931 1193 
Q 2300 781 2944 781 
Q 3303 781 3628 887 
Q 3953 994 4288 1222 
L 4288 256 
z
" transform="scale(0.015625)"/>
      <path id="DejaVuSans-Bold-55" d="M 3138 2547 
Q 2991 2616 2845 2648 
Q 2700 2681 2553 2681 
Q 2122 2681 1889 2404 
Q 1656 2128 1656 1613 
L 1656 0 
L 538 0 
L 538 3500 
L 1656 3500 
L 1656 2925 
Q 1872 3269 2151 3426 
Q 2431 3584 2822 3584 
Q 2878 3584 2943 3579 
Q 3009 3575 3134 3559 
L 3138 2547 
z
" transform="scale(0.015625)"/>
      <path id="DejaVuSans-Bold-44" d="M 2106 1575 
Q 1756 1575 1579 1456 
Q 1403 1338 1403 1106 
Q 1403 894 1545 773 
Q 1688 653 1941 653 
Q 2256 653 2472 879 
Q 2688 1106 2688 1447 
L 2688 1575 
L 2106 1575 
z
M 3816 1997 
L 3816 0 
L 2688 0 
L 2688 519 
Q 2463 200 2181 54 
Q 1900 -91 1497 -91 
Q 953 -91 614 226 
Q 275 544 275 1050 
Q 275 1666 698 1953 
Q 1122 2241 2028 2241 
L 2688 2241 
L 2688 2328 
Q 2688 2594 2478 2717 
Q 2269 2841 1825 2841 
Q 1466 2841 1156 2769 
Q 847 2697 581 2553 
L 581 3406 
Q 941 3494 1303 3539 
Q 1666 3584 2028 3584 
Q 2975 3584 3395 3211 
Q 3816 2838 3816 1997 
z
" transform="scale(0.015625)"/>
      <path id="DejaVuSans-Bold-49" d="M 2841 4863 
L 2841 4128 
L 2222 4128 
Q 1984 4128 1890 4042 
Q 1797 3956 1797 3744 
L 1797 3500 
L 2753 3500 
L 2753 2700 
L 1797 2700 
L 1797 0 
L 678 0 
L 678 2700 
L 122 2700 
L 122 3500 
L 678 3500 
L 678 3744 
Q 678 4316 997 4589 
Q 1316 4863 1984 4863 
L 2841 4863 
z
" transform="scale(0.015625)"/>
      <path id="DejaVuSans-Bold-57" d="M 1759 4494 
L 1759 3500 
L 2913 3500 
L 2913 2700 
L 1759 2700 
L 1759 1216 
Q 1759 972 1856 886 
Q 1953 800 2241 800 
L 2816 800 
L 2816 0 
L 1856 0 
Q 1194 0 917 276 
Q 641 553 641 1216 
L 641 2700 
L 84 2700 
L 84 3500 
L 641 3500 
L 641 4494 
L 1759 4494 
z
" transform="scale(0.015625)"/>
      <path id="DejaVuSans-Bold-48" d="M 4031 1759 
L 4031 1441 
L 1416 1441 
Q 1456 1047 1700 850 
Q 1944 653 2381 653 
Q 2734 653 3104 758 
Q 3475 863 3866 1075 
L 3866 213 
Q 3469 63 3072 -14 
Q 2675 -91 2278 -91 
Q 1328 -91 801 392 
Q 275 875 275 1747 
Q 275 2603 792 3093 
Q 1309 3584 2216 3584 
Q 3041 3584 3536 3087 
Q 4031 2591 4031 1759 
z
M 2881 2131 
Q 2881 2450 2695 2645 
Q 2509 2841 2209 2841 
Q 1884 2841 1681 2658 
Q 1478 2475 1428 2131 
L 2881 2131 
z
" transform="scale(0.015625)"/>
      <path id="DejaVuSans-Bold-3" transform="scale(0.015625)"/>
      <path id="DejaVuSans-Bold-4c" d="M 538 3500 
L 1656 3500 
L 1656 0 
L 538 0 
L 538 3500 
z
M 538 4863 
L 1656 4863 
L 1656 3950 
L 538 3950 
L 538 4863 
z
" transform="scale(0.015625)"/>
      <path id="DejaVuSans-Bold-56" d="M 3272 3391 
L 3272 2541 
Q 2913 2691 2578 2766 
Q 2244 2841 1947 2841 
Q 1628 2841 1473 2761 
Q 1319 2681 1319 2516 
Q 1319 2381 1436 2309 
Q 1553 2238 1856 2203 
L 2053 2175 
Q 2913 2066 3209 1816 
Q 3506 1566 3506 1031 
Q 3506 472 3093 190 
Q 2681 -91 1863 -91 
Q 1516 -91 1145 -36 
Q 775 19 384 128 
L 384 978 
Q 719 816 1070 734 
Q 1422 653 1784 653 
Q 2113 653 2278 743 
Q 2444 834 2444 1013 
Q 2444 1163 2330 1236 
Q 2216 1309 1875 1350 
L 1678 1375 
Q 931 1469 631 1722 
Q 331 1975 331 2491 
Q 331 3047 712 3315 
Q 1094 3584 1881 3584 
Q 2191 3584 2531 3537 
Q 2872 3491 3272 3391 
z
" transform="scale(0.015625)"/>
      <path id="DejaVuSans-Bold-51" d="M 4056 2131 
L 4056 0 
L 2931 0 
L 2931 347 
L 2931 1631 
Q 2931 2084 2911 2256 
Q 2891 2428 2841 2509 
Q 2775 2619 2662 2680 
Q 2550 2741 2406 2741 
Q 2056 2741 1856 2470 
Q 1656 2200 1656 1722 
L 1656 0 
L 538 0 
L 538 3500 
L 1656 3500 
L 1656 2988 
Q 1909 3294 2193 3439 
Q 2478 3584 2822 3584 
Q 3428 3584 3742 3212 
Q 4056 2841 4056 2131 
z
" transform="scale(0.015625)"/>
      <path id="DejaVuSans-Bold-a" d="M 1350 4666 
L 1350 2931 
L 609 2931 
L 609 4666 
L 1350 4666 
z
" transform="scale(0.015625)"/>
      <path id="DejaVuSans-Bold-47" d="M 2919 2988 
L 2919 4863 
L 4044 4863 
L 4044 0 
L 2919 0 
L 2919 506 
Q 2688 197 2409 53 
Q 2131 -91 1766 -91 
Q 1119 -91 703 423 
Q 288 938 288 1747 
Q 288 2556 703 3070 
Q 1119 3584 1766 3584 
Q 2128 3584 2408 3439 
Q 2688 3294 2919 2988 
z
M 2181 722 
Q 2541 722 2730 984 
Q 2919 1247 2919 1747 
Q 2919 2247 2730 2509 
Q 2541 2772 2181 2772 
Q 1825 2772 1636 2509 
Q 1447 2247 1447 1747 
Q 1447 1247 1636 984 
Q 1825 722 2181 722 
z
" transform="scale(0.015625)"/>
      <path id="DejaVuSans-Bold-50" d="M 3781 2919 
Q 3994 3244 4286 3414 
Q 4578 3584 4928 3584 
Q 5531 3584 5847 3212 
Q 6163 2841 6163 2131 
L 6163 0 
L 5038 0 
L 5038 1825 
Q 5041 1866 5042 1909 
Q 5044 1953 5044 2034 
Q 5044 2406 4934 2573 
Q 4825 2741 4581 2741 
Q 4263 2741 4089 2478 
Q 3916 2216 3909 1719 
L 3909 0 
L 2784 0 
L 2784 1825 
Q 2784 2406 2684 2573 
Q 2584 2741 2328 2741 
Q 2006 2741 1831 2477 
Q 1656 2213 1656 1722 
L 1656 0 
L 531 0 
L 531 3500 
L 1656 3500 
L 1656 2988 
Q 1863 3284 2130 3434 
Q 2397 3584 2719 3584 
Q 3081 3584 3359 3409 
Q 3638 3234 3781 2919 
z
" transform="scale(0.015625)"/>
      <path id="DejaVuSans-Bold-46" d="M 3366 3391 
L 3366 2478 
Q 3138 2634 2908 2709 
Q 2678 2784 2431 2784 
Q 1963 2784 1702 2511 
Q 1441 2238 1441 1747 
Q 1441 1256 1702 982 
Q 1963 709 2431 709 
Q 2694 709 2930 787 
Q 3166 866 3366 1019 
L 3366 103 
Q 3103 6 2833 -42 
Q 2563 -91 2291 -91 
Q 1344 -91 809 395 
Q 275 881 275 1747 
Q 275 2613 809 3098 
Q 1344 3584 2291 3584 
Q 2566 3584 2833 3536 
Q 3100 3488 3366 3391 
z
" transform="scale(0.015625)"/>
      <path id="DejaVuSans-Bold-53" d="M 1656 506 
L 1656 -1331 
L 538 -1331 
L 538 3500 
L 1656 3500 
L 1656 2988 
Q 1888 3294 2169 3439 
Q 2450 3584 2816 3584 
Q 3463 3584 3878 3070 
Q 4294 2556 4294 1747 
Q 4294 938 3878 423 
Q 3463 -91 2816 -91 
Q 2450 -91 2169 54 
Q 1888 200 1656 506 
z
M 2400 2772 
Q 2041 2772 1848 2508 
Q 1656 2244 1656 1747 
Q 1656 1250 1848 986 
Q 2041 722 2400 722 
Q 2759 722 2948 984 
Q 3138 1247 3138 1747 
Q 3138 2247 2948 2509 
Q 2759 2772 2400 2772 
z
" transform="scale(0.015625)"/>
      <path id="DejaVuSans-Bold-b" d="M 2413 -844 
L 1484 -844 
Q 1006 -72 778 623 
Q 550 1319 550 2003 
Q 550 2688 779 3389 
Q 1009 4091 1484 4856 
L 2413 4856 
Q 2013 4116 1813 3408 
Q 1613 2700 1613 2009 
Q 1613 1319 1811 609 
Q 2009 -100 2413 -844 
z
" transform="scale(0.015625)"/>
      <path id="DejaVuSans-Bold-5b" d="M 1422 1791 
L 159 3500 
L 1344 3500 
L 2059 2463 
L 2784 3500 
L 3969 3500 
L 2706 1797 
L 4031 0 
L 2847 0 
L 2059 1106 
L 1281 0 
L 97 0 
L 1422 1791 
z
" transform="scale(0.015625)"/>
      <path id="DejaVuSans-Bold-4f" d="M 538 4863 
L 1656 4863 
L 1656 0 
L 538 0 
L 538 4863 
z
" transform="scale(0.015625)"/>
      <path id="DejaVuSans-Bold-58" d="M 500 1363 
L 500 3500 
L 1625 3500 
L 1625 3150 
Q 1625 2866 1622 2436 
Q 1619 2006 1619 1863 
Q 1619 1441 1641 1255 
Q 1663 1069 1716 984 
Q 1784 875 1895 815 
Q 2006 756 2150 756 
Q 2500 756 2700 1025 
Q 2900 1294 2900 1772 
L 2900 3500 
L 4019 3500 
L 4019 0 
L 2900 0 
L 2900 506 
Q 2647 200 2364 54 
Q 2081 -91 1741 -91 
Q 1134 -91 817 281 
Q 500 653 500 1363 
z
" transform="scale(0.015625)"/>
      <path id="DejaVuSans-Bold-4b" d="M 4056 2131 
L 4056 0 
L 2931 0 
L 2931 347 
L 2931 1625 
Q 2931 2084 2911 2256 
Q 2891 2428 2841 2509 
Q 2775 2619 2662 2680 
Q 2550 2741 2406 2741 
Q 2056 2741 1856 2470 
Q 1656 2200 1656 1722 
L 1656 0 
L 538 0 
L 538 4863 
L 1656 4863 
L 1656 2988 
Q 1909 3294 2193 3439 
Q 2478 3584 2822 3584 
Q 3428 3584 3742 3212 
Q 4056 2841 4056 2131 
z
" transform="scale(0.015625)"/>
      <path id="DejaVuSans-Bold-c" d="M 513 -844 
Q 913 -100 1113 609 
Q 1313 1319 1313 2009 
Q 1313 2700 1113 3408 
Q 913 4116 513 4856 
L 1441 4856 
Q 1916 4091 2145 3389 
Q 2375 2688 2375 2003 
Q 2375 1319 2147 623 
Q 1919 -72 1441 -844 
L 513 -844 
z
" transform="scale(0.015625)"/>
     </defs>
     <use xlink:href="#DejaVuSans-Bold-26"/>
     <use xlink:href="#DejaVuSans-Bold-55" transform="translate(73.390625 0)"/>
     <use xlink:href="#DejaVuSans-Bold-44" transform="translate(122.703125 0)"/>
     <use xlink:href="#DejaVuSans-Bold-49" transform="translate(190.1875 0)"/>
     <use xlink:href="#DejaVuSans-Bold-57" transform="translate(233.6875 0)"/>
     <use xlink:href="#DejaVuSans-Bold-48" transform="translate(281.484375 0)"/>
     <use xlink:href="#DejaVuSans-Bold-55" transform="translate(349.3125 0)"/>
     <use xlink:href="#DejaVuSans-Bold-3" transform="translate(398.625 0)"/>
     <use xlink:href="#DejaVuSans-Bold-4c" transform="translate(433.4375 0)"/>
     <use xlink:href="#DejaVuSans-Bold-56" transform="translate(467.71875 0)"/>
     <use xlink:href="#DejaVuSans-Bold-51" transform="translate(527.234375 0)"/>
     <use xlink:href="#DejaVuSans-Bold-a" transform="translate(598.421875 0)"/>
     <use xlink:href="#DejaVuSans-Bold-57" transform="translate(629.03125 0)"/>
     <use xlink:href="#DejaVuSans-Bold-3" transform="translate(676.828125 0)"/>
     <use xlink:href="#DejaVuSans-Bold-47" transform="translate(711.640625 0)"/>
     <use xlink:href="#DejaVuSans-Bold-48" transform="translate(783.21875 0)"/>
     <use xlink:href="#DejaVuSans-Bold-57" transform="translate(851.046875 0)"/>
     <use xlink:href="#DejaVuSans-Bold-48" transform="translate(898.84375 0)"/>
     <use xlink:href="#DejaVuSans-Bold-55" transform="translate(966.671875 0)"/>
     <use xlink:href="#DejaVuSans-Bold-50" transform="translate(1015.984375 0)"/>
     <use xlink:href="#DejaVuSans-Bold-4c" transform="translate(1120.1875 0)"/>
     <use xlink:href="#DejaVuSans-Bold-51" transform="translate(1154.46875 0)"/>
     <use xlink:href="#DejaVuSans-Bold-4c" transform="translate(1225.65625 0)"/>
     <use xlink:href="#DejaVuSans-Bold-56" transform="translate(1259.9375 0)"/>
     <use xlink:href="#DejaVuSans-Bold-57" transform="translate(1319.453125 0)"/>
     <use xlink:href="#DejaVuSans-Bold-4c" transform="translate(1367.25 0)"/>
     <use xlink:href="#DejaVuSans-Bold-46" transform="translate(1401.53125 0)"/>
     <use xlink:href="#DejaVuSans-Bold-3" transform="translate(1460.8125 0)"/>
     <use xlink:href="#DejaVuSans-Bold-53" transform="translate(1495.625 0)"/>
     <use xlink:href="#DejaVuSans-Bold-48" transform="translate(1567.203125 0)"/>
     <use xlink:href="#DejaVuSans-Bold-55" transform="translate(1635.03125 0)"/>
     <use xlink:href="#DejaVuSans-Bold-3" transform="translate(1684.34375 0)"/>
     <use xlink:href="#DejaVuSans-Bold-56" transform="translate(1719.15625 0)"/>
     <use xlink:href="#DejaVuSans-Bold-48" transform="translate(1778.671875 0)"/>
     <use xlink:href="#DejaVuSans-Bold-48" transform="translate(1846.5 0)"/>
     <use xlink:href="#DejaVuSans-Bold-47" transform="translate(1914.328125 0)"/>
     <use xlink:href="#DejaVuSans-Bold-3" transform="translate(1985.90625 0)"/>
     <use xlink:href="#DejaVuSans-Bold-3" transform="translate(2020.71875 0)"/>
     <use xlink:href="#DejaVuSans-Bold-b" transform="translate(2055.53125 0)"/>
     <use xlink:href="#DejaVuSans-Bold-56" transform="translate(2101.234375 0)"/>
     <use xlink:href="#DejaVuSans-Bold-4c" transform="translate(2160.75 0)"/>
     <use xlink:href="#DejaVuSans-Bold-5b" transform="translate(2195.03125 0)"/>
     <use xlink:href="#DejaVuSans-Bold-3" transform="translate(2259.53125 0)"/>
     <use xlink:href="#DejaVuSans-Bold-4c" transform="translate(2294.34375 0)"/>
     <use xlink:href="#DejaVuSans-Bold-47" transform="translate(2328.625 0)"/>
     <use xlink:href="#DejaVuSans-Bold-48" transform="translate(2400.203125 0)"/>
     <use xlink:href="#DejaVuSans-Bold-51" transform="translate(2468.03125 0)"/>
     <use xlink:href="#DejaVuSans-Bold-57" transform="translate(2539.21875 0)"/>
     <use xlink:href="#DejaVuSans-Bold-4c" transform="translate(2587.015625 0)"/>
     <use xlink:href="#DejaVuSans-Bold-46" transform="translate(2621.296875 0)"/>
     <use xlink:href="#DejaVuSans-Bold-44" transform="translate(2680.578125 0)"/>
     <use xlink:href="#DejaVuSans-Bold-4f" transform="translate(2748.0625 0)"/>
     <use xlink:href="#DejaVuSans-Bold-3" transform="translate(2782.34375 0)"/>
     <use xlink:href="#DejaVuSans-Bold-55" transform="translate(2817.15625 0)"/>
     <use xlink:href="#DejaVuSans-Bold-58" transform="translate(2866.46875 0)"/>
     <use xlink:href="#DejaVuSans-Bold-51" transform="translate(2937.65625 0)"/>
     <use xlink:href="#DejaVuSans-Bold-56" transform="translate(3008.84375 0)"/>
     <use xlink:href="#DejaVuSans-Bold-3" transform="translate(3068.359375 0)"/>
     <use xlink:href="#DejaVuSans-Bold-48" transform="translate(3103.171875 0)"/>
     <use xlink:href="#DejaVuSans-Bold-44" transform="translate(3171 0)"/>
     <use xlink:href="#DejaVuSans-Bold-46" transform="translate(3238.484375 0)"/>
     <use xlink:href="#DejaVuSans-Bold-4b" transform="translate(3297.765625 0)"/>
     <use xlink:href="#DejaVuSans-Bold-c" transform="translate(3368.953125 0)"/>
    </g>
   </g>
  </g>
 </g>
 <defs>
  <clipPath id="p02ee5b9acd">
   <rect x="57.943906" y="23.229937" width="418.5" height="177.408"/>
  </clipPath>
 </defs>
</svg>
