<?xml version="1.0" encoding="utf-8" standalone="no"?>
<!DOCTYPE svg PUBLIC "-//W3C//DTD SVG 1.1//EN"
  "http://www.w3.org/Graphics/SVG/1.1/DTD/svg11.dtd">
<svg xmlns:xlink="http://www.w3.org/1999/xlink" width="856.781875pt" height="346.968859pt" viewBox="0 0 856.781875 346.968859" xmlns="http://www.w3.org/2000/svg" version="1.1">
 <metadata>
  <rdf:RDF xmlns:dc="http://purl.org/dc/elements/1.1/" xmlns:cc="http://creativecommons.org/ns#" xmlns:rdf="http://www.w3.org/1999/02/22-rdf-syntax-ns#">
   <cc:Work>
    <dc:type rdf:resource="http://purl.org/dc/dcmitype/StillImage"/>
    <dc:date>2026-07-03T19:58:26.953950</dc:date>
    <dc:format>image/svg+xml</dc:format>
    <dc:creator>
     <cc:Agent>
      <dc:title>Matplotlib v3.11.0, https://matplotlib.org/</dc:title>
     </cc:Agent>
    </dc:creator>
   </cc:Work>
  </rdf:RDF>
 </metadata>
 <defs>
  <style type="text/css">*{stroke-linejoin: round; stroke-linecap: butt}</style>
 </defs>
 <g id="figure_1">
  <g id="patch_1">
   <path d="M 0 346.968859 
L 856.781875 346.968859 
L 856.781875 0 
L 0 0 
z
" style="fill: #ffffff"/>
  </g>
  <g id="axes_1">
   <g id="patch_2">
    <path d="M 135.693125 306.768 
L 408.82138 306.768 
L 408.82138 73.539094 
L 135.693125 73.539094 
z
" style="fill: #ffffff"/>
   </g>
   <g id="matplotlib.axis_1">
    <g id="xtick_1">
     <g id="line2d_1">
      <defs>
       <path id="md26286b010" d="M 0 0 
L 0 3.5 
" style="stroke: #000000; stroke-width: 0.8"/>
      </defs>
      <g>
       <use xlink:href="#md26286b010" x="152.169001" y="306.768" style="stroke: #000000; stroke-width: 0.8"/>
      </g>
     </g>
     <g id="text_1">
      <!-- −50 -->
      <g transform="translate(140.561423 322.125422) scale(0.11 -0.11)">
       <defs>
        <path id="DejaVuSans-c9c" d="M 678 2272 
L 4684 2272 
L 4684 1741 
L 678 1741 
L 678 2272 
z
" transform="scale(0.015625)"/>
        <path id="DejaVuSans-18" d="M 691 4666 
L 3169 4666 
L 3169 4134 
L 1269 4134 
L 1269 2991 
Q 1406 3038 1543 3061 
Q 1681 3084 1819 3084 
Q 2600 3084 3056 2656 
Q 3513 2228 3513 1497 
Q 3513 744 3044 326 
Q 2575 -91 1722 -91 
Q 1428 -91 1123 -41 
Q 819 9 494 109 
L 494 744 
Q 775 591 1075 516 
Q 1375 441 1709 441 
Q 2250 441 2565 725 
Q 2881 1009 2881 1497 
Q 2881 1984 2565 2268 
Q 2250 2553 1709 2553 
Q 1456 2553 1204 2497 
Q 953 2441 691 2322 
L 691 4666 
z
" transform="scale(0.015625)"/>
        <path id="DejaVuSans-13" d="M 2034 4250 
Q 1547 4250 1301 3770 
Q 1056 3291 1056 2328 
Q 1056 1369 1301 889 
Q 1547 409 2034 409 
Q 2525 409 2770 889 
Q 3016 1369 3016 2328 
Q 3016 3291 2770 3770 
Q 2525 4250 2034 4250 
z
M 2034 4750 
Q 2819 4750 3233 4129 
Q 3647 3509 3647 2328 
Q 3647 1150 3233 529 
Q 2819 -91 2034 -91 
Q 1250 -91 836 529 
Q 422 1150 422 2328 
Q 422 3509 836 4129 
Q 1250 4750 2034 4750 
z
" transform="scale(0.015625)"/>
       </defs>
       <use xlink:href="#DejaVuSans-c9c"/>
       <use xlink:href="#DejaVuSans-18" transform="translate(83.796875 0)"/>
       <use xlink:href="#DejaVuSans-13" transform="translate(147.421875 0)"/>
      </g>
     </g>
    </g>
    <g id="xtick_2">
     <g id="line2d_2">
      <g>
       <use xlink:href="#md26286b010" x="188.427531" y="306.768" style="stroke: #000000; stroke-width: 0.8"/>
      </g>
     </g>
     <g id="text_2">
      <!-- −25 -->
      <g transform="translate(176.819953 322.125422) scale(0.11 -0.11)">
       <defs>
        <path id="DejaVuSans-15" d="M 1228 531 
L 3431 531 
L 3431 0 
L 469 0 
L 469 531 
Q 828 903 1448 1529 
Q 2069 2156 2228 2338 
Q 2531 2678 2651 2914 
Q 2772 3150 2772 3378 
Q 2772 3750 2511 3984 
Q 2250 4219 1831 4219 
Q 1534 4219 1204 4116 
Q 875 4013 500 3803 
L 500 4441 
Q 881 4594 1212 4672 
Q 1544 4750 1819 4750 
Q 2544 4750 2975 4387 
Q 3406 4025 3406 3419 
Q 3406 3131 3298 2873 
Q 3191 2616 2906 2266 
Q 2828 2175 2409 1742 
Q 1991 1309 1228 531 
z
" transform="scale(0.015625)"/>
       </defs>
       <use xlink:href="#DejaVuSans-c9c"/>
       <use xlink:href="#DejaVuSans-15" transform="translate(83.796875 0)"/>
       <use xlink:href="#DejaVuSans-18" transform="translate(147.421875 0)"/>
      </g>
     </g>
    </g>
    <g id="xtick_3">
     <g id="line2d_3">
      <g>
       <use xlink:href="#md26286b010" x="224.686061" y="306.768" style="stroke: #000000; stroke-width: 0.8"/>
      </g>
     </g>
     <g id="text_3">
      <!-- 0 -->
      <g transform="translate(221.186686 322.125422) scale(0.11 -0.11)">
       <use xlink:href="#DejaVuSans-13"/>
      </g>
     </g>
    </g>
    <g id="xtick_4">
     <g id="line2d_4">
      <g>
       <use xlink:href="#md26286b010" x="260.944591" y="306.768" style="stroke: #000000; stroke-width: 0.8"/>
      </g>
     </g>
     <g id="text_4">
      <!-- 25 -->
      <g transform="translate(253.945841 322.125422) scale(0.11 -0.11)">
       <use xlink:href="#DejaVuSans-15"/>
       <use xlink:href="#DejaVuSans-18" transform="translate(63.625 0)"/>
      </g>
     </g>
    </g>
    <g id="xtick_5">
     <g id="line2d_5">
      <g>
       <use xlink:href="#md26286b010" x="297.203121" y="306.768" style="stroke: #000000; stroke-width: 0.8"/>
      </g>
     </g>
     <g id="text_5">
      <!-- 50 -->
      <g transform="translate(290.204371 322.125422) scale(0.11 -0.11)">
       <use xlink:href="#DejaVuSans-18"/>
       <use xlink:href="#DejaVuSans-13" transform="translate(63.625 0)"/>
      </g>
     </g>
    </g>
    <g id="xtick_6">
     <g id="line2d_6">
      <g>
       <use xlink:href="#md26286b010" x="333.461652" y="306.768" style="stroke: #000000; stroke-width: 0.8"/>
      </g>
     </g>
     <g id="text_6">
      <!-- 75 -->
      <g transform="translate(326.462902 322.125422) scale(0.11 -0.11)">
       <defs>
        <path id="DejaVuSans-1a" d="M 525 4666 
L 3525 4666 
L 3525 4397 
L 1831 0 
L 1172 0 
L 2766 4134 
L 525 4134 
L 525 4666 
z
" transform="scale(0.015625)"/>
       </defs>
       <use xlink:href="#DejaVuSans-1a"/>
       <use xlink:href="#DejaVuSans-18" transform="translate(63.625 0)"/>
      </g>
     </g>
    </g>
    <g id="xtick_7">
     <g id="line2d_7">
      <g>
       <use xlink:href="#md26286b010" x="369.720182" y="306.768" style="stroke: #000000; stroke-width: 0.8"/>
      </g>
     </g>
     <g id="text_7">
      <!-- 100 -->
      <g transform="translate(359.222057 322.125422) scale(0.11 -0.11)">
       <defs>
        <path id="DejaVuSans-14" d="M 794 531 
L 1825 531 
L 1825 4091 
L 703 3866 
L 703 4441 
L 1819 4666 
L 2450 4666 
L 2450 531 
L 3481 531 
L 3481 0 
L 794 0 
L 794 531 
z
" transform="scale(0.015625)"/>
       </defs>
       <use xlink:href="#DejaVuSans-14"/>
       <use xlink:href="#DejaVuSans-13" transform="translate(63.625 0)"/>
       <use xlink:href="#DejaVuSans-13" transform="translate(127.25 0)"/>
      </g>
     </g>
    </g>
    <g id="xtick_8">
     <g id="line2d_8">
      <g>
       <use xlink:href="#md26286b010" x="405.978712" y="306.768" style="stroke: #000000; stroke-width: 0.8"/>
      </g>
     </g>
     <g id="text_8">
      <!-- 125 -->
      <g transform="translate(395.480587 322.125422) scale(0.11 -0.11)">
       <use xlink:href="#DejaVuSans-14"/>
       <use xlink:href="#DejaVuSans-15" transform="translate(63.625 0)"/>
       <use xlink:href="#DejaVuSans-18" transform="translate(127.25 0)"/>
      </g>
     </g>
    </g>
    <g id="text_9">
     <!-- survival effect (steps, paired mean ± 95% CI) -->
     <g transform="translate(146.632956 337.126281) scale(0.11 -0.11)">
      <defs>
       <path id="DejaVuSans-56" d="M 2834 3397 
L 2834 2853 
Q 2591 2978 2328 3040 
Q 2066 3103 1784 3103 
Q 1356 3103 1142 2972 
Q 928 2841 928 2578 
Q 928 2378 1081 2264 
Q 1234 2150 1697 2047 
L 1894 2003 
Q 2506 1872 2764 1633 
Q 3022 1394 3022 966 
Q 3022 478 2636 193 
Q 2250 -91 1575 -91 
Q 1294 -91 989 -36 
Q 684 19 347 128 
L 347 722 
Q 666 556 975 473 
Q 1284 391 1588 391 
Q 1994 391 2212 530 
Q 2431 669 2431 922 
Q 2431 1156 2273 1281 
Q 2116 1406 1581 1522 
L 1381 1569 
Q 847 1681 609 1914 
Q 372 2147 372 2553 
Q 372 3047 722 3315 
Q 1072 3584 1716 3584 
Q 2034 3584 2315 3537 
Q 2597 3491 2834 3397 
z
" transform="scale(0.015625)"/>
       <path id="DejaVuSans-58" d="M 544 1381 
L 544 3500 
L 1119 3500 
L 1119 1403 
Q 1119 906 1312 657 
Q 1506 409 1894 409 
Q 2359 409 2629 706 
Q 2900 1003 2900 1516 
L 2900 3500 
L 3475 3500 
L 3475 0 
L 2900 0 
L 2900 538 
Q 2691 219 2414 64 
Q 2138 -91 1772 -91 
Q 1169 -91 856 284 
Q 544 659 544 1381 
z
M 1991 3584 
L 1991 3584 
z
" transform="scale(0.015625)"/>
       <path id="DejaVuSans-55" d="M 2631 2963 
Q 2534 3019 2420 3045 
Q 2306 3072 2169 3072 
Q 1681 3072 1420 2755 
Q 1159 2438 1159 1844 
L 1159 0 
L 581 0 
L 581 3500 
L 1159 3500 
L 1159 2956 
Q 1341 3275 1631 3429 
Q 1922 3584 2338 3584 
Q 2397 3584 2469 3576 
Q 2541 3569 2628 3553 
L 2631 2963 
z
" transform="scale(0.015625)"/>
       <path id="DejaVuSans-59" d="M 191 3500 
L 800 3500 
L 1894 563 
L 2988 3500 
L 3597 3500 
L 2284 0 
L 1503 0 
L 191 3500 
z
" transform="scale(0.015625)"/>
       <path id="DejaVuSans-4c" d="M 603 3500 
L 1178 3500 
L 1178 0 
L 603 0 
L 603 3500 
z
M 603 4863 
L 1178 4863 
L 1178 4134 
L 603 4134 
L 603 4863 
z
" transform="scale(0.015625)"/>
       <path id="DejaVuSans-44" d="M 2194 1759 
Q 1497 1759 1228 1600 
Q 959 1441 959 1056 
Q 959 750 1161 570 
Q 1363 391 1709 391 
Q 2188 391 2477 730 
Q 2766 1069 2766 1631 
L 2766 1759 
L 2194 1759 
z
M 3341 1997 
L 3341 0 
L 2766 0 
L 2766 531 
Q 2569 213 2275 61 
Q 1981 -91 1556 -91 
Q 1019 -91 701 211 
Q 384 513 384 1019 
Q 384 1609 779 1909 
Q 1175 2209 1959 2209 
L 2766 2209 
L 2766 2266 
Q 2766 2663 2505 2880 
Q 2244 3097 1772 3097 
Q 1472 3097 1187 3025 
Q 903 2953 641 2809 
L 641 3341 
Q 956 3463 1253 3523 
Q 1550 3584 1831 3584 
Q 2591 3584 2966 3190 
Q 3341 2797 3341 1997 
z
" transform="scale(0.015625)"/>
       <path id="DejaVuSans-4f" d="M 603 4863 
L 1178 4863 
L 1178 0 
L 603 0 
L 603 4863 
z
" transform="scale(0.015625)"/>
       <path id="DejaVuSans-3" transform="scale(0.015625)"/>
       <path id="DejaVuSans-48" d="M 3597 1894 
L 3597 1613 
L 953 1613 
Q 991 1019 1311 708 
Q 1631 397 2203 397 
Q 2534 397 2845 478 
Q 3156 559 3463 722 
L 3463 178 
Q 3153 47 2828 -22 
Q 2503 -91 2169 -91 
Q 1331 -91 842 396 
Q 353 884 353 1716 
Q 353 2575 817 3079 
Q 1281 3584 2069 3584 
Q 2775 3584 3186 3129 
Q 3597 2675 3597 1894 
z
M 3022 2063 
Q 3016 2534 2758 2815 
Q 2500 3097 2075 3097 
Q 1594 3097 1305 2825 
Q 1016 2553 972 2059 
L 3022 2063 
z
" transform="scale(0.015625)"/>
       <path id="DejaVuSans-13ae" d="M 4531 4863 
L 4531 4384 
L 3981 4384 
Q 3672 4384 3551 4259 
Q 3431 4134 3431 3809 
L 3431 3500 
L 4378 3500 
L 4378 3053 
L 3431 3053 
L 3431 0 
L 2853 0 
L 2853 3053 
L 1275 3053 
L 1275 0 
L 697 0 
L 697 3053 
L 147 3053 
L 147 3500 
L 697 3500 
L 697 3744 
Q 697 4328 969 4595 
Q 1241 4863 1831 4863 
L 2375 4863 
L 2375 4384 
L 1825 4384 
Q 1516 4384 1394 4259 
Q 1275 4134 1275 3809 
L 1275 3500 
L 2853 3500 
L 2853 3744 
Q 2853 4328 3125 4595 
Q 3397 4863 3988 4863 
L 4531 4863 
z
" transform="scale(0.015625)"/>
       <path id="DejaVuSans-46" d="M 3122 3366 
L 3122 2828 
Q 2878 2963 2633 3030 
Q 2388 3097 2138 3097 
Q 1578 3097 1268 2742 
Q 959 2388 959 1747 
Q 959 1106 1268 751 
Q 1578 397 2138 397 
Q 2388 397 2633 464 
Q 2878 531 3122 666 
L 3122 134 
Q 2881 22 2623 -34 
Q 2366 -91 2075 -91 
Q 1284 -91 818 406 
Q 353 903 353 1747 
Q 353 2603 823 3093 
Q 1294 3584 2113 3584 
Q 2378 3584 2631 3529 
Q 2884 3475 3122 3366 
z
" transform="scale(0.015625)"/>
       <path id="DejaVuSans-57" d="M 1172 4494 
L 1172 3500 
L 2356 3500 
L 2356 3053 
L 1172 3053 
L 1172 1153 
Q 1172 725 1289 603 
Q 1406 481 1766 481 
L 2356 481 
L 2356 0 
L 1766 0 
Q 1100 0 847 248 
Q 594 497 594 1153 
L 594 3053 
L 172 3053 
L 172 3500 
L 594 3500 
L 594 4494 
L 1172 4494 
z
" transform="scale(0.015625)"/>
       <path id="DejaVuSans-b" d="M 1984 4856 
Q 1566 4138 1362 3434 
Q 1159 2731 1159 2009 
Q 1159 1288 1364 580 
Q 1569 -128 1984 -844 
L 1484 -844 
Q 1016 -109 783 600 
Q 550 1309 550 2009 
Q 550 2706 781 3412 
Q 1013 4119 1484 4856 
L 1984 4856 
z
" transform="scale(0.015625)"/>
       <path id="DejaVuSans-53" d="M 1159 525 
L 1159 -1331 
L 581 -1331 
L 581 3500 
L 1159 3500 
L 1159 2969 
Q 1341 3281 1617 3432 
Q 1894 3584 2278 3584 
Q 2916 3584 3314 3078 
Q 3713 2572 3713 1747 
Q 3713 922 3314 415 
Q 2916 -91 2278 -91 
Q 1894 -91 1617 61 
Q 1341 213 1159 525 
z
M 3116 1747 
Q 3116 2381 2855 2742 
Q 2594 3103 2138 3103 
Q 1681 3103 1420 2742 
Q 1159 2381 1159 1747 
Q 1159 1113 1420 752 
Q 1681 391 2138 391 
Q 2594 391 2855 752 
Q 3116 1113 3116 1747 
z
" transform="scale(0.015625)"/>
       <path id="DejaVuSans-f" d="M 750 794 
L 1409 794 
L 1409 256 
L 897 -744 
L 494 -744 
L 750 256 
L 750 794 
z
" transform="scale(0.015625)"/>
       <path id="DejaVuSans-47" d="M 2906 2969 
L 2906 4863 
L 3481 4863 
L 3481 0 
L 2906 0 
L 2906 525 
Q 2725 213 2448 61 
Q 2172 -91 1784 -91 
Q 1150 -91 751 415 
Q 353 922 353 1747 
Q 353 2572 751 3078 
Q 1150 3584 1784 3584 
Q 2172 3584 2448 3432 
Q 2725 3281 2906 2969 
z
M 947 1747 
Q 947 1113 1208 752 
Q 1469 391 1925 391 
Q 2381 391 2643 752 
Q 2906 1113 2906 1747 
Q 2906 2381 2643 2742 
Q 2381 3103 1925 3103 
Q 1469 3103 1208 2742 
Q 947 2381 947 1747 
z
" transform="scale(0.015625)"/>
       <path id="DejaVuSans-50" d="M 3328 2828 
Q 3544 3216 3844 3400 
Q 4144 3584 4550 3584 
Q 5097 3584 5394 3201 
Q 5691 2819 5691 2113 
L 5691 0 
L 5113 0 
L 5113 2094 
Q 5113 2597 4934 2840 
Q 4756 3084 4391 3084 
Q 3944 3084 3684 2787 
Q 3425 2491 3425 1978 
L 3425 0 
L 2847 0 
L 2847 2094 
Q 2847 2600 2669 2842 
Q 2491 3084 2119 3084 
Q 1678 3084 1418 2786 
Q 1159 2488 1159 1978 
L 1159 0 
L 581 0 
L 581 3500 
L 1159 3500 
L 1159 2956 
Q 1356 3278 1631 3431 
Q 1906 3584 2284 3584 
Q 2666 3584 2933 3390 
Q 3200 3197 3328 2828 
z
" transform="scale(0.015625)"/>
       <path id="DejaVuSans-51" d="M 3513 2113 
L 3513 0 
L 2938 0 
L 2938 2094 
Q 2938 2591 2744 2837 
Q 2550 3084 2163 3084 
Q 1697 3084 1428 2787 
Q 1159 2491 1159 1978 
L 1159 0 
L 581 0 
L 581 3500 
L 1159 3500 
L 1159 2956 
Q 1366 3272 1645 3428 
Q 1925 3584 2291 3584 
Q 2894 3584 3203 3211 
Q 3513 2838 3513 2113 
z
" transform="scale(0.015625)"/>
       <path id="DejaVuSans-73" d="M 2944 4013 
L 2944 2803 
L 4684 2803 
L 4684 2272 
L 2944 2272 
L 2944 1063 
L 2419 1063 
L 2419 2272 
L 678 2272 
L 678 2803 
L 2419 2803 
L 2419 4013 
L 2944 4013 
z
M 678 531 
L 4684 531 
L 4684 0 
L 678 0 
L 678 531 
z
" transform="scale(0.015625)"/>
       <path id="DejaVuSans-1c" d="M 703 97 
L 703 672 
Q 941 559 1184 500 
Q 1428 441 1663 441 
Q 2288 441 2617 861 
Q 2947 1281 2994 2138 
Q 2813 1869 2534 1725 
Q 2256 1581 1919 1581 
Q 1219 1581 811 2004 
Q 403 2428 403 3163 
Q 403 3881 828 4315 
Q 1253 4750 1959 4750 
Q 2769 4750 3195 4129 
Q 3622 3509 3622 2328 
Q 3622 1225 3098 567 
Q 2575 -91 1691 -91 
Q 1453 -91 1209 -44 
Q 966 3 703 97 
z
M 1959 2075 
Q 2384 2075 2632 2365 
Q 2881 2656 2881 3163 
Q 2881 3666 2632 3958 
Q 2384 4250 1959 4250 
Q 1534 4250 1286 3958 
Q 1038 3666 1038 3163 
Q 1038 2656 1286 2365 
Q 1534 2075 1959 2075 
z
" transform="scale(0.015625)"/>
       <path id="DejaVuSans-8" d="M 4653 2053 
Q 4381 2053 4226 1822 
Q 4072 1591 4072 1178 
Q 4072 772 4226 539 
Q 4381 306 4653 306 
Q 4919 306 5073 539 
Q 5228 772 5228 1178 
Q 5228 1588 5073 1820 
Q 4919 2053 4653 2053 
z
M 4653 2450 
Q 5147 2450 5437 2106 
Q 5728 1763 5728 1178 
Q 5728 594 5436 251 
Q 5144 -91 4653 -91 
Q 4153 -91 3862 251 
Q 3572 594 3572 1178 
Q 3572 1766 3864 2108 
Q 4156 2450 4653 2450 
z
M 1428 4353 
Q 1159 4353 1004 4120 
Q 850 3888 850 3481 
Q 850 3069 1003 2837 
Q 1156 2606 1428 2606 
Q 1700 2606 1854 2837 
Q 2009 3069 2009 3481 
Q 2009 3884 1853 4118 
Q 1697 4353 1428 4353 
z
M 4250 4750 
L 4750 4750 
L 1831 -91 
L 1331 -91 
L 4250 4750 
z
M 1428 4750 
Q 1922 4750 2215 4408 
Q 2509 4066 2509 3481 
Q 2509 2891 2217 2550 
Q 1925 2209 1428 2209 
Q 931 2209 642 2551 
Q 353 2894 353 3481 
Q 353 4063 643 4406 
Q 934 4750 1428 4750 
z
" transform="scale(0.015625)"/>
       <path id="DejaVuSans-26" d="M 4122 4306 
L 4122 3641 
Q 3803 3938 3442 4084 
Q 3081 4231 2675 4231 
Q 1875 4231 1450 3742 
Q 1025 3253 1025 2328 
Q 1025 1406 1450 917 
Q 1875 428 2675 428 
Q 3081 428 3442 575 
Q 3803 722 4122 1019 
L 4122 359 
Q 3791 134 3420 21 
Q 3050 -91 2638 -91 
Q 1578 -91 968 557 
Q 359 1206 359 2328 
Q 359 3453 968 4101 
Q 1578 4750 2638 4750 
Q 3056 4750 3426 4639 
Q 3797 4528 4122 4306 
z
" transform="scale(0.015625)"/>
       <path id="DejaVuSans-2c" d="M 628 4666 
L 1259 4666 
L 1259 0 
L 628 0 
L 628 4666 
z
" transform="scale(0.015625)"/>
       <path id="DejaVuSans-c" d="M 513 4856 
L 1013 4856 
Q 1481 4119 1714 3412 
Q 1947 2706 1947 2009 
Q 1947 1309 1714 600 
Q 1481 -109 1013 -844 
L 513 -844 
Q 928 -128 1133 580 
Q 1338 1288 1338 2009 
Q 1338 2731 1133 3434 
Q 928 4138 513 4856 
z
" transform="scale(0.015625)"/>
      </defs>
      <use xlink:href="#DejaVuSans-56"/>
      <use xlink:href="#DejaVuSans-58" transform="translate(52.09375 0)"/>
      <use xlink:href="#DejaVuSans-55" transform="translate(115.46875 0)"/>
      <use xlink:href="#DejaVuSans-59" transform="translate(156.578125 0)"/>
      <use xlink:href="#DejaVuSans-4c" transform="translate(215.765625 0)"/>
      <use xlink:href="#DejaVuSans-59" transform="translate(243.546875 0)"/>
      <use xlink:href="#DejaVuSans-44" transform="translate(302.734375 0)"/>
      <use xlink:href="#DejaVuSans-4f" transform="translate(364.015625 0)"/>
      <use xlink:href="#DejaVuSans-3" transform="translate(391.796875 0)"/>
      <use xlink:href="#DejaVuSans-48" transform="translate(423.578125 0)"/>
      <use xlink:href="#DejaVuSans-13ae" transform="translate(485.109375 0)"/>
      <use xlink:href="#DejaVuSans-48" transform="translate(554 0)"/>
      <use xlink:href="#DejaVuSans-46" transform="translate(615.53125 0)"/>
      <use xlink:href="#DejaVuSans-57" transform="translate(670.515625 0)"/>
      <use xlink:href="#DejaVuSans-3" transform="translate(709.71875 0)"/>
      <use xlink:href="#DejaVuSans-b" transform="translate(741.5 0)"/>
      <use xlink:href="#DejaVuSans-56" transform="translate(780.515625 0)"/>
      <use xlink:href="#DejaVuSans-57" transform="translate(832.609375 0)"/>
      <use xlink:href="#DejaVuSans-48" transform="translate(871.8125 0)"/>
      <use xlink:href="#DejaVuSans-53" transform="translate(933.34375 0)"/>
      <use xlink:href="#DejaVuSans-56" transform="translate(996.828125 0)"/>
      <use xlink:href="#DejaVuSans-f" transform="translate(1048.921875 0)"/>
      <use xlink:href="#DejaVuSans-3" transform="translate(1080.703125 0)"/>
      <use xlink:href="#DejaVuSans-53" transform="translate(1112.484375 0)"/>
      <use xlink:href="#DejaVuSans-44" transform="translate(1175.96875 0)"/>
      <use xlink:href="#DejaVuSans-4c" transform="translate(1237.25 0)"/>
      <use xlink:href="#DejaVuSans-55" transform="translate(1265.03125 0)"/>
      <use xlink:href="#DejaVuSans-48" transform="translate(1303.9375 0)"/>
      <use xlink:href="#DejaVuSans-47" transform="translate(1365.46875 0)"/>
      <use xlink:href="#DejaVuSans-3" transform="translate(1428.953125 0)"/>
      <use xlink:href="#DejaVuSans-50" transform="translate(1460.734375 0)"/>
      <use xlink:href="#DejaVuSans-48" transform="translate(1558.140625 0)"/>
      <use xlink:href="#DejaVuSans-44" transform="translate(1619.671875 0)"/>
      <use xlink:href="#DejaVuSans-51" transform="translate(1680.953125 0)"/>
      <use xlink:href="#DejaVuSans-3" transform="translate(1744.328125 0)"/>
      <use xlink:href="#DejaVuSans-73" transform="translate(1776.109375 0)"/>
      <use xlink:href="#DejaVuSans-3" transform="translate(1859.90625 0)"/>
      <use xlink:href="#DejaVuSans-1c" transform="translate(1891.6875 0)"/>
      <use xlink:href="#DejaVuSans-18" transform="translate(1955.3125 0)"/>
      <use xlink:href="#DejaVuSans-8" transform="translate(2018.9375 0)"/>
      <use xlink:href="#DejaVuSans-3" transform="translate(2113.953125 0)"/>
      <use xlink:href="#DejaVuSans-26" transform="translate(2145.734375 0)"/>
      <use xlink:href="#DejaVuSans-2c" transform="translate(2215.5625 0)"/>
      <use xlink:href="#DejaVuSans-c" transform="translate(2245.0625 0)"/>
     </g>
    </g>
   </g>
   <g id="matplotlib.axis_2">
    <g id="ytick_1">
     <g id="line2d_9">
      <defs>
       <path id="m16b468caf0" d="M 0 0 
L -3.5 0 
" style="stroke: #000000; stroke-width: 0.8"/>
      </defs>
      <g>
       <use xlink:href="#m16b468caf0" x="135.693125" y="84.140408" style="stroke: #000000; stroke-width: 0.8"/>
      </g>
     </g>
     <g id="text_10">
      <!-- Tactical search (N=80×4) -->
      <g transform="translate(7.2 87.749665) scale(0.095 -0.095)">
       <defs>
        <path id="DejaVuSans-37" d="M -19 4666 
L 3928 4666 
L 3928 4134 
L 2272 4134 
L 2272 0 
L 1638 0 
L 1638 4134 
L -19 4134 
L -19 4666 
z
" transform="scale(0.015625)"/>
        <path id="DejaVuSans-4b" d="M 3513 2113 
L 3513 0 
L 2938 0 
L 2938 2094 
Q 2938 2591 2744 2837 
Q 2550 3084 2163 3084 
Q 1697 3084 1428 2787 
Q 1159 2491 1159 1978 
L 1159 0 
L 581 0 
L 581 4863 
L 1159 4863 
L 1159 2956 
Q 1366 3272 1645 3428 
Q 1925 3584 2291 3584 
Q 2894 3584 3203 3211 
Q 3513 2838 3513 2113 
z
" transform="scale(0.015625)"/>
        <path id="DejaVuSans-31" d="M 628 4666 
L 1478 4666 
L 3547 763 
L 3547 4666 
L 4159 4666 
L 4159 0 
L 3309 0 
L 1241 3903 
L 1241 0 
L 628 0 
L 628 4666 
z
" transform="scale(0.015625)"/>
        <path id="DejaVuSans-20" d="M 678 2906 
L 4684 2906 
L 4684 2381 
L 678 2381 
L 678 2906 
z
M 678 1631 
L 4684 1631 
L 4684 1100 
L 678 1100 
L 678 1631 
z
" transform="scale(0.015625)"/>
        <path id="DejaVuSans-1b" d="M 2034 2216 
Q 1584 2216 1326 1975 
Q 1069 1734 1069 1313 
Q 1069 891 1326 650 
Q 1584 409 2034 409 
Q 2484 409 2743 651 
Q 3003 894 3003 1313 
Q 3003 1734 2745 1975 
Q 2488 2216 2034 2216 
z
M 1403 2484 
Q 997 2584 770 2862 
Q 544 3141 544 3541 
Q 544 4100 942 4425 
Q 1341 4750 2034 4750 
Q 2731 4750 3128 4425 
Q 3525 4100 3525 3541 
Q 3525 3141 3298 2862 
Q 3072 2584 2669 2484 
Q 3125 2378 3379 2068 
Q 3634 1759 3634 1313 
Q 3634 634 3220 271 
Q 2806 -91 2034 -91 
Q 1263 -91 848 271 
Q 434 634 434 1313 
Q 434 1759 690 2068 
Q 947 2378 1403 2484 
z
M 1172 3481 
Q 1172 3119 1398 2916 
Q 1625 2713 2034 2713 
Q 2441 2713 2670 2916 
Q 2900 3119 2900 3481 
Q 2900 3844 2670 4047 
Q 2441 4250 2034 4250 
Q 1625 4250 1398 4047 
Q 1172 3844 1172 3481 
z
" transform="scale(0.015625)"/>
        <path id="DejaVuSans-99" d="M 4488 3438 
L 3059 2003 
L 4488 575 
L 4116 197 
L 2681 1631 
L 1247 197 
L 878 575 
L 2303 2003 
L 878 3438 
L 1247 3816 
L 2681 2381 
L 4116 3816 
L 4488 3438 
z
" transform="scale(0.015625)"/>
        <path id="DejaVuSans-17" d="M 2419 4116 
L 825 1625 
L 2419 1625 
L 2419 4116 
z
M 2253 4666 
L 3047 4666 
L 3047 1625 
L 3713 1625 
L 3713 1100 
L 3047 1100 
L 3047 0 
L 2419 0 
L 2419 1100 
L 313 1100 
L 313 1709 
L 2253 4666 
z
" transform="scale(0.015625)"/>
       </defs>
       <use xlink:href="#DejaVuSans-37"/>
       <use xlink:href="#DejaVuSans-44" transform="translate(44.53125 0)"/>
       <use xlink:href="#DejaVuSans-46" transform="translate(105.8125 0)"/>
       <use xlink:href="#DejaVuSans-57" transform="translate(160.796875 0)"/>
       <use xlink:href="#DejaVuSans-4c" transform="translate(200 0)"/>
       <use xlink:href="#DejaVuSans-46" transform="translate(227.78125 0)"/>
       <use xlink:href="#DejaVuSans-44" transform="translate(282.765625 0)"/>
       <use xlink:href="#DejaVuSans-4f" transform="translate(344.046875 0)"/>
       <use xlink:href="#DejaVuSans-3" transform="translate(371.828125 0)"/>
       <use xlink:href="#DejaVuSans-56" transform="translate(403.609375 0)"/>
       <use xlink:href="#DejaVuSans-48" transform="translate(455.703125 0)"/>
       <use xlink:href="#DejaVuSans-44" transform="translate(517.234375 0)"/>
       <use xlink:href="#DejaVuSans-55" transform="translate(578.515625 0)"/>
       <use xlink:href="#DejaVuSans-46" transform="translate(617.421875 0)"/>
       <use xlink:href="#DejaVuSans-4b" transform="translate(672.40625 0)"/>
       <use xlink:href="#DejaVuSans-3" transform="translate(735.78125 0)"/>
       <use xlink:href="#DejaVuSans-b" transform="translate(767.5625 0)"/>
       <use xlink:href="#DejaVuSans-31" transform="translate(806.578125 0)"/>
       <use xlink:href="#DejaVuSans-20" transform="translate(881.390625 0)"/>
       <use xlink:href="#DejaVuSans-1b" transform="translate(965.1875 0)"/>
       <use xlink:href="#DejaVuSans-13" transform="translate(1028.8125 0)"/>
       <use xlink:href="#DejaVuSans-99" transform="translate(1092.4375 0)"/>
       <use xlink:href="#DejaVuSans-17" transform="translate(1176.234375 0)"/>
       <use xlink:href="#DejaVuSans-c" transform="translate(1239.859375 0)"/>
      </g>
     </g>
    </g>
    <g id="ytick_2">
     <g id="line2d_10">
      <g>
       <use xlink:href="#m16b468caf0" x="135.693125" y="110.643692" style="stroke: #000000; stroke-width: 0.8"/>
      </g>
     </g>
     <g id="text_11">
      <!-- Night burrow (N=80×4) -->
      <g transform="translate(15.48875 114.25295) scale(0.095 -0.095)">
       <defs>
        <path id="DejaVuSans-4a" d="M 2906 1791 
Q 2906 2416 2648 2759 
Q 2391 3103 1925 3103 
Q 1463 3103 1205 2759 
Q 947 2416 947 1791 
Q 947 1169 1205 825 
Q 1463 481 1925 481 
Q 2391 481 2648 825 
Q 2906 1169 2906 1791 
z
M 3481 434 
Q 3481 -459 3084 -895 
Q 2688 -1331 1869 -1331 
Q 1566 -1331 1297 -1286 
Q 1028 -1241 775 -1147 
L 775 -588 
Q 1028 -725 1275 -790 
Q 1522 -856 1778 -856 
Q 2344 -856 2625 -561 
Q 2906 -266 2906 331 
L 2906 616 
Q 2728 306 2450 153 
Q 2172 0 1784 0 
Q 1141 0 747 490 
Q 353 981 353 1791 
Q 353 2603 747 3093 
Q 1141 3584 1784 3584 
Q 2172 3584 2450 3431 
Q 2728 3278 2906 2969 
L 2906 3500 
L 3481 3500 
L 3481 434 
z
" transform="scale(0.015625)"/>
        <path id="DejaVuSans-45" d="M 3116 1747 
Q 3116 2381 2855 2742 
Q 2594 3103 2138 3103 
Q 1681 3103 1420 2742 
Q 1159 2381 1159 1747 
Q 1159 1113 1420 752 
Q 1681 391 2138 391 
Q 2594 391 2855 752 
Q 3116 1113 3116 1747 
z
M 1159 2969 
Q 1341 3281 1617 3432 
Q 1894 3584 2278 3584 
Q 2916 3584 3314 3078 
Q 3713 2572 3713 1747 
Q 3713 922 3314 415 
Q 2916 -91 2278 -91 
Q 1894 -91 1617 61 
Q 1341 213 1159 525 
L 1159 0 
L 581 0 
L 581 4863 
L 1159 4863 
L 1159 2969 
z
" transform="scale(0.015625)"/>
        <path id="DejaVuSans-52" d="M 1959 3097 
Q 1497 3097 1228 2736 
Q 959 2375 959 1747 
Q 959 1119 1226 758 
Q 1494 397 1959 397 
Q 2419 397 2687 759 
Q 2956 1122 2956 1747 
Q 2956 2369 2687 2733 
Q 2419 3097 1959 3097 
z
M 1959 3584 
Q 2709 3584 3137 3096 
Q 3566 2609 3566 1747 
Q 3566 888 3137 398 
Q 2709 -91 1959 -91 
Q 1206 -91 779 398 
Q 353 888 353 1747 
Q 353 2609 779 3096 
Q 1206 3584 1959 3584 
z
" transform="scale(0.015625)"/>
        <path id="DejaVuSans-5a" d="M 269 3500 
L 844 3500 
L 1563 769 
L 2278 3500 
L 2956 3500 
L 3675 769 
L 4391 3500 
L 4966 3500 
L 4050 0 
L 3372 0 
L 2619 2869 
L 1863 0 
L 1184 0 
L 269 3500 
z
" transform="scale(0.015625)"/>
       </defs>
       <use xlink:href="#DejaVuSans-31"/>
       <use xlink:href="#DejaVuSans-4c" transform="translate(74.8125 0)"/>
       <use xlink:href="#DejaVuSans-4a" transform="translate(102.59375 0)"/>
       <use xlink:href="#DejaVuSans-4b" transform="translate(166.078125 0)"/>
       <use xlink:href="#DejaVuSans-57" transform="translate(229.453125 0)"/>
       <use xlink:href="#DejaVuSans-3" transform="translate(268.65625 0)"/>
       <use xlink:href="#DejaVuSans-45" transform="translate(300.4375 0)"/>
       <use xlink:href="#DejaVuSans-58" transform="translate(363.921875 0)"/>
       <use xlink:href="#DejaVuSans-55" transform="translate(427.296875 0)"/>
       <use xlink:href="#DejaVuSans-55" transform="translate(466.65625 0)"/>
       <use xlink:href="#DejaVuSans-52" transform="translate(505.5625 0)"/>
       <use xlink:href="#DejaVuSans-5a" transform="translate(566.75 0)"/>
       <use xlink:href="#DejaVuSans-3" transform="translate(648.53125 0)"/>
       <use xlink:href="#DejaVuSans-b" transform="translate(680.3125 0)"/>
       <use xlink:href="#DejaVuSans-31" transform="translate(719.328125 0)"/>
       <use xlink:href="#DejaVuSans-20" transform="translate(794.140625 0)"/>
       <use xlink:href="#DejaVuSans-1b" transform="translate(877.9375 0)"/>
       <use xlink:href="#DejaVuSans-13" transform="translate(941.5625 0)"/>
       <use xlink:href="#DejaVuSans-99" transform="translate(1005.1875 0)"/>
       <use xlink:href="#DejaVuSans-17" transform="translate(1088.984375 0)"/>
       <use xlink:href="#DejaVuSans-c" transform="translate(1152.609375 0)"/>
      </g>
     </g>
    </g>
    <g id="ytick_3">
     <g id="line2d_11">
      <g>
       <use xlink:href="#m16b468caf0" x="135.693125" y="137.146977" style="stroke: #000000; stroke-width: 0.8"/>
      </g>
     </g>
     <g id="text_12">
      <!-- Orchard v2 (guardrail) -->
      <g transform="translate(22.915078 140.756235) scale(0.095 -0.095)">
       <defs>
        <path id="DejaVuSans-32" d="M 2522 4238 
Q 1834 4238 1429 3725 
Q 1025 3213 1025 2328 
Q 1025 1447 1429 934 
Q 1834 422 2522 422 
Q 3209 422 3611 934 
Q 4013 1447 4013 2328 
Q 4013 3213 3611 3725 
Q 3209 4238 2522 4238 
z
M 2522 4750 
Q 3503 4750 4090 4092 
Q 4678 3434 4678 2328 
Q 4678 1225 4090 567 
Q 3503 -91 2522 -91 
Q 1538 -91 948 565 
Q 359 1222 359 2328 
Q 359 3434 948 4092 
Q 1538 4750 2522 4750 
z
" transform="scale(0.015625)"/>
       </defs>
       <use xlink:href="#DejaVuSans-32"/>
       <use xlink:href="#DejaVuSans-55" transform="translate(78.71875 0)"/>
       <use xlink:href="#DejaVuSans-46" transform="translate(117.625 0)"/>
       <use xlink:href="#DejaVuSans-4b" transform="translate(172.609375 0)"/>
       <use xlink:href="#DejaVuSans-44" transform="translate(235.984375 0)"/>
       <use xlink:href="#DejaVuSans-55" transform="translate(297.265625 0)"/>
       <use xlink:href="#DejaVuSans-47" transform="translate(336.625 0)"/>
       <use xlink:href="#DejaVuSans-3" transform="translate(400.109375 0)"/>
       <use xlink:href="#DejaVuSans-59" transform="translate(431.890625 0)"/>
       <use xlink:href="#DejaVuSans-15" transform="translate(491.078125 0)"/>
       <use xlink:href="#DejaVuSans-3" transform="translate(554.703125 0)"/>
       <use xlink:href="#DejaVuSans-b" transform="translate(586.484375 0)"/>
       <use xlink:href="#DejaVuSans-4a" transform="translate(625.5 0)"/>
       <use xlink:href="#DejaVuSans-58" transform="translate(688.984375 0)"/>
       <use xlink:href="#DejaVuSans-44" transform="translate(752.359375 0)"/>
       <use xlink:href="#DejaVuSans-55" transform="translate(813.640625 0)"/>
       <use xlink:href="#DejaVuSans-47" transform="translate(853 0)"/>
       <use xlink:href="#DejaVuSans-55" transform="translate(916.484375 0)"/>
       <use xlink:href="#DejaVuSans-44" transform="translate(957.59375 0)"/>
       <use xlink:href="#DejaVuSans-4c" transform="translate(1018.875 0)"/>
       <use xlink:href="#DejaVuSans-4f" transform="translate(1046.65625 0)"/>
       <use xlink:href="#DejaVuSans-c" transform="translate(1074.4375 0)"/>
      </g>
     </g>
    </g>
    <g id="ytick_4">
     <g id="line2d_12">
      <g>
       <use xlink:href="#m16b468caf0" x="135.693125" y="163.650262" style="stroke: #000000; stroke-width: 0.8"/>
      </g>
     </g>
     <g id="text_13">
      <!-- Dusk-trek fix -->
      <g transform="translate(68.087578 167.25952) scale(0.095 -0.095)">
       <defs>
        <path id="DejaVuSans-27" d="M 1259 4147 
L 1259 519 
L 2022 519 
Q 2988 519 3436 956 
Q 3884 1394 3884 2338 
Q 3884 3275 3436 3711 
Q 2988 4147 2022 4147 
L 1259 4147 
z
M 628 4666 
L 1925 4666 
Q 3281 4666 3915 4102 
Q 4550 3538 4550 2338 
Q 4550 1131 3912 565 
Q 3275 0 1925 0 
L 628 0 
L 628 4666 
z
" transform="scale(0.015625)"/>
        <path id="DejaVuSans-4e" d="M 581 4863 
L 1159 4863 
L 1159 1991 
L 2875 3500 
L 3609 3500 
L 1753 1863 
L 3688 0 
L 2938 0 
L 1159 1709 
L 1159 0 
L 581 0 
L 581 4863 
z
" transform="scale(0.015625)"/>
        <path id="DejaVuSans-10" d="M 313 2009 
L 1997 2009 
L 1997 1497 
L 313 1497 
L 313 2009 
z
" transform="scale(0.015625)"/>
        <path id="DejaVuSans-13af" d="M 3431 3500 
L 3431 0 
L 2853 0 
L 2853 3053 
L 1275 3053 
L 1275 0 
L 697 0 
L 697 3053 
L 147 3053 
L 147 3500 
L 697 3500 
L 697 3744 
Q 697 4316 967 4589 
Q 1238 4863 1797 4863 
L 2375 4863 
L 2375 4384 
L 1825 4384 
Q 1516 4384 1395 4259 
Q 1275 4134 1275 3809 
L 1275 3500 
L 3431 3500 
z
M 2853 4856 
L 3431 4856 
L 3431 4128 
L 2853 4128 
L 2853 4856 
z
" transform="scale(0.015625)"/>
        <path id="DejaVuSans-5b" d="M 3513 3500 
L 2247 1797 
L 3578 0 
L 2900 0 
L 1881 1375 
L 863 0 
L 184 0 
L 1544 1831 
L 300 3500 
L 978 3500 
L 1906 2253 
L 2834 3500 
L 3513 3500 
z
" transform="scale(0.015625)"/>
       </defs>
       <use xlink:href="#DejaVuSans-27"/>
       <use xlink:href="#DejaVuSans-58" transform="translate(77 0)"/>
       <use xlink:href="#DejaVuSans-56" transform="translate(140.375 0)"/>
       <use xlink:href="#DejaVuSans-4e" transform="translate(192.46875 0)"/>
       <use xlink:href="#DejaVuSans-10" transform="translate(250.375 0)"/>
       <use xlink:href="#DejaVuSans-57" transform="translate(286.453125 0)"/>
       <use xlink:href="#DejaVuSans-55" transform="translate(325.65625 0)"/>
       <use xlink:href="#DejaVuSans-48" transform="translate(364.5625 0)"/>
       <use xlink:href="#DejaVuSans-4e" transform="translate(426.09375 0)"/>
       <use xlink:href="#DejaVuSans-3" transform="translate(484 0)"/>
       <use xlink:href="#DejaVuSans-13af" transform="translate(515.78125 0)"/>
       <use xlink:href="#DejaVuSans-5b" transform="translate(578.765625 0)"/>
      </g>
     </g>
    </g>
    <g id="ytick_5">
     <g id="line2d_13">
      <g>
       <use xlink:href="#m16b468caf0" x="135.693125" y="190.153547" style="stroke: #000000; stroke-width: 0.8"/>
      </g>
     </g>
     <g id="text_14">
      <!-- Food economy -->
      <g transform="translate(59.300078 193.762805) scale(0.095 -0.095)">
       <defs>
        <path id="DejaVuSans-29" d="M 628 4666 
L 3309 4666 
L 3309 4134 
L 1259 4134 
L 1259 2759 
L 3109 2759 
L 3109 2228 
L 1259 2228 
L 1259 0 
L 628 0 
L 628 4666 
z
" transform="scale(0.015625)"/>
        <path id="DejaVuSans-5c" d="M 2059 -325 
Q 1816 -950 1584 -1140 
Q 1353 -1331 966 -1331 
L 506 -1331 
L 506 -850 
L 844 -850 
Q 1081 -850 1212 -737 
Q 1344 -625 1503 -206 
L 1606 56 
L 191 3500 
L 800 3500 
L 1894 763 
L 2988 3500 
L 3597 3500 
L 2059 -325 
z
" transform="scale(0.015625)"/>
       </defs>
       <use xlink:href="#DejaVuSans-29"/>
       <use xlink:href="#DejaVuSans-52" transform="translate(53.953125 0)"/>
       <use xlink:href="#DejaVuSans-52" transform="translate(115.140625 0)"/>
       <use xlink:href="#DejaVuSans-47" transform="translate(176.328125 0)"/>
       <use xlink:href="#DejaVuSans-3" transform="translate(239.8125 0)"/>
       <use xlink:href="#DejaVuSans-48" transform="translate(271.59375 0)"/>
       <use xlink:href="#DejaVuSans-46" transform="translate(333.125 0)"/>
       <use xlink:href="#DejaVuSans-52" transform="translate(388.109375 0)"/>
       <use xlink:href="#DejaVuSans-51" transform="translate(449.296875 0)"/>
       <use xlink:href="#DejaVuSans-52" transform="translate(512.671875 0)"/>
       <use xlink:href="#DejaVuSans-50" transform="translate(573.859375 0)"/>
       <use xlink:href="#DejaVuSans-5c" transform="translate(671.265625 0)"/>
      </g>
     </g>
    </g>
    <g id="ytick_6">
     <g id="line2d_14">
      <g>
       <use xlink:href="#m16b468caf0" x="135.693125" y="216.656832" style="stroke: #000000; stroke-width: 0.8"/>
      </g>
     </g>
     <g id="text_15">
      <!-- Homesteader (stay-local) -->
      <g transform="translate(8.567109 220.266089) scale(0.095 -0.095)">
       <defs>
        <path id="DejaVuSans-2b" d="M 628 4666 
L 1259 4666 
L 1259 2753 
L 3553 2753 
L 3553 4666 
L 4184 4666 
L 4184 0 
L 3553 0 
L 3553 2222 
L 1259 2222 
L 1259 0 
L 628 0 
L 628 4666 
z
" transform="scale(0.015625)"/>
       </defs>
       <use xlink:href="#DejaVuSans-2b"/>
       <use xlink:href="#DejaVuSans-52" transform="translate(75.203125 0)"/>
       <use xlink:href="#DejaVuSans-50" transform="translate(136.390625 0)"/>
       <use xlink:href="#DejaVuSans-48" transform="translate(233.796875 0)"/>
       <use xlink:href="#DejaVuSans-56" transform="translate(295.328125 0)"/>
       <use xlink:href="#DejaVuSans-57" transform="translate(347.421875 0)"/>
       <use xlink:href="#DejaVuSans-48" transform="translate(386.625 0)"/>
       <use xlink:href="#DejaVuSans-44" transform="translate(448.15625 0)"/>
       <use xlink:href="#DejaVuSans-47" transform="translate(509.4375 0)"/>
       <use xlink:href="#DejaVuSans-48" transform="translate(572.921875 0)"/>
       <use xlink:href="#DejaVuSans-55" transform="translate(634.453125 0)"/>
       <use xlink:href="#DejaVuSans-3" transform="translate(675.5625 0)"/>
       <use xlink:href="#DejaVuSans-b" transform="translate(707.34375 0)"/>
       <use xlink:href="#DejaVuSans-56" transform="translate(746.359375 0)"/>
       <use xlink:href="#DejaVuSans-57" transform="translate(798.453125 0)"/>
       <use xlink:href="#DejaVuSans-44" transform="translate(837.65625 0)"/>
       <use xlink:href="#DejaVuSans-5c" transform="translate(898.9375 0)"/>
       <use xlink:href="#DejaVuSans-10" transform="translate(956.375 0)"/>
       <use xlink:href="#DejaVuSans-4f" transform="translate(992.453125 0)"/>
       <use xlink:href="#DejaVuSans-52" transform="translate(1020.234375 0)"/>
       <use xlink:href="#DejaVuSans-46" transform="translate(1081.421875 0)"/>
       <use xlink:href="#DejaVuSans-44" transform="translate(1136.40625 0)"/>
       <use xlink:href="#DejaVuSans-4f" transform="translate(1197.6875 0)"/>
       <use xlink:href="#DejaVuSans-c" transform="translate(1225.46875 0)"/>
      </g>
     </g>
    </g>
    <g id="ytick_7">
     <g id="line2d_15">
      <g>
       <use xlink:href="#m16b468caf0" x="135.693125" y="243.160116" style="stroke: #000000; stroke-width: 0.8"/>
      </g>
     </g>
     <g id="text_16">
      <!-- Proactive pocket (seam) -->
      <g transform="translate(13.624375 246.769374) scale(0.095 -0.095)">
       <defs>
        <path id="DejaVuSans-33" d="M 1259 4147 
L 1259 2394 
L 2053 2394 
Q 2494 2394 2734 2622 
Q 2975 2850 2975 3272 
Q 2975 3691 2734 3919 
Q 2494 4147 2053 4147 
L 1259 4147 
z
M 628 4666 
L 2053 4666 
Q 2838 4666 3239 4311 
Q 3641 3956 3641 3272 
Q 3641 2581 3239 2228 
Q 2838 1875 2053 1875 
L 1259 1875 
L 1259 0 
L 628 0 
L 628 4666 
z
" transform="scale(0.015625)"/>
       </defs>
       <use xlink:href="#DejaVuSans-33"/>
       <use xlink:href="#DejaVuSans-55" transform="translate(58.546875 0)"/>
       <use xlink:href="#DejaVuSans-52" transform="translate(97.453125 0)"/>
       <use xlink:href="#DejaVuSans-44" transform="translate(158.640625 0)"/>
       <use xlink:href="#DejaVuSans-46" transform="translate(219.921875 0)"/>
       <use xlink:href="#DejaVuSans-57" transform="translate(274.90625 0)"/>
       <use xlink:href="#DejaVuSans-4c" transform="translate(314.109375 0)"/>
       <use xlink:href="#DejaVuSans-59" transform="translate(341.890625 0)"/>
       <use xlink:href="#DejaVuSans-48" transform="translate(401.078125 0)"/>
       <use xlink:href="#DejaVuSans-3" transform="translate(462.609375 0)"/>
       <use xlink:href="#DejaVuSans-53" transform="translate(494.390625 0)"/>
       <use xlink:href="#DejaVuSans-52" transform="translate(557.875 0)"/>
       <use xlink:href="#DejaVuSans-46" transform="translate(619.0625 0)"/>
       <use xlink:href="#DejaVuSans-4e" transform="translate(674.046875 0)"/>
       <use xlink:href="#DejaVuSans-48" transform="translate(728.390625 0)"/>
       <use xlink:href="#DejaVuSans-57" transform="translate(789.921875 0)"/>
       <use xlink:href="#DejaVuSans-3" transform="translate(829.125 0)"/>
       <use xlink:href="#DejaVuSans-b" transform="translate(860.90625 0)"/>
       <use xlink:href="#DejaVuSans-56" transform="translate(899.921875 0)"/>
       <use xlink:href="#DejaVuSans-48" transform="translate(952.015625 0)"/>
       <use xlink:href="#DejaVuSans-44" transform="translate(1013.546875 0)"/>
       <use xlink:href="#DejaVuSans-50" transform="translate(1074.828125 0)"/>
       <use xlink:href="#DejaVuSans-c" transform="translate(1172.234375 0)"/>
      </g>
     </g>
    </g>
    <g id="ytick_8">
     <g id="line2d_16">
      <g>
       <use xlink:href="#m16b468caf0" x="135.693125" y="269.663401" style="stroke: #000000; stroke-width: 0.8"/>
      </g>
     </g>
     <g id="text_17">
      <!-- Combat dial -->
      <g transform="translate(71.265625 273.272659) scale(0.095 -0.095)">
       <use xlink:href="#DejaVuSans-26"/>
       <use xlink:href="#DejaVuSans-52" transform="translate(69.828125 0)"/>
       <use xlink:href="#DejaVuSans-50" transform="translate(131.015625 0)"/>
       <use xlink:href="#DejaVuSans-45" transform="translate(228.421875 0)"/>
       <use xlink:href="#DejaVuSans-44" transform="translate(291.90625 0)"/>
       <use xlink:href="#DejaVuSans-57" transform="translate(353.1875 0)"/>
       <use xlink:href="#DejaVuSans-3" transform="translate(392.390625 0)"/>
       <use xlink:href="#DejaVuSans-47" transform="translate(424.171875 0)"/>
       <use xlink:href="#DejaVuSans-4c" transform="translate(487.65625 0)"/>
       <use xlink:href="#DejaVuSans-44" transform="translate(515.4375 0)"/>
       <use xlink:href="#DejaVuSans-4f" transform="translate(576.71875 0)"/>
      </g>
     </g>
    </g>
    <g id="ytick_9">
     <g id="line2d_17">
      <g>
       <use xlink:href="#m16b468caf0" x="135.693125" y="296.166686" style="stroke: #000000; stroke-width: 0.8"/>
      </g>
     </g>
     <g id="text_18">
      <!-- Seam-base shelter pick -->
      <g transform="translate(17.304141 299.775944) scale(0.095 -0.095)">
       <defs>
        <path id="DejaVuSans-36" d="M 3425 4513 
L 3425 3897 
Q 3066 4069 2747 4153 
Q 2428 4238 2131 4238 
Q 1616 4238 1336 4038 
Q 1056 3838 1056 3469 
Q 1056 3159 1242 3001 
Q 1428 2844 1947 2747 
L 2328 2669 
Q 3034 2534 3370 2195 
Q 3706 1856 3706 1288 
Q 3706 609 3251 259 
Q 2797 -91 1919 -91 
Q 1588 -91 1214 -16 
Q 841 59 441 206 
L 441 856 
Q 825 641 1194 531 
Q 1563 422 1919 422 
Q 2459 422 2753 634 
Q 3047 847 3047 1241 
Q 3047 1584 2836 1778 
Q 2625 1972 2144 2069 
L 1759 2144 
Q 1053 2284 737 2584 
Q 422 2884 422 3419 
Q 422 4038 858 4394 
Q 1294 4750 2059 4750 
Q 2388 4750 2728 4690 
Q 3069 4631 3425 4513 
z
" transform="scale(0.015625)"/>
       </defs>
       <use xlink:href="#DejaVuSans-36"/>
       <use xlink:href="#DejaVuSans-48" transform="translate(63.484375 0)"/>
       <use xlink:href="#DejaVuSans-44" transform="translate(125.015625 0)"/>
       <use xlink:href="#DejaVuSans-50" transform="translate(186.296875 0)"/>
       <use xlink:href="#DejaVuSans-10" transform="translate(283.703125 0)"/>
       <use xlink:href="#DejaVuSans-45" transform="translate(319.78125 0)"/>
       <use xlink:href="#DejaVuSans-44" transform="translate(383.265625 0)"/>
       <use xlink:href="#DejaVuSans-56" transform="translate(444.546875 0)"/>
       <use xlink:href="#DejaVuSans-48" transform="translate(496.640625 0)"/>
       <use xlink:href="#DejaVuSans-3" transform="translate(558.171875 0)"/>
       <use xlink:href="#DejaVuSans-56" transform="translate(589.953125 0)"/>
       <use xlink:href="#DejaVuSans-4b" transform="translate(642.046875 0)"/>
       <use xlink:href="#DejaVuSans-48" transform="translate(705.421875 0)"/>
       <use xlink:href="#DejaVuSans-4f" transform="translate(766.953125 0)"/>
       <use xlink:href="#DejaVuSans-57" transform="translate(794.734375 0)"/>
       <use xlink:href="#DejaVuSans-48" transform="translate(833.9375 0)"/>
       <use xlink:href="#DejaVuSans-55" transform="translate(895.46875 0)"/>
       <use xlink:href="#DejaVuSans-3" transform="translate(936.578125 0)"/>
       <use xlink:href="#DejaVuSans-53" transform="translate(968.359375 0)"/>
       <use xlink:href="#DejaVuSans-4c" transform="translate(1031.84375 0)"/>
       <use xlink:href="#DejaVuSans-46" transform="translate(1059.625 0)"/>
       <use xlink:href="#DejaVuSans-4e" transform="translate(1114.609375 0)"/>
      </g>
     </g>
    </g>
   </g>
   <g id="line2d_18">
    <path d="M 295.172644 84.140408 
L 396.40646 84.140408 
" clip-path="url(#p3b1665e4d9)" style="fill: none; stroke: #0e9594; stroke-width: 2.2; stroke-linecap: square"/>
   </g>
   <g id="line2d_19">
    <path d="M 246.006077 110.643692 
L 332.446413 110.643692 
" clip-path="url(#p3b1665e4d9)" style="fill: none; stroke: #0e9594; stroke-width: 2.2; stroke-linecap: square"/>
   </g>
   <g id="line2d_20">
    <path d="M 188.862634 137.146977 
L 301.989247 137.146977 
" clip-path="url(#p3b1665e4d9)" style="fill: none; stroke: #9aa0a6; stroke-width: 2.2; stroke-linecap: square"/>
   </g>
   <g id="line2d_21">
    <path d="M 204.23625 163.650262 
L 272.692355 163.650262 
" clip-path="url(#p3b1665e4d9)" style="fill: none; stroke: #9aa0a6; stroke-width: 2.2; stroke-linecap: square"/>
   </g>
   <g id="line2d_22">
    <path d="M 176.679767 190.153547 
L 283.714948 190.153547 
" clip-path="url(#p3b1665e4d9)" style="fill: none; stroke: #9aa0a6; stroke-width: 2.2; stroke-linecap: square"/>
   </g>
   <g id="line2d_23">
    <path d="M 180.740723 216.656832 
L 259.059148 216.656832 
" clip-path="url(#p3b1665e4d9)" style="fill: none; stroke: #9aa0a6; stroke-width: 2.2; stroke-linecap: square"/>
   </g>
   <g id="line2d_24">
    <path d="M 148.108046 243.160116 
L 281.539436 243.160116 
" clip-path="url(#p3b1665e4d9)" style="fill: none; stroke: #9aa0a6; stroke-width: 2.2; stroke-linecap: square"/>
   </g>
   <g id="line2d_25">
    <path d="M 173.924119 269.663401 
L 255.143227 269.663401 
" clip-path="url(#p3b1665e4d9)" style="fill: none; stroke: #9aa0a6; stroke-width: 2.2; stroke-linecap: square"/>
   </g>
   <g id="line2d_26">
    <path d="M 173.053914 296.166686 
L 323.019195 296.166686 
" clip-path="url(#p3b1665e4d9)" style="fill: none; stroke: #9aa0a6; stroke-width: 2.2; stroke-linecap: square"/>
   </g>
   <g id="line2d_27">
    <path d="M 224.686061 306.768 
L 224.686061 73.539094 
" clip-path="url(#p3b1665e4d9)" style="fill: none; stroke-dasharray: 3.7,1.6; stroke-dashoffset: 0; stroke: #888888"/>
   </g>
   <g id="patch_3">
    <path d="M 135.693125 306.768 
L 408.82138 306.768 
" style="fill: none; stroke: #cccccc; stroke-width: 0.8; stroke-linejoin: miter; stroke-linecap: square"/>
   </g>
   <g id="PathCollection_1">
    <defs>
     <path id="mb32808b3ea" d="M 0 4 
C 1.060812 4 2.078319 3.578535 2.828427 2.828427 
C 3.578535 2.078319 4 1.060812 4 0 
C 4 -1.060812 3.578535 -2.078319 2.828427 -2.828427 
C 2.078319 -3.578535 1.060812 -4 0 -4 
C -1.060812 -4 -2.078319 -3.578535 -2.828427 -2.828427 
C -3.578535 -2.078319 -4 -1.060812 -4 0 
C -4 1.060812 -3.578535 2.078319 -2.828427 2.828427 
C -2.078319 3.578535 -1.060812 4 0 4 
z
" style="stroke: #0e9594"/>
    </defs>
    <g clip-path="url(#p3b1665e4d9)">
     <use xlink:href="#mb32808b3ea" x="345.789552" y="84.140408" style="fill: #0e9594; stroke: #0e9594"/>
    </g>
   </g>
   <g id="PathCollection_2">
    <g clip-path="url(#p3b1665e4d9)">
     <use xlink:href="#mb32808b3ea" x="289.226245" y="110.643692" style="fill: #0e9594; stroke: #0e9594"/>
    </g>
   </g>
   <g id="PathCollection_3">
    <defs>
     <path id="me9a8b08bc4" d="M 0 4 
C 1.060812 4 2.078319 3.578535 2.828427 2.828427 
C 3.578535 2.078319 4 1.060812 4 0 
C 4 -1.060812 3.578535 -2.078319 2.828427 -2.828427 
C 2.078319 -3.578535 1.060812 -4 0 -4 
C -1.060812 -4 -2.078319 -3.578535 -2.828427 -2.828427 
C -3.578535 -2.078319 -4 -1.060812 -4 0 
C -4 1.060812 -3.578535 2.078319 -2.828427 2.828427 
C -2.078319 3.578535 -1.060812 4 0 4 
z
" style="stroke: #9aa0a6"/>
    </defs>
    <g clip-path="url(#p3b1665e4d9)">
     <use xlink:href="#me9a8b08bc4" x="245.42594" y="137.146977" style="fill: #9aa0a6; stroke: #9aa0a6"/>
    </g>
   </g>
   <g id="PathCollection_4">
    <g clip-path="url(#p3b1665e4d9)">
     <use xlink:href="#me9a8b08bc4" x="238.464303" y="163.650262" style="fill: #9aa0a6; stroke: #9aa0a6"/>
    </g>
   </g>
   <g id="PathCollection_5">
    <g clip-path="url(#p3b1665e4d9)">
     <use xlink:href="#me9a8b08bc4" x="230.197358" y="190.153547" style="fill: #9aa0a6; stroke: #9aa0a6"/>
    </g>
   </g>
   <g id="PathCollection_6">
    <g clip-path="url(#p3b1665e4d9)">
     <use xlink:href="#me9a8b08bc4" x="219.899935" y="216.656832" style="fill: #9aa0a6; stroke: #9aa0a6"/>
    </g>
   </g>
   <g id="PathCollection_7">
    <g clip-path="url(#p3b1665e4d9)">
     <use xlink:href="#me9a8b08bc4" x="214.823741" y="243.160116" style="fill: #9aa0a6; stroke: #9aa0a6"/>
    </g>
   </g>
   <g id="PathCollection_8">
    <g clip-path="url(#p3b1665e4d9)">
     <use xlink:href="#me9a8b08bc4" x="214.533673" y="269.663401" style="fill: #9aa0a6; stroke: #9aa0a6"/>
    </g>
   </g>
   <g id="PathCollection_9">
    <g clip-path="url(#p3b1665e4d9)">
     <use xlink:href="#me9a8b08bc4" x="248.036555" y="296.166686" style="fill: #9aa0a6; stroke: #9aa0a6"/>
    </g>
   </g>
   <g id="text_19">
    <!-- Survival levers -->
    <g transform="translate(216.968846 67.539094) scale(0.132 -0.132)">
     <defs>
      <path id="DejaVuSans-Bold-36" d="M 3834 4519 
L 3834 3531 
Q 3450 3703 3084 3790 
Q 2719 3878 2394 3878 
Q 1963 3878 1756 3759 
Q 1550 3641 1550 3391 
Q 1550 3203 1689 3098 
Q 1828 2994 2194 2919 
L 2706 2816 
Q 3484 2659 3812 2340 
Q 4141 2022 4141 1434 
Q 4141 663 3683 286 
Q 3225 -91 2284 -91 
Q 1841 -91 1394 -6 
Q 947 78 500 244 
L 500 1259 
Q 947 1022 1364 901 
Q 1781 781 2169 781 
Q 2563 781 2772 912 
Q 2981 1044 2981 1288 
Q 2981 1506 2839 1625 
Q 2697 1744 2272 1838 
L 1806 1941 
Q 1106 2091 782 2419 
Q 459 2747 459 3303 
Q 459 4000 909 4375 
Q 1359 4750 2203 4750 
Q 2588 4750 2994 4692 
Q 3400 4634 3834 4519 
z
" transform="scale(0.015625)"/>
      <path id="DejaVuSans-Bold-58" d="M 500 1363 
L 500 3500 
L 1625 3500 
L 1625 3150 
Q 1625 2866 1622 2436 
Q 1619 2006 1619 1863 
Q 1619 1441 1641 1255 
Q 1663 1069 1716 984 
Q 1784 875 1895 815 
Q 2006 756 2150 756 
Q 2500 756 2700 1025 
Q 2900 1294 2900 1772 
L 2900 3500 
L 4019 3500 
L 4019 0 
L 2900 0 
L 2900 506 
Q 2647 200 2364 54 
Q 2081 -91 1741 -91 
Q 1134 -91 817 281 
Q 500 653 500 1363 
z
" transform="scale(0.015625)"/>
      <path id="DejaVuSans-Bold-55" d="M 3138 2547 
Q 2991 2616 2845 2648 
Q 2700 2681 2553 2681 
Q 2122 2681 1889 2404 
Q 1656 2128 1656 1613 
L 1656 0 
L 538 0 
L 538 3500 
L 1656 3500 
L 1656 2925 
Q 1872 3269 2151 3426 
Q 2431 3584 2822 3584 
Q 2878 3584 2943 3579 
Q 3009 3575 3134 3559 
L 3138 2547 
z
" transform="scale(0.015625)"/>
      <path id="DejaVuSans-Bold-59" d="M 97 3500 
L 1216 3500 
L 2088 1081 
L 2956 3500 
L 4078 3500 
L 2700 0 
L 1472 0 
L 97 3500 
z
" transform="scale(0.015625)"/>
      <path id="DejaVuSans-Bold-4c" d="M 538 3500 
L 1656 3500 
L 1656 0 
L 538 0 
L 538 3500 
z
M 538 4863 
L 1656 4863 
L 1656 3950 
L 538 3950 
L 538 4863 
z
" transform="scale(0.015625)"/>
      <path id="DejaVuSans-Bold-44" d="M 2106 1575 
Q 1756 1575 1579 1456 
Q 1403 1338 1403 1106 
Q 1403 894 1545 773 
Q 1688 653 1941 653 
Q 2256 653 2472 879 
Q 2688 1106 2688 1447 
L 2688 1575 
L 2106 1575 
z
M 3816 1997 
L 3816 0 
L 2688 0 
L 2688 519 
Q 2463 200 2181 54 
Q 1900 -91 1497 -91 
Q 953 -91 614 226 
Q 275 544 275 1050 
Q 275 1666 698 1953 
Q 1122 2241 2028 2241 
L 2688 2241 
L 2688 2328 
Q 2688 2594 2478 2717 
Q 2269 2841 1825 2841 
Q 1466 2841 1156 2769 
Q 847 2697 581 2553 
L 581 3406 
Q 941 3494 1303 3539 
Q 1666 3584 2028 3584 
Q 2975 3584 3395 3211 
Q 3816 2838 3816 1997 
z
" transform="scale(0.015625)"/>
      <path id="DejaVuSans-Bold-4f" d="M 538 4863 
L 1656 4863 
L 1656 0 
L 538 0 
L 538 4863 
z
" transform="scale(0.015625)"/>
      <path id="DejaVuSans-Bold-3" transform="scale(0.015625)"/>
      <path id="DejaVuSans-Bold-48" d="M 4031 1759 
L 4031 1441 
L 1416 1441 
Q 1456 1047 1700 850 
Q 1944 653 2381 653 
Q 2734 653 3104 758 
Q 3475 863 3866 1075 
L 3866 213 
Q 3469 63 3072 -14 
Q 2675 -91 2278 -91 
Q 1328 -91 801 392 
Q 275 875 275 1747 
Q 275 2603 792 3093 
Q 1309 3584 2216 3584 
Q 3041 3584 3536 3087 
Q 4031 2591 4031 1759 
z
M 2881 2131 
Q 2881 2450 2695 2645 
Q 2509 2841 2209 2841 
Q 1884 2841 1681 2658 
Q 1478 2475 1428 2131 
L 2881 2131 
z
" transform="scale(0.015625)"/>
      <path id="DejaVuSans-Bold-56" d="M 3272 3391 
L 3272 2541 
Q 2913 2691 2578 2766 
Q 2244 2841 1947 2841 
Q 1628 2841 1473 2761 
Q 1319 2681 1319 2516 
Q 1319 2381 1436 2309 
Q 1553 2238 1856 2203 
L 2053 2175 
Q 2913 2066 3209 1816 
Q 3506 1566 3506 1031 
Q 3506 472 3093 190 
Q 2681 -91 1863 -91 
Q 1516 -91 1145 -36 
Q 775 19 384 128 
L 384 978 
Q 719 816 1070 734 
Q 1422 653 1784 653 
Q 2113 653 2278 743 
Q 2444 834 2444 1013 
Q 2444 1163 2330 1236 
Q 2216 1309 1875 1350 
L 1678 1375 
Q 931 1469 631 1722 
Q 331 1975 331 2491 
Q 331 3047 712 3315 
Q 1094 3584 1881 3584 
Q 2191 3584 2531 3537 
Q 2872 3491 3272 3391 
z
" transform="scale(0.015625)"/>
     </defs>
     <use xlink:href="#DejaVuSans-Bold-36"/>
     <use xlink:href="#DejaVuSans-Bold-58" transform="translate(72.015625 0)"/>
     <use xlink:href="#DejaVuSans-Bold-55" transform="translate(143.203125 0)"/>
     <use xlink:href="#DejaVuSans-Bold-59" transform="translate(192.515625 0)"/>
     <use xlink:href="#DejaVuSans-Bold-4c" transform="translate(257.703125 0)"/>
     <use xlink:href="#DejaVuSans-Bold-59" transform="translate(291.984375 0)"/>
     <use xlink:href="#DejaVuSans-Bold-44" transform="translate(357.171875 0)"/>
     <use xlink:href="#DejaVuSans-Bold-4f" transform="translate(424.65625 0)"/>
     <use xlink:href="#DejaVuSans-Bold-3" transform="translate(458.9375 0)"/>
     <use xlink:href="#DejaVuSans-Bold-4f" transform="translate(493.75 0)"/>
     <use xlink:href="#DejaVuSans-Bold-48" transform="translate(528.03125 0)"/>
     <use xlink:href="#DejaVuSans-Bold-59" transform="translate(595.859375 0)"/>
     <use xlink:href="#DejaVuSans-Bold-48" transform="translate(661.046875 0)"/>
     <use xlink:href="#DejaVuSans-Bold-55" transform="translate(728.875 0)"/>
     <use xlink:href="#DejaVuSans-Bold-56" transform="translate(778.1875 0)"/>
    </g>
   </g>
  </g>
  <g id="axes_2">
   <g id="patch_4">
    <path d="M 576.45362 306.768 
L 849.581875 306.768 
L 849.581875 73.539094 
L 576.45362 73.539094 
z
" style="fill: #ffffff"/>
   </g>
   <g id="matplotlib.axis_3">
    <g id="xtick_9">
     <g id="line2d_28">
      <g>
       <use xlink:href="#md26286b010" x="622.975465" y="306.768" style="stroke: #000000; stroke-width: 0.8"/>
      </g>
     </g>
     <g id="text_20">
      <!-- −4 -->
      <g transform="translate(614.867262 322.125422) scale(0.11 -0.11)">
       <use xlink:href="#DejaVuSans-c9c"/>
       <use xlink:href="#DejaVuSans-17" transform="translate(83.796875 0)"/>
      </g>
     </g>
    </g>
    <g id="xtick_10">
     <g id="line2d_29">
      <g>
       <use xlink:href="#md26286b010" x="677.546545" y="306.768" style="stroke: #000000; stroke-width: 0.8"/>
      </g>
     </g>
     <g id="text_21">
      <!-- −2 -->
      <g transform="translate(669.438342 322.125422) scale(0.11 -0.11)">
       <use xlink:href="#DejaVuSans-c9c"/>
       <use xlink:href="#DejaVuSans-15" transform="translate(83.796875 0)"/>
      </g>
     </g>
    </g>
    <g id="xtick_11">
     <g id="line2d_30">
      <g>
       <use xlink:href="#md26286b010" x="732.117625" y="306.768" style="stroke: #000000; stroke-width: 0.8"/>
      </g>
     </g>
     <g id="text_22">
      <!-- 0 -->
      <g transform="translate(728.61825 322.125422) scale(0.11 -0.11)">
       <use xlink:href="#DejaVuSans-13"/>
      </g>
     </g>
    </g>
    <g id="xtick_12">
     <g id="line2d_31">
      <g>
       <use xlink:href="#md26286b010" x="786.688705" y="306.768" style="stroke: #000000; stroke-width: 0.8"/>
      </g>
     </g>
     <g id="text_23">
      <!-- 2 -->
      <g transform="translate(783.18933 322.125422) scale(0.11 -0.11)">
       <use xlink:href="#DejaVuSans-15"/>
      </g>
     </g>
    </g>
    <g id="xtick_13">
     <g id="line2d_32">
      <g>
       <use xlink:href="#md26286b010" x="841.259785" y="306.768" style="stroke: #000000; stroke-width: 0.8"/>
      </g>
     </g>
     <g id="text_24">
      <!-- 4 -->
      <g transform="translate(837.76041 322.125422) scale(0.11 -0.11)">
       <use xlink:href="#DejaVuSans-17"/>
      </g>
     </g>
    </g>
    <g id="text_25">
     <!-- score effect (geomean points, 95% CI) -->
     <g transform="translate(607.30345 337.126281) scale(0.11 -0.11)">
      <use xlink:href="#DejaVuSans-56"/>
      <use xlink:href="#DejaVuSans-46" transform="translate(52.09375 0)"/>
      <use xlink:href="#DejaVuSans-52" transform="translate(107.078125 0)"/>
      <use xlink:href="#DejaVuSans-55" transform="translate(168.265625 0)"/>
      <use xlink:href="#DejaVuSans-48" transform="translate(207.171875 0)"/>
      <use xlink:href="#DejaVuSans-3" transform="translate(268.703125 0)"/>
      <use xlink:href="#DejaVuSans-48" transform="translate(300.484375 0)"/>
      <use xlink:href="#DejaVuSans-13ae" transform="translate(362.015625 0)"/>
      <use xlink:href="#DejaVuSans-48" transform="translate(430.90625 0)"/>
      <use xlink:href="#DejaVuSans-46" transform="translate(492.4375 0)"/>
      <use xlink:href="#DejaVuSans-57" transform="translate(547.421875 0)"/>
      <use xlink:href="#DejaVuSans-3" transform="translate(586.625 0)"/>
      <use xlink:href="#DejaVuSans-b" transform="translate(618.40625 0)"/>
      <use xlink:href="#DejaVuSans-4a" transform="translate(657.421875 0)"/>
      <use xlink:href="#DejaVuSans-48" transform="translate(720.90625 0)"/>
      <use xlink:href="#DejaVuSans-52" transform="translate(782.4375 0)"/>
      <use xlink:href="#DejaVuSans-50" transform="translate(843.625 0)"/>
      <use xlink:href="#DejaVuSans-48" transform="translate(941.03125 0)"/>
      <use xlink:href="#DejaVuSans-44" transform="translate(1002.5625 0)"/>
      <use xlink:href="#DejaVuSans-51" transform="translate(1063.84375 0)"/>
      <use xlink:href="#DejaVuSans-3" transform="translate(1127.21875 0)"/>
      <use xlink:href="#DejaVuSans-53" transform="translate(1159 0)"/>
      <use xlink:href="#DejaVuSans-52" transform="translate(1222.484375 0)"/>
      <use xlink:href="#DejaVuSans-4c" transform="translate(1283.671875 0)"/>
      <use xlink:href="#DejaVuSans-51" transform="translate(1311.453125 0)"/>
      <use xlink:href="#DejaVuSans-57" transform="translate(1374.828125 0)"/>
      <use xlink:href="#DejaVuSans-56" transform="translate(1414.03125 0)"/>
      <use xlink:href="#DejaVuSans-f" transform="translate(1466.125 0)"/>
      <use xlink:href="#DejaVuSans-3" transform="translate(1497.90625 0)"/>
      <use xlink:href="#DejaVuSans-1c" transform="translate(1529.6875 0)"/>
      <use xlink:href="#DejaVuSans-18" transform="translate(1593.3125 0)"/>
      <use xlink:href="#DejaVuSans-8" transform="translate(1656.9375 0)"/>
      <use xlink:href="#DejaVuSans-3" transform="translate(1751.953125 0)"/>
      <use xlink:href="#DejaVuSans-26" transform="translate(1783.734375 0)"/>
      <use xlink:href="#DejaVuSans-2c" transform="translate(1853.5625 0)"/>
      <use xlink:href="#DejaVuSans-c" transform="translate(1883.0625 0)"/>
     </g>
    </g>
   </g>
   <g id="matplotlib.axis_4">
    <g id="ytick_10">
     <g id="line2d_33">
      <g>
       <use xlink:href="#m16b468caf0" x="576.45362" y="84.140408" style="stroke: #000000; stroke-width: 0.8"/>
      </g>
     </g>
     <g id="text_26">
      <!-- Night burrow (N=200) -->
      <g transform="translate(464.209948 87.749665) scale(0.095 -0.095)">
       <use xlink:href="#DejaVuSans-31"/>
       <use xlink:href="#DejaVuSans-4c" transform="translate(74.8125 0)"/>
       <use xlink:href="#DejaVuSans-4a" transform="translate(102.59375 0)"/>
       <use xlink:href="#DejaVuSans-4b" transform="translate(166.078125 0)"/>
       <use xlink:href="#DejaVuSans-57" transform="translate(229.453125 0)"/>
       <use xlink:href="#DejaVuSans-3" transform="translate(268.65625 0)"/>
       <use xlink:href="#DejaVuSans-45" transform="translate(300.4375 0)"/>
       <use xlink:href="#DejaVuSans-58" transform="translate(363.921875 0)"/>
       <use xlink:href="#DejaVuSans-55" transform="translate(427.296875 0)"/>
       <use xlink:href="#DejaVuSans-55" transform="translate(466.65625 0)"/>
       <use xlink:href="#DejaVuSans-52" transform="translate(505.5625 0)"/>
       <use xlink:href="#DejaVuSans-5a" transform="translate(566.75 0)"/>
       <use xlink:href="#DejaVuSans-3" transform="translate(648.53125 0)"/>
       <use xlink:href="#DejaVuSans-b" transform="translate(680.3125 0)"/>
       <use xlink:href="#DejaVuSans-31" transform="translate(719.328125 0)"/>
       <use xlink:href="#DejaVuSans-20" transform="translate(794.140625 0)"/>
       <use xlink:href="#DejaVuSans-15" transform="translate(877.9375 0)"/>
       <use xlink:href="#DejaVuSans-13" transform="translate(941.5625 0)"/>
       <use xlink:href="#DejaVuSans-13" transform="translate(1005.1875 0)"/>
       <use xlink:href="#DejaVuSans-c" transform="translate(1068.8125 0)"/>
      </g>
     </g>
    </g>
    <g id="ytick_11">
     <g id="line2d_34">
      <g>
       <use xlink:href="#m16b468caf0" x="576.45362" y="110.643692" style="stroke: #000000; stroke-width: 0.8"/>
      </g>
     </g>
     <g id="text_27">
      <!-- Day scheduler (N=400 comb.) -->
      <g transform="translate(425.202057 114.25295) scale(0.095 -0.095)">
       <defs>
        <path id="DejaVuSans-11" d="M 684 794 
L 1344 794 
L 1344 0 
L 684 0 
L 684 794 
z
" transform="scale(0.015625)"/>
       </defs>
       <use xlink:href="#DejaVuSans-27"/>
       <use xlink:href="#DejaVuSans-44" transform="translate(77 0)"/>
       <use xlink:href="#DejaVuSans-5c" transform="translate(138.28125 0)"/>
       <use xlink:href="#DejaVuSans-3" transform="translate(197.46875 0)"/>
       <use xlink:href="#DejaVuSans-56" transform="translate(229.25 0)"/>
       <use xlink:href="#DejaVuSans-46" transform="translate(281.34375 0)"/>
       <use xlink:href="#DejaVuSans-4b" transform="translate(336.328125 0)"/>
       <use xlink:href="#DejaVuSans-48" transform="translate(399.703125 0)"/>
       <use xlink:href="#DejaVuSans-47" transform="translate(461.234375 0)"/>
       <use xlink:href="#DejaVuSans-58" transform="translate(524.71875 0)"/>
       <use xlink:href="#DejaVuSans-4f" transform="translate(588.09375 0)"/>
       <use xlink:href="#DejaVuSans-48" transform="translate(615.875 0)"/>
       <use xlink:href="#DejaVuSans-55" transform="translate(677.40625 0)"/>
       <use xlink:href="#DejaVuSans-3" transform="translate(718.515625 0)"/>
       <use xlink:href="#DejaVuSans-b" transform="translate(750.296875 0)"/>
       <use xlink:href="#DejaVuSans-31" transform="translate(789.3125 0)"/>
       <use xlink:href="#DejaVuSans-20" transform="translate(864.125 0)"/>
       <use xlink:href="#DejaVuSans-17" transform="translate(947.921875 0)"/>
       <use xlink:href="#DejaVuSans-13" transform="translate(1011.546875 0)"/>
       <use xlink:href="#DejaVuSans-13" transform="translate(1075.171875 0)"/>
       <use xlink:href="#DejaVuSans-3" transform="translate(1138.796875 0)"/>
       <use xlink:href="#DejaVuSans-46" transform="translate(1170.578125 0)"/>
       <use xlink:href="#DejaVuSans-52" transform="translate(1225.5625 0)"/>
       <use xlink:href="#DejaVuSans-50" transform="translate(1286.75 0)"/>
       <use xlink:href="#DejaVuSans-45" transform="translate(1384.15625 0)"/>
       <use xlink:href="#DejaVuSans-11" transform="translate(1447.640625 0)"/>
       <use xlink:href="#DejaVuSans-c" transform="translate(1479.421875 0)"/>
      </g>
     </g>
    </g>
    <g id="ytick_12">
     <g id="line2d_35">
      <g>
       <use xlink:href="#m16b468caf0" x="576.45362" y="137.146977" style="stroke: #000000; stroke-width: 0.8"/>
      </g>
     </g>
     <g id="text_28">
      <!-- Furnace-after-coal (N=300) -->
      <g transform="translate(439.984948 140.756235) scale(0.095 -0.095)">
       <defs>
        <path id="DejaVuSans-49" d="M 2375 4863 
L 2375 4384 
L 1825 4384 
Q 1516 4384 1395 4259 
Q 1275 4134 1275 3809 
L 1275 3500 
L 2222 3500 
L 2222 3053 
L 1275 3053 
L 1275 0 
L 697 0 
L 697 3053 
L 147 3053 
L 147 3500 
L 697 3500 
L 697 3744 
Q 697 4328 969 4595 
Q 1241 4863 1831 4863 
L 2375 4863 
z
" transform="scale(0.015625)"/>
        <path id="DejaVuSans-16" d="M 2597 2516 
Q 3050 2419 3304 2112 
Q 3559 1806 3559 1356 
Q 3559 666 3084 287 
Q 2609 -91 1734 -91 
Q 1441 -91 1130 -33 
Q 819 25 488 141 
L 488 750 
Q 750 597 1062 519 
Q 1375 441 1716 441 
Q 2309 441 2620 675 
Q 2931 909 2931 1356 
Q 2931 1769 2642 2001 
Q 2353 2234 1838 2234 
L 1294 2234 
L 1294 2753 
L 1863 2753 
Q 2328 2753 2575 2939 
Q 2822 3125 2822 3475 
Q 2822 3834 2567 4026 
Q 2313 4219 1838 4219 
Q 1578 4219 1281 4162 
Q 984 4106 628 3988 
L 628 4550 
Q 988 4650 1302 4700 
Q 1616 4750 1894 4750 
Q 2613 4750 3031 4423 
Q 3450 4097 3450 3541 
Q 3450 3153 3228 2886 
Q 3006 2619 2597 2516 
z
" transform="scale(0.015625)"/>
       </defs>
       <use xlink:href="#DejaVuSans-29"/>
       <use xlink:href="#DejaVuSans-58" transform="translate(52.046875 0)"/>
       <use xlink:href="#DejaVuSans-55" transform="translate(115.421875 0)"/>
       <use xlink:href="#DejaVuSans-51" transform="translate(154.78125 0)"/>
       <use xlink:href="#DejaVuSans-44" transform="translate(218.15625 0)"/>
       <use xlink:href="#DejaVuSans-46" transform="translate(279.4375 0)"/>
       <use xlink:href="#DejaVuSans-48" transform="translate(334.421875 0)"/>
       <use xlink:href="#DejaVuSans-10" transform="translate(395.953125 0)"/>
       <use xlink:href="#DejaVuSans-44" transform="translate(432.03125 0)"/>
       <use xlink:href="#DejaVuSans-49" transform="translate(493.3125 0)"/>
       <use xlink:href="#DejaVuSans-57" transform="translate(526.765625 0)"/>
       <use xlink:href="#DejaVuSans-48" transform="translate(565.96875 0)"/>
       <use xlink:href="#DejaVuSans-55" transform="translate(627.5 0)"/>
       <use xlink:href="#DejaVuSans-10" transform="translate(662.21875 0)"/>
       <use xlink:href="#DejaVuSans-46" transform="translate(698.296875 0)"/>
       <use xlink:href="#DejaVuSans-52" transform="translate(753.28125 0)"/>
       <use xlink:href="#DejaVuSans-44" transform="translate(814.46875 0)"/>
       <use xlink:href="#DejaVuSans-4f" transform="translate(875.75 0)"/>
       <use xlink:href="#DejaVuSans-3" transform="translate(903.53125 0)"/>
       <use xlink:href="#DejaVuSans-b" transform="translate(935.3125 0)"/>
       <use xlink:href="#DejaVuSans-31" transform="translate(974.328125 0)"/>
       <use xlink:href="#DejaVuSans-20" transform="translate(1049.140625 0)"/>
       <use xlink:href="#DejaVuSans-16" transform="translate(1132.9375 0)"/>
       <use xlink:href="#DejaVuSans-13" transform="translate(1196.5625 0)"/>
       <use xlink:href="#DejaVuSans-13" transform="translate(1260.1875 0)"/>
       <use xlink:href="#DejaVuSans-c" transform="translate(1323.8125 0)"/>
      </g>
     </g>
    </g>
    <g id="ytick_13">
     <g id="line2d_36">
      <g>
       <use xlink:href="#m16b468caf0" x="576.45362" y="163.650262" style="stroke: #000000; stroke-width: 0.8"/>
      </g>
     </g>
     <g id="text_29">
      <!-- Orchard v2 (+eat_plant!) -->
      <g transform="translate(450.176666 167.25952) scale(0.095 -0.095)">
       <defs>
        <path id="DejaVuSans-e" d="M 2944 4013 
L 2944 2272 
L 4684 2272 
L 4684 1741 
L 2944 1741 
L 2944 0 
L 2419 0 
L 2419 1741 
L 678 1741 
L 678 2272 
L 2419 2272 
L 2419 4013 
L 2944 4013 
z
" transform="scale(0.015625)"/>
        <path id="DejaVuSans-42" d="M 3263 -1063 
L 3263 -1509 
L -63 -1509 
L -63 -1063 
L 3263 -1063 
z
" transform="scale(0.015625)"/>
        <path id="DejaVuSans-4" d="M 966 794 
L 1600 794 
L 1600 0 
L 966 0 
L 966 794 
z
M 966 4666 
L 1600 4666 
L 1600 2619 
L 1538 1503 
L 1031 1503 
L 966 2619 
L 966 4666 
z
" transform="scale(0.015625)"/>
       </defs>
       <use xlink:href="#DejaVuSans-32"/>
       <use xlink:href="#DejaVuSans-55" transform="translate(78.71875 0)"/>
       <use xlink:href="#DejaVuSans-46" transform="translate(117.625 0)"/>
       <use xlink:href="#DejaVuSans-4b" transform="translate(172.609375 0)"/>
       <use xlink:href="#DejaVuSans-44" transform="translate(235.984375 0)"/>
       <use xlink:href="#DejaVuSans-55" transform="translate(297.265625 0)"/>
       <use xlink:href="#DejaVuSans-47" transform="translate(336.625 0)"/>
       <use xlink:href="#DejaVuSans-3" transform="translate(400.109375 0)"/>
       <use xlink:href="#DejaVuSans-59" transform="translate(431.890625 0)"/>
       <use xlink:href="#DejaVuSans-15" transform="translate(491.078125 0)"/>
       <use xlink:href="#DejaVuSans-3" transform="translate(554.703125 0)"/>
       <use xlink:href="#DejaVuSans-b" transform="translate(586.484375 0)"/>
       <use xlink:href="#DejaVuSans-e" transform="translate(625.5 0)"/>
       <use xlink:href="#DejaVuSans-48" transform="translate(709.296875 0)"/>
       <use xlink:href="#DejaVuSans-44" transform="translate(770.828125 0)"/>
       <use xlink:href="#DejaVuSans-57" transform="translate(832.109375 0)"/>
       <use xlink:href="#DejaVuSans-42" transform="translate(871.3125 0)"/>
       <use xlink:href="#DejaVuSans-53" transform="translate(921.3125 0)"/>
       <use xlink:href="#DejaVuSans-4f" transform="translate(984.796875 0)"/>
       <use xlink:href="#DejaVuSans-44" transform="translate(1012.578125 0)"/>
       <use xlink:href="#DejaVuSans-51" transform="translate(1073.859375 0)"/>
       <use xlink:href="#DejaVuSans-57" transform="translate(1137.234375 0)"/>
       <use xlink:href="#DejaVuSans-4" transform="translate(1176.4375 0)"/>
       <use xlink:href="#DejaVuSans-c" transform="translate(1216.53125 0)"/>
      </g>
     </g>
    </g>
    <g id="ytick_14">
     <g id="line2d_37">
      <g>
       <use xlink:href="#m16b468caf0" x="576.45362" y="190.153547" style="stroke: #000000; stroke-width: 0.8"/>
      </g>
     </g>
     <g id="text_30">
      <!-- Breadth pack -->
      <g transform="translate(506.199948 193.762805) scale(0.095 -0.095)">
       <defs>
        <path id="DejaVuSans-25" d="M 1259 2228 
L 1259 519 
L 2272 519 
Q 2781 519 3026 730 
Q 3272 941 3272 1375 
Q 3272 1813 3026 2020 
Q 2781 2228 2272 2228 
L 1259 2228 
z
M 1259 4147 
L 1259 2741 
L 2194 2741 
Q 2656 2741 2882 2914 
Q 3109 3088 3109 3444 
Q 3109 3797 2882 3972 
Q 2656 4147 2194 4147 
L 1259 4147 
z
M 628 4666 
L 2241 4666 
Q 2963 4666 3353 4366 
Q 3744 4066 3744 3513 
Q 3744 3084 3544 2831 
Q 3344 2578 2956 2516 
Q 3422 2416 3680 2098 
Q 3938 1781 3938 1306 
Q 3938 681 3513 340 
Q 3088 0 2303 0 
L 628 0 
L 628 4666 
z
" transform="scale(0.015625)"/>
       </defs>
       <use xlink:href="#DejaVuSans-25"/>
       <use xlink:href="#DejaVuSans-55" transform="translate(68.609375 0)"/>
       <use xlink:href="#DejaVuSans-48" transform="translate(107.515625 0)"/>
       <use xlink:href="#DejaVuSans-44" transform="translate(169.046875 0)"/>
       <use xlink:href="#DejaVuSans-47" transform="translate(230.328125 0)"/>
       <use xlink:href="#DejaVuSans-57" transform="translate(293.8125 0)"/>
       <use xlink:href="#DejaVuSans-4b" transform="translate(333.015625 0)"/>
       <use xlink:href="#DejaVuSans-3" transform="translate(396.390625 0)"/>
       <use xlink:href="#DejaVuSans-53" transform="translate(428.171875 0)"/>
       <use xlink:href="#DejaVuSans-44" transform="translate(491.65625 0)"/>
       <use xlink:href="#DejaVuSans-46" transform="translate(552.9375 0)"/>
       <use xlink:href="#DejaVuSans-4e" transform="translate(607.921875 0)"/>
      </g>
     </g>
    </g>
    <g id="ytick_15">
     <g id="line2d_38">
      <g>
       <use xlink:href="#m16b468caf0" x="576.45362" y="216.656832" style="stroke: #000000; stroke-width: 0.8"/>
      </g>
     </g>
     <g id="text_31">
      <!-- Orchard v1 -->
      <g transform="translate(516.756823 220.266089) scale(0.095 -0.095)">
       <use xlink:href="#DejaVuSans-32"/>
       <use xlink:href="#DejaVuSans-55" transform="translate(78.71875 0)"/>
       <use xlink:href="#DejaVuSans-46" transform="translate(117.625 0)"/>
       <use xlink:href="#DejaVuSans-4b" transform="translate(172.609375 0)"/>
       <use xlink:href="#DejaVuSans-44" transform="translate(235.984375 0)"/>
       <use xlink:href="#DejaVuSans-55" transform="translate(297.265625 0)"/>
       <use xlink:href="#DejaVuSans-47" transform="translate(336.625 0)"/>
       <use xlink:href="#DejaVuSans-3" transform="translate(400.109375 0)"/>
       <use xlink:href="#DejaVuSans-59" transform="translate(431.890625 0)"/>
       <use xlink:href="#DejaVuSans-14" transform="translate(491.078125 0)"/>
      </g>
     </g>
    </g>
    <g id="ytick_16">
     <g id="line2d_39">
      <g>
       <use xlink:href="#m16b468caf0" x="576.45362" y="243.160116" style="stroke: #000000; stroke-width: 0.8"/>
      </g>
     </g>
     <g id="text_32">
      <!-- Tactical search -->
      <g transform="translate(499.554401 246.769374) scale(0.095 -0.095)">
       <use xlink:href="#DejaVuSans-37"/>
       <use xlink:href="#DejaVuSans-44" transform="translate(44.53125 0)"/>
       <use xlink:href="#DejaVuSans-46" transform="translate(105.8125 0)"/>
       <use xlink:href="#DejaVuSans-57" transform="translate(160.796875 0)"/>
       <use xlink:href="#DejaVuSans-4c" transform="translate(200 0)"/>
       <use xlink:href="#DejaVuSans-46" transform="translate(227.78125 0)"/>
       <use xlink:href="#DejaVuSans-44" transform="translate(282.765625 0)"/>
       <use xlink:href="#DejaVuSans-4f" transform="translate(344.046875 0)"/>
       <use xlink:href="#DejaVuSans-3" transform="translate(371.828125 0)"/>
       <use xlink:href="#DejaVuSans-56" transform="translate(403.609375 0)"/>
       <use xlink:href="#DejaVuSans-48" transform="translate(455.703125 0)"/>
       <use xlink:href="#DejaVuSans-44" transform="translate(517.234375 0)"/>
       <use xlink:href="#DejaVuSans-55" transform="translate(578.515625 0)"/>
       <use xlink:href="#DejaVuSans-46" transform="translate(617.421875 0)"/>
       <use xlink:href="#DejaVuSans-4b" transform="translate(672.40625 0)"/>
      </g>
     </g>
    </g>
    <g id="ytick_17">
     <g id="line2d_40">
      <g>
       <use xlink:href="#m16b468caf0" x="576.45362" y="269.663401" style="stroke: #000000; stroke-width: 0.8"/>
      </g>
     </g>
     <g id="text_33">
      <!-- Homesteader -->
      <g transform="translate(505.275182 273.272659) scale(0.095 -0.095)">
       <use xlink:href="#DejaVuSans-2b"/>
       <use xlink:href="#DejaVuSans-52" transform="translate(75.203125 0)"/>
       <use xlink:href="#DejaVuSans-50" transform="translate(136.390625 0)"/>
       <use xlink:href="#DejaVuSans-48" transform="translate(233.796875 0)"/>
       <use xlink:href="#DejaVuSans-56" transform="translate(295.328125 0)"/>
       <use xlink:href="#DejaVuSans-57" transform="translate(347.421875 0)"/>
       <use xlink:href="#DejaVuSans-48" transform="translate(386.625 0)"/>
       <use xlink:href="#DejaVuSans-44" transform="translate(448.15625 0)"/>
       <use xlink:href="#DejaVuSans-47" transform="translate(509.4375 0)"/>
       <use xlink:href="#DejaVuSans-48" transform="translate(572.921875 0)"/>
       <use xlink:href="#DejaVuSans-55" transform="translate(634.453125 0)"/>
      </g>
     </g>
    </g>
    <g id="ytick_18">
     <g id="line2d_41">
      <g>
       <use xlink:href="#m16b468caf0" x="576.45362" y="296.166686" style="stroke: #000000; stroke-width: 0.8"/>
      </g>
     </g>
     <g id="text_34">
      <!-- Food economy (full) -->
      <g transform="translate(474.985026 299.775944) scale(0.095 -0.095)">
       <use xlink:href="#DejaVuSans-29"/>
       <use xlink:href="#DejaVuSans-52" transform="translate(53.953125 0)"/>
       <use xlink:href="#DejaVuSans-52" transform="translate(115.140625 0)"/>
       <use xlink:href="#DejaVuSans-47" transform="translate(176.328125 0)"/>
       <use xlink:href="#DejaVuSans-3" transform="translate(239.8125 0)"/>
       <use xlink:href="#DejaVuSans-48" transform="translate(271.59375 0)"/>
       <use xlink:href="#DejaVuSans-46" transform="translate(333.125 0)"/>
       <use xlink:href="#DejaVuSans-52" transform="translate(388.109375 0)"/>
       <use xlink:href="#DejaVuSans-51" transform="translate(449.296875 0)"/>
       <use xlink:href="#DejaVuSans-52" transform="translate(512.671875 0)"/>
       <use xlink:href="#DejaVuSans-50" transform="translate(573.859375 0)"/>
       <use xlink:href="#DejaVuSans-5c" transform="translate(671.265625 0)"/>
       <use xlink:href="#DejaVuSans-3" transform="translate(730.453125 0)"/>
       <use xlink:href="#DejaVuSans-b" transform="translate(762.234375 0)"/>
       <use xlink:href="#DejaVuSans-49" transform="translate(801.25 0)"/>
       <use xlink:href="#DejaVuSans-58" transform="translate(836.453125 0)"/>
       <use xlink:href="#DejaVuSans-4f" transform="translate(899.828125 0)"/>
       <use xlink:href="#DejaVuSans-4f" transform="translate(927.609375 0)"/>
       <use xlink:href="#DejaVuSans-c" transform="translate(955.390625 0)"/>
      </g>
     </g>
    </g>
   </g>
   <g id="line2d_42">
    <path d="M 750.671792 84.140408 
L 837.166954 84.140408 
" clip-path="url(#pbbc8956ed3)" style="fill: none; stroke: #0e9594; stroke-width: 2.2; stroke-linecap: square"/>
   </g>
   <g id="line2d_43">
    <path d="M 747.943238 110.643692 
L 803.60574 110.643692 
" clip-path="url(#pbbc8956ed3)" style="fill: none; stroke: #0e9594; stroke-width: 2.2; stroke-linecap: square"/>
   </g>
   <g id="line2d_44">
    <path d="M 707.014928 137.146977 
L 782.323019 137.146977 
" clip-path="url(#pbbc8956ed3)" style="fill: none; stroke: #9aa0a6; stroke-width: 2.2; stroke-linecap: square"/>
   </g>
   <g id="line2d_45">
    <path d="M 696.100712 163.650262 
L 780.413031 163.650262 
" clip-path="url(#pbbc8956ed3)" style="fill: none; stroke: #9aa0a6; stroke-width: 2.2; stroke-linecap: square"/>
   </g>
   <g id="line2d_46">
    <path d="M 685.732207 190.153547 
L 779.321609 190.153547 
" clip-path="url(#pbbc8956ed3)" style="fill: none; stroke: #9aa0a6; stroke-width: 2.2; stroke-linecap: square"/>
   </g>
   <g id="line2d_47">
    <path d="M 692.007881 216.656832 
L 767.861683 216.656832 
" clip-path="url(#pbbc8956ed3)" style="fill: none; stroke: #9aa0a6; stroke-width: 2.2; stroke-linecap: square"/>
   </g>
   <g id="line2d_48">
    <path d="M 671.543726 243.160116 
L 753.946057 243.160116 
" clip-path="url(#pbbc8956ed3)" style="fill: none; stroke: #9aa0a6; stroke-width: 2.2; stroke-linecap: square"/>
   </g>
   <g id="line2d_49">
    <path d="M 610.424117 269.663401 
L 759.403165 269.663401 
" clip-path="url(#pbbc8956ed3)" style="fill: none; stroke: #9aa0a6; stroke-width: 2.2; stroke-linecap: square"/>
   </g>
   <g id="line2d_50">
    <path d="M 588.86854 296.166686 
L 712.199181 296.166686 
" clip-path="url(#pbbc8956ed3)" style="fill: none; stroke: #d1495b; stroke-width: 2.2; stroke-linecap: square"/>
   </g>
   <g id="line2d_51">
    <path d="M 732.117625 306.768 
L 732.117625 73.539094 
" clip-path="url(#pbbc8956ed3)" style="fill: none; stroke-dasharray: 3.7,1.6; stroke-dashoffset: 0; stroke: #888888"/>
   </g>
   <g id="patch_5">
    <path d="M 576.45362 306.768 
L 849.581875 306.768 
" style="fill: none; stroke: #cccccc; stroke-width: 0.8; stroke-linejoin: miter; stroke-linecap: square"/>
   </g>
   <g id="PathCollection_10">
    <g clip-path="url(#pbbc8956ed3)">
     <use xlink:href="#mb32808b3ea" x="792.691524" y="84.140408" style="fill: #0e9594; stroke: #0e9594"/>
    </g>
   </g>
   <g id="PathCollection_11">
    <g clip-path="url(#pbbc8956ed3)">
     <use xlink:href="#mb32808b3ea" x="775.774489" y="110.643692" style="fill: #0e9594; stroke: #0e9594"/>
    </g>
   </g>
   <g id="PathCollection_12">
    <g clip-path="url(#pbbc8956ed3)">
     <use xlink:href="#me9a8b08bc4" x="745.48754" y="137.146977" style="fill: #9aa0a6; stroke: #9aa0a6"/>
    </g>
   </g>
   <g id="PathCollection_13">
    <g clip-path="url(#pbbc8956ed3)">
     <use xlink:href="#me9a8b08bc4" x="740.303287" y="163.650262" style="fill: #9aa0a6; stroke: #9aa0a6"/>
    </g>
   </g>
   <g id="PathCollection_14">
    <g clip-path="url(#pbbc8956ed3)">
     <use xlink:href="#me9a8b08bc4" x="736.483312" y="190.153547" style="fill: #9aa0a6; stroke: #9aa0a6"/>
    </g>
   </g>
   <g id="PathCollection_15">
    <g clip-path="url(#pbbc8956ed3)">
     <use xlink:href="#me9a8b08bc4" x="731.026204" y="216.656832" style="fill: #9aa0a6; stroke: #9aa0a6"/>
    </g>
   </g>
   <g id="PathCollection_16">
    <g clip-path="url(#pbbc8956ed3)">
     <use xlink:href="#me9a8b08bc4" x="713.836313" y="243.160116" style="fill: #9aa0a6; stroke: #9aa0a6"/>
    </g>
   </g>
   <g id="PathCollection_17">
    <g clip-path="url(#pbbc8956ed3)">
     <use xlink:href="#me9a8b08bc4" x="689.825038" y="269.663401" style="fill: #9aa0a6; stroke: #9aa0a6"/>
    </g>
   </g>
   <g id="PathCollection_18">
    <defs>
     <path id="m189c8c4cc7" d="M 0 4 
C 1.060812 4 2.078319 3.578535 2.828427 2.828427 
C 3.578535 2.078319 4 1.060812 4 0 
C 4 -1.060812 3.578535 -2.078319 2.828427 -2.828427 
C 2.078319 -3.578535 1.060812 -4 0 -4 
C -1.060812 -4 -2.078319 -3.578535 -2.828427 -2.828427 
C -3.578535 -2.078319 -4 -1.060812 -4 0 
C -4 1.060812 -3.578535 2.078319 -2.828427 2.828427 
C -2.078319 3.578535 -1.060812 4 0 4 
z
" style="stroke: #d1495b"/>
    </defs>
    <g clip-path="url(#pbbc8956ed3)">
     <use xlink:href="#m189c8c4cc7" x="652.989559" y="296.166686" style="fill: #d1495b; stroke: #d1495b"/>
    </g>
   </g>
   <g id="text_35">
    <!-- Score levers -->
    <g transform="translate(667.087935 67.539094) scale(0.132 -0.132)">
     <defs>
      <path id="DejaVuSans-Bold-46" d="M 3366 3391 
L 3366 2478 
Q 3138 2634 2908 2709 
Q 2678 2784 2431 2784 
Q 1963 2784 1702 2511 
Q 1441 2238 1441 1747 
Q 1441 1256 1702 982 
Q 1963 709 2431 709 
Q 2694 709 2930 787 
Q 3166 866 3366 1019 
L 3366 103 
Q 3103 6 2833 -42 
Q 2563 -91 2291 -91 
Q 1344 -91 809 395 
Q 275 881 275 1747 
Q 275 2613 809 3098 
Q 1344 3584 2291 3584 
Q 2566 3584 2833 3536 
Q 3100 3488 3366 3391 
z
" transform="scale(0.015625)"/>
      <path id="DejaVuSans-Bold-52" d="M 2203 2784 
Q 1831 2784 1636 2517 
Q 1441 2250 1441 1747 
Q 1441 1244 1636 976 
Q 1831 709 2203 709 
Q 2569 709 2762 976 
Q 2956 1244 2956 1747 
Q 2956 2250 2762 2517 
Q 2569 2784 2203 2784 
z
M 2203 3584 
Q 3106 3584 3614 3096 
Q 4122 2609 4122 1747 
Q 4122 884 3614 396 
Q 3106 -91 2203 -91 
Q 1297 -91 786 396 
Q 275 884 275 1747 
Q 275 2609 786 3096 
Q 1297 3584 2203 3584 
z
" transform="scale(0.015625)"/>
     </defs>
     <use xlink:href="#DejaVuSans-Bold-36"/>
     <use xlink:href="#DejaVuSans-Bold-46" transform="translate(72.015625 0)"/>
     <use xlink:href="#DejaVuSans-Bold-52" transform="translate(131.296875 0)"/>
     <use xlink:href="#DejaVuSans-Bold-55" transform="translate(200 0)"/>
     <use xlink:href="#DejaVuSans-Bold-48" transform="translate(249.3125 0)"/>
     <use xlink:href="#DejaVuSans-Bold-3" transform="translate(317.140625 0)"/>
     <use xlink:href="#DejaVuSans-Bold-4f" transform="translate(351.953125 0)"/>
     <use xlink:href="#DejaVuSans-Bold-48" transform="translate(386.234375 0)"/>
     <use xlink:href="#DejaVuSans-Bold-59" transform="translate(454.0625 0)"/>
     <use xlink:href="#DejaVuSans-Bold-48" transform="translate(519.25 0)"/>
     <use xlink:href="#DejaVuSans-Bold-55" transform="translate(587.078125 0)"/>
     <use xlink:href="#DejaVuSans-Bold-56" transform="translate(636.390625 0)"/>
    </g>
   </g>
  </g>
  <g id="text_36">
   <!-- Every lever we measured — 3 wins, a dozen honest nulls, 1 backfire -->
   <g transform="translate(176.851 17.229938) scale(0.132 -0.132)">
    <defs>
     <path id="DejaVuSans-Bold-28" d="M 588 4666 
L 3834 4666 
L 3834 3756 
L 1791 3756 
L 1791 2888 
L 3713 2888 
L 3713 1978 
L 1791 1978 
L 1791 909 
L 3903 909 
L 3903 0 
L 588 0 
L 588 4666 
z
" transform="scale(0.015625)"/>
     <path id="DejaVuSans-Bold-5c" d="M 78 3500 
L 1197 3500 
L 2138 1125 
L 2938 3500 
L 4056 3500 
L 2584 -331 
Q 2363 -916 2067 -1148 
Q 1772 -1381 1288 -1381 
L 641 -1381 
L 641 -647 
L 991 -647 
Q 1275 -647 1404 -556 
Q 1534 -466 1606 -231 
L 1638 -134 
L 78 3500 
z
" transform="scale(0.015625)"/>
     <path id="DejaVuSans-Bold-5a" d="M 225 3500 
L 1313 3500 
L 1900 1088 
L 2491 3500 
L 3425 3500 
L 4013 1113 
L 4603 3500 
L 5691 3500 
L 4769 0 
L 3547 0 
L 2956 2406 
L 2369 0 
L 1147 0 
L 225 3500 
z
" transform="scale(0.015625)"/>
     <path id="DejaVuSans-Bold-50" d="M 3781 2919 
Q 3994 3244 4286 3414 
Q 4578 3584 4928 3584 
Q 5531 3584 5847 3212 
Q 6163 2841 6163 2131 
L 6163 0 
L 5038 0 
L 5038 1825 
Q 5041 1866 5042 1909 
Q 5044 1953 5044 2034 
Q 5044 2406 4934 2573 
Q 4825 2741 4581 2741 
Q 4263 2741 4089 2478 
Q 3916 2216 3909 1719 
L 3909 0 
L 2784 0 
L 2784 1825 
Q 2784 2406 2684 2573 
Q 2584 2741 2328 2741 
Q 2006 2741 1831 2477 
Q 1656 2213 1656 1722 
L 1656 0 
L 531 0 
L 531 3500 
L 1656 3500 
L 1656 2988 
Q 1863 3284 2130 3434 
Q 2397 3584 2719 3584 
Q 3081 3584 3359 3409 
Q 3638 3234 3781 2919 
z
" transform="scale(0.015625)"/>
     <path id="DejaVuSans-Bold-47" d="M 2919 2988 
L 2919 4863 
L 4044 4863 
L 4044 0 
L 2919 0 
L 2919 506 
Q 2688 197 2409 53 
Q 2131 -91 1766 -91 
Q 1119 -91 703 423 
Q 288 938 288 1747 
Q 288 2556 703 3070 
Q 1119 3584 1766 3584 
Q 2128 3584 2408 3439 
Q 2688 3294 2919 2988 
z
M 2181 722 
Q 2541 722 2730 984 
Q 2919 1247 2919 1747 
Q 2919 2247 2730 2509 
Q 2541 2772 2181 2772 
Q 1825 2772 1636 2509 
Q 1447 2247 1447 1747 
Q 1447 1247 1636 984 
Q 1825 722 2181 722 
z
" transform="scale(0.015625)"/>
     <path id="DejaVuSans-Bold-af6" d="M 344 2156 
L 6056 2156 
L 6056 1350 
L 344 1350 
L 344 2156 
z
" transform="scale(0.015625)"/>
     <path id="DejaVuSans-Bold-16" d="M 2981 2516 
Q 3453 2394 3698 2092 
Q 3944 1791 3944 1325 
Q 3944 631 3412 270 
Q 2881 -91 1863 -91 
Q 1503 -91 1142 -33 
Q 781 25 428 141 
L 428 1069 
Q 766 900 1098 814 
Q 1431 728 1753 728 
Q 2231 728 2486 893 
Q 2741 1059 2741 1369 
Q 2741 1688 2480 1852 
Q 2219 2016 1709 2016 
L 1228 2016 
L 1228 2791 
L 1734 2791 
Q 2188 2791 2409 2933 
Q 2631 3075 2631 3366 
Q 2631 3634 2415 3781 
Q 2200 3928 1806 3928 
Q 1516 3928 1219 3862 
Q 922 3797 628 3669 
L 628 4550 
Q 984 4650 1334 4700 
Q 1684 4750 2022 4750 
Q 2931 4750 3382 4451 
Q 3834 4153 3834 3553 
Q 3834 3144 3618 2883 
Q 3403 2622 2981 2516 
z
" transform="scale(0.015625)"/>
     <path id="DejaVuSans-Bold-51" d="M 4056 2131 
L 4056 0 
L 2931 0 
L 2931 347 
L 2931 1631 
Q 2931 2084 2911 2256 
Q 2891 2428 2841 2509 
Q 2775 2619 2662 2680 
Q 2550 2741 2406 2741 
Q 2056 2741 1856 2470 
Q 1656 2200 1656 1722 
L 1656 0 
L 538 0 
L 538 3500 
L 1656 3500 
L 1656 2988 
Q 1909 3294 2193 3439 
Q 2478 3584 2822 3584 
Q 3428 3584 3742 3212 
Q 4056 2841 4056 2131 
z
" transform="scale(0.015625)"/>
     <path id="DejaVuSans-Bold-f" d="M 653 1209 
L 1778 1209 
L 1778 256 
L 1006 -909 
L 341 -909 
L 653 256 
L 653 1209 
z
" transform="scale(0.015625)"/>
     <path id="DejaVuSans-Bold-5d" d="M 366 3500 
L 3419 3500 
L 3419 2719 
L 1575 800 
L 3419 800 
L 3419 0 
L 288 0 
L 288 781 
L 2131 2700 
L 366 2700 
L 366 3500 
z
" transform="scale(0.015625)"/>
     <path id="DejaVuSans-Bold-4b" d="M 4056 2131 
L 4056 0 
L 2931 0 
L 2931 347 
L 2931 1625 
Q 2931 2084 2911 2256 
Q 2891 2428 2841 2509 
Q 2775 2619 2662 2680 
Q 2550 2741 2406 2741 
Q 2056 2741 1856 2470 
Q 1656 2200 1656 1722 
L 1656 0 
L 538 0 
L 538 4863 
L 1656 4863 
L 1656 2988 
Q 1909 3294 2193 3439 
Q 2478 3584 2822 3584 
Q 3428 3584 3742 3212 
Q 4056 2841 4056 2131 
z
" transform="scale(0.015625)"/>
     <path id="DejaVuSans-Bold-57" d="M 1759 4494 
L 1759 3500 
L 2913 3500 
L 2913 2700 
L 1759 2700 
L 1759 1216 
Q 1759 972 1856 886 
Q 1953 800 2241 800 
L 2816 800 
L 2816 0 
L 1856 0 
Q 1194 0 917 276 
Q 641 553 641 1216 
L 641 2700 
L 84 2700 
L 84 3500 
L 641 3500 
L 641 4494 
L 1759 4494 
z
" transform="scale(0.015625)"/>
     <path id="DejaVuSans-Bold-14" d="M 750 831 
L 1813 831 
L 1813 3847 
L 722 3622 
L 722 4441 
L 1806 4666 
L 2950 4666 
L 2950 831 
L 4013 831 
L 4013 0 
L 750 0 
L 750 831 
z
" transform="scale(0.015625)"/>
     <path id="DejaVuSans-Bold-45" d="M 2400 722 
Q 2759 722 2948 984 
Q 3138 1247 3138 1747 
Q 3138 2247 2948 2509 
Q 2759 2772 2400 2772 
Q 2041 2772 1848 2508 
Q 1656 2244 1656 1747 
Q 1656 1250 1848 986 
Q 2041 722 2400 722 
z
M 1656 2988 
Q 1888 3294 2169 3439 
Q 2450 3584 2816 3584 
Q 3463 3584 3878 3070 
Q 4294 2556 4294 1747 
Q 4294 938 3878 423 
Q 3463 -91 2816 -91 
Q 2450 -91 2169 54 
Q 1888 200 1656 506 
L 1656 0 
L 538 0 
L 538 4863 
L 1656 4863 
L 1656 2988 
z
" transform="scale(0.015625)"/>
     <path id="DejaVuSans-Bold-4e" d="M 538 4863 
L 1656 4863 
L 1656 2216 
L 2944 3500 
L 4244 3500 
L 2534 1894 
L 4378 0 
L 3022 0 
L 1656 1459 
L 1656 0 
L 538 0 
L 538 4863 
z
" transform="scale(0.015625)"/>
     <path id="DejaVuSans-Bold-13ab" d="M 3078 4863 
L 4206 4863 
L 4206 3950 
L 3078 3950 
L 3078 4863 
z
M 2847 4863 
L 2847 4128 
L 2228 4128 
Q 1994 4128 1903 4042 
Q 1813 3956 1813 3744 
L 1813 3500 
L 4206 3500 
L 4206 0 
L 3078 0 
L 3078 2700 
L 1813 2700 
L 1813 0 
L 684 0 
L 684 2700 
L 134 2700 
L 134 3500 
L 684 3500 
L 684 3744 
Q 684 4316 1003 4589 
Q 1322 4863 1991 4863 
L 2847 4863 
z
" transform="scale(0.015625)"/>
    </defs>
    <use xlink:href="#DejaVuSans-Bold-28"/>
    <use xlink:href="#DejaVuSans-Bold-59" transform="translate(68.3125 0)"/>
    <use xlink:href="#DejaVuSans-Bold-48" transform="translate(133.5 0)"/>
    <use xlink:href="#DejaVuSans-Bold-55" transform="translate(201.328125 0)"/>
    <use xlink:href="#DejaVuSans-Bold-5c" transform="translate(250.640625 0)"/>
    <use xlink:href="#DejaVuSans-Bold-3" transform="translate(315.828125 0)"/>
    <use xlink:href="#DejaVuSans-Bold-4f" transform="translate(350.640625 0)"/>
    <use xlink:href="#DejaVuSans-Bold-48" transform="translate(384.921875 0)"/>
    <use xlink:href="#DejaVuSans-Bold-59" transform="translate(452.75 0)"/>
    <use xlink:href="#DejaVuSans-Bold-48" transform="translate(517.9375 0)"/>
    <use xlink:href="#DejaVuSans-Bold-55" transform="translate(585.765625 0)"/>
    <use xlink:href="#DejaVuSans-Bold-3" transform="translate(635.078125 0)"/>
    <use xlink:href="#DejaVuSans-Bold-5a" transform="translate(669.890625 0)"/>
    <use xlink:href="#DejaVuSans-Bold-48" transform="translate(762.28125 0)"/>
    <use xlink:href="#DejaVuSans-Bold-3" transform="translate(830.109375 0)"/>
    <use xlink:href="#DejaVuSans-Bold-50" transform="translate(864.921875 0)"/>
    <use xlink:href="#DejaVuSans-Bold-48" transform="translate(969.125 0)"/>
    <use xlink:href="#DejaVuSans-Bold-44" transform="translate(1036.953125 0)"/>
    <use xlink:href="#DejaVuSans-Bold-56" transform="translate(1104.4375 0)"/>
    <use xlink:href="#DejaVuSans-Bold-58" transform="translate(1163.953125 0)"/>
    <use xlink:href="#DejaVuSans-Bold-55" transform="translate(1235.140625 0)"/>
    <use xlink:href="#DejaVuSans-Bold-48" transform="translate(1284.453125 0)"/>
    <use xlink:href="#DejaVuSans-Bold-47" transform="translate(1352.28125 0)"/>
    <use xlink:href="#DejaVuSans-Bold-3" transform="translate(1423.859375 0)"/>
    <use xlink:href="#DejaVuSans-Bold-af6" transform="translate(1458.671875 0)"/>
    <use xlink:href="#DejaVuSans-Bold-3" transform="translate(1558.671875 0)"/>
    <use xlink:href="#DejaVuSans-Bold-16" transform="translate(1593.484375 0)"/>
    <use xlink:href="#DejaVuSans-Bold-3" transform="translate(1663.0625 0)"/>
    <use xlink:href="#DejaVuSans-Bold-5a" transform="translate(1697.875 0)"/>
    <use xlink:href="#DejaVuSans-Bold-4c" transform="translate(1790.265625 0)"/>
    <use xlink:href="#DejaVuSans-Bold-51" transform="translate(1824.546875 0)"/>
    <use xlink:href="#DejaVuSans-Bold-56" transform="translate(1895.734375 0)"/>
    <use xlink:href="#DejaVuSans-Bold-f" transform="translate(1955.25 0)"/>
    <use xlink:href="#DejaVuSans-Bold-3" transform="translate(1993.234375 0)"/>
    <use xlink:href="#DejaVuSans-Bold-44" transform="translate(2028.046875 0)"/>
    <use xlink:href="#DejaVuSans-Bold-3" transform="translate(2095.53125 0)"/>
    <use xlink:href="#DejaVuSans-Bold-47" transform="translate(2130.34375 0)"/>
    <use xlink:href="#DejaVuSans-Bold-52" transform="translate(2201.921875 0)"/>
    <use xlink:href="#DejaVuSans-Bold-5d" transform="translate(2270.625 0)"/>
    <use xlink:href="#DejaVuSans-Bold-48" transform="translate(2328.828125 0)"/>
    <use xlink:href="#DejaVuSans-Bold-51" transform="translate(2396.65625 0)"/>
    <use xlink:href="#DejaVuSans-Bold-3" transform="translate(2467.84375 0)"/>
    <use xlink:href="#DejaVuSans-Bold-4b" transform="translate(2502.65625 0)"/>
    <use xlink:href="#DejaVuSans-Bold-52" transform="translate(2573.84375 0)"/>
    <use xlink:href="#DejaVuSans-Bold-51" transform="translate(2642.546875 0)"/>
    <use xlink:href="#DejaVuSans-Bold-48" transform="translate(2713.734375 0)"/>
    <use xlink:href="#DejaVuSans-Bold-56" transform="translate(2781.5625 0)"/>
    <use xlink:href="#DejaVuSans-Bold-57" transform="translate(2841.078125 0)"/>
    <use xlink:href="#DejaVuSans-Bold-3" transform="translate(2888.875 0)"/>
    <use xlink:href="#DejaVuSans-Bold-51" transform="translate(2923.6875 0)"/>
    <use xlink:href="#DejaVuSans-Bold-58" transform="translate(2994.875 0)"/>
    <use xlink:href="#DejaVuSans-Bold-4f" transform="translate(3066.0625 0)"/>
    <use xlink:href="#DejaVuSans-Bold-4f" transform="translate(3100.34375 0)"/>
    <use xlink:href="#DejaVuSans-Bold-56" transform="translate(3134.625 0)"/>
    <use xlink:href="#DejaVuSans-Bold-f" transform="translate(3194.140625 0)"/>
    <use xlink:href="#DejaVuSans-Bold-3" transform="translate(3232.125 0)"/>
    <use xlink:href="#DejaVuSans-Bold-14" transform="translate(3266.9375 0)"/>
    <use xlink:href="#DejaVuSans-Bold-3" transform="translate(3336.515625 0)"/>
    <use xlink:href="#DejaVuSans-Bold-45" transform="translate(3371.328125 0)"/>
    <use xlink:href="#DejaVuSans-Bold-44" transform="translate(3442.90625 0)"/>
    <use xlink:href="#DejaVuSans-Bold-46" transform="translate(3510.390625 0)"/>
    <use xlink:href="#DejaVuSans-Bold-4e" transform="translate(3569.671875 0)"/>
    <use xlink:href="#DejaVuSans-Bold-13ab" transform="translate(3636.171875 0)"/>
    <use xlink:href="#DejaVuSans-Bold-55" transform="translate(3710.296875 0)"/>
    <use xlink:href="#DejaVuSans-Bold-48" transform="translate(3759.609375 0)"/>
   </g>
  </g>
 </g>
 <defs>
  <clipPath id="p3b1665e4d9">
   <rect x="135.693125" y="73.539094" width="273.128255" height="233.228906"/>
  </clipPath>
  <clipPath id="pbbc8956ed3">
   <rect x="576.45362" y="73.539094" width="273.128255" height="233.228906"/>
  </clipPath>
 </defs>
</svg>
