<?xml version="1.0" encoding="utf-8" standalone="no"?>
<!DOCTYPE svg PUBLIC "-//W3C//DTD SVG 1.1//EN"
  "http://www.w3.org/Graphics/SVG/1.1/DTD/svg11.dtd">
<svg xmlns:xlink="http://www.w3.org/1999/xlink" width="670.5555pt" height="277.273719pt" viewBox="0 0 670.5555 277.273719" xmlns="http://www.w3.org/2000/svg" version="1.1">
 <metadata>
  <rdf:RDF xmlns:dc="http://purl.org/dc/elements/1.1/" xmlns:cc="http://creativecommons.org/ns#" xmlns:rdf="http://www.w3.org/1999/02/22-rdf-syntax-ns#">
   <cc:Work>
    <dc:type rdf:resource="http://purl.org/dc/dcmitype/StillImage"/>
    <dc:date>2026-07-03T19:58:27.174638</dc:date>
    <dc:format>image/svg+xml</dc:format>
    <dc:creator>
     <cc:Agent>
      <dc:title>Matplotlib v3.11.0, https://matplotlib.org/</dc:title>
     </cc:Agent>
    </dc:creator>
   </cc:Work>
  </rdf:RDF>
 </metadata>
 <defs>
  <style type="text/css">*{stroke-linejoin: round; stroke-linecap: butt}</style>
 </defs>
 <g id="figure_1">
  <g id="patch_1">
   <path d="M 0 277.273719 
L 670.5555 277.273719 
L 670.5555 0 
L 0 0 
z
" style="fill: #ffffff"/>
  </g>
  <g id="axes_1">
   <g id="patch_2">
    <path d="M 66.75775 236.667703 
L 349.38775 236.667703 
L 349.38775 93.058055 
L 66.75775 93.058055 
z
" style="fill: #ffffff"/>
   </g>
   <g id="patch_3">
    <path d="M 79.604568 236.667703 
L 170.775536 236.667703 
L 170.775536 99.896609 
L 79.604568 99.896609 
z
" clip-path="url(#p02501b0b7c)" style="fill: #9aa0a6"/>
   </g>
   <g id="patch_4">
    <path d="M 245.369964 236.667703 
L 336.540932 236.667703 
L 336.540932 162.065288 
L 245.369964 162.065288 
z
" clip-path="url(#p02501b0b7c)" style="fill: #d1495b"/>
   </g>
   <g id="matplotlib.axis_1">
    <g id="xtick_1">
     <g id="line2d_1">
      <defs>
       <path id="mfd207fa31c" d="M 0 0 
L 0 3.5 
" style="stroke: #000000; stroke-width: 0.8"/>
      </defs>
      <g>
       <use xlink:href="#mfd207fa31c" x="125.190052" y="236.667703" style="stroke: #000000; stroke-width: 0.8"/>
      </g>
     </g>
     <g id="text_1">
      <!-- scripted -->
      <g transform="translate(102.988099 253.127059) scale(0.11 -0.11)">
       <defs>
        <path id="DejaVuSans-56" d="M 2834 3397 
L 2834 2853 
Q 2591 2978 2328 3040 
Q 2066 3103 1784 3103 
Q 1356 3103 1142 2972 
Q 928 2841 928 2578 
Q 928 2378 1081 2264 
Q 1234 2150 1697 2047 
L 1894 2003 
Q 2506 1872 2764 1633 
Q 3022 1394 3022 966 
Q 3022 478 2636 193 
Q 2250 -91 1575 -91 
Q 1294 -91 989 -36 
Q 684 19 347 128 
L 347 722 
Q 666 556 975 473 
Q 1284 391 1588 391 
Q 1994 391 2212 530 
Q 2431 669 2431 922 
Q 2431 1156 2273 1281 
Q 2116 1406 1581 1522 
L 1381 1569 
Q 847 1681 609 1914 
Q 372 2147 372 2553 
Q 372 3047 722 3315 
Q 1072 3584 1716 3584 
Q 2034 3584 2315 3537 
Q 2597 3491 2834 3397 
z
" transform="scale(0.015625)"/>
        <path id="DejaVuSans-46" d="M 3122 3366 
L 3122 2828 
Q 2878 2963 2633 3030 
Q 2388 3097 2138 3097 
Q 1578 3097 1268 2742 
Q 959 2388 959 1747 
Q 959 1106 1268 751 
Q 1578 397 2138 397 
Q 2388 397 2633 464 
Q 2878 531 3122 666 
L 3122 134 
Q 2881 22 2623 -34 
Q 2366 -91 2075 -91 
Q 1284 -91 818 406 
Q 353 903 353 1747 
Q 353 2603 823 3093 
Q 1294 3584 2113 3584 
Q 2378 3584 2631 3529 
Q 2884 3475 3122 3366 
z
" transform="scale(0.015625)"/>
        <path id="DejaVuSans-55" d="M 2631 2963 
Q 2534 3019 2420 3045 
Q 2306 3072 2169 3072 
Q 1681 3072 1420 2755 
Q 1159 2438 1159 1844 
L 1159 0 
L 581 0 
L 581 3500 
L 1159 3500 
L 1159 2956 
Q 1341 3275 1631 3429 
Q 1922 3584 2338 3584 
Q 2397 3584 2469 3576 
Q 2541 3569 2628 3553 
L 2631 2963 
z
" transform="scale(0.015625)"/>
        <path id="DejaVuSans-4c" d="M 603 3500 
L 1178 3500 
L 1178 0 
L 603 0 
L 603 3500 
z
M 603 4863 
L 1178 4863 
L 1178 4134 
L 603 4134 
L 603 4863 
z
" transform="scale(0.015625)"/>
        <path id="DejaVuSans-53" d="M 1159 525 
L 1159 -1331 
L 581 -1331 
L 581 3500 
L 1159 3500 
L 1159 2969 
Q 1341 3281 1617 3432 
Q 1894 3584 2278 3584 
Q 2916 3584 3314 3078 
Q 3713 2572 3713 1747 
Q 3713 922 3314 415 
Q 2916 -91 2278 -91 
Q 1894 -91 1617 61 
Q 1341 213 1159 525 
z
M 3116 1747 
Q 3116 2381 2855 2742 
Q 2594 3103 2138 3103 
Q 1681 3103 1420 2742 
Q 1159 2381 1159 1747 
Q 1159 1113 1420 752 
Q 1681 391 2138 391 
Q 2594 391 2855 752 
Q 3116 1113 3116 1747 
z
" transform="scale(0.015625)"/>
        <path id="DejaVuSans-57" d="M 1172 4494 
L 1172 3500 
L 2356 3500 
L 2356 3053 
L 1172 3053 
L 1172 1153 
Q 1172 725 1289 603 
Q 1406 481 1766 481 
L 2356 481 
L 2356 0 
L 1766 0 
Q 1100 0 847 248 
Q 594 497 594 1153 
L 594 3053 
L 172 3053 
L 172 3500 
L 594 3500 
L 594 4494 
L 1172 4494 
z
" transform="scale(0.015625)"/>
        <path id="DejaVuSans-48" d="M 3597 1894 
L 3597 1613 
L 953 1613 
Q 991 1019 1311 708 
Q 1631 397 2203 397 
Q 2534 397 2845 478 
Q 3156 559 3463 722 
L 3463 178 
Q 3153 47 2828 -22 
Q 2503 -91 2169 -91 
Q 1331 -91 842 396 
Q 353 884 353 1716 
Q 353 2575 817 3079 
Q 1281 3584 2069 3584 
Q 2775 3584 3186 3129 
Q 3597 2675 3597 1894 
z
M 3022 2063 
Q 3016 2534 2758 2815 
Q 2500 3097 2075 3097 
Q 1594 3097 1305 2825 
Q 1016 2553 972 2059 
L 3022 2063 
z
" transform="scale(0.015625)"/>
        <path id="DejaVuSans-47" d="M 2906 2969 
L 2906 4863 
L 3481 4863 
L 3481 0 
L 2906 0 
L 2906 525 
Q 2725 213 2448 61 
Q 2172 -91 1784 -91 
Q 1150 -91 751 415 
Q 353 922 353 1747 
Q 353 2572 751 3078 
Q 1150 3584 1784 3584 
Q 2172 3584 2448 3432 
Q 2725 3281 2906 2969 
z
M 947 1747 
Q 947 1113 1208 752 
Q 1469 391 1925 391 
Q 2381 391 2643 752 
Q 2906 1113 2906 1747 
Q 2906 2381 2643 2742 
Q 2381 3103 1925 3103 
Q 1469 3103 1208 2742 
Q 947 2381 947 1747 
z
" transform="scale(0.015625)"/>
       </defs>
       <use xlink:href="#DejaVuSans-56"/>
       <use xlink:href="#DejaVuSans-46" transform="translate(52.09375 0)"/>
       <use xlink:href="#DejaVuSans-55" transform="translate(107.078125 0)"/>
       <use xlink:href="#DejaVuSans-4c" transform="translate(148.1875 0)"/>
       <use xlink:href="#DejaVuSans-53" transform="translate(175.96875 0)"/>
       <use xlink:href="#DejaVuSans-57" transform="translate(239.453125 0)"/>
       <use xlink:href="#DejaVuSans-48" transform="translate(278.65625 0)"/>
       <use xlink:href="#DejaVuSans-47" transform="translate(340.1875 0)"/>
      </g>
      <!-- reflexes -->
      <g transform="translate(103.57849 266.330066) scale(0.11 -0.11)">
       <defs>
        <path id="DejaVuSans-13b0" d="M 1831 4863 
L 3431 4863 
L 3431 0 
L 2853 0 
L 2853 4384 
L 1825 4384 
Q 1516 4384 1395 4259 
Q 1275 4134 1275 3809 
L 1275 3500 
L 2222 3500 
L 2222 3053 
L 1275 3053 
L 1275 0 
L 697 0 
L 697 3053 
L 147 3053 
L 147 3500 
L 697 3500 
L 697 3744 
Q 697 4328 969 4595 
Q 1241 4863 1831 4863 
z
" transform="scale(0.015625)"/>
        <path id="DejaVuSans-5b" d="M 3513 3500 
L 2247 1797 
L 3578 0 
L 2900 0 
L 1881 1375 
L 863 0 
L 184 0 
L 1544 1831 
L 300 3500 
L 978 3500 
L 1906 2253 
L 2834 3500 
L 3513 3500 
z
" transform="scale(0.015625)"/>
       </defs>
       <use xlink:href="#DejaVuSans-55"/>
       <use xlink:href="#DejaVuSans-48" transform="translate(38.90625 0)"/>
       <use xlink:href="#DejaVuSans-13b0" transform="translate(100.4375 0)"/>
       <use xlink:href="#DejaVuSans-48" transform="translate(163.421875 0)"/>
       <use xlink:href="#DejaVuSans-5b" transform="translate(223.203125 0)"/>
       <use xlink:href="#DejaVuSans-48" transform="translate(279.3125 0)"/>
       <use xlink:href="#DejaVuSans-56" transform="translate(340.84375 0)"/>
      </g>
     </g>
    </g>
    <g id="xtick_2">
     <g id="line2d_2">
      <g>
       <use xlink:href="#mfd207fa31c" x="290.955448" y="236.667703" style="stroke: #000000; stroke-width: 0.8"/>
      </g>
     </g>
     <g id="text_2">
      <!-- LLM picks -->
      <g transform="translate(264.239198 253.127059) scale(0.11 -0.11)">
       <defs>
        <path id="DejaVuSans-2f" d="M 628 4666 
L 1259 4666 
L 1259 531 
L 3531 531 
L 3531 0 
L 628 0 
L 628 4666 
z
" transform="scale(0.015625)"/>
        <path id="DejaVuSans-30" d="M 628 4666 
L 1569 4666 
L 2759 1491 
L 3956 4666 
L 4897 4666 
L 4897 0 
L 4281 0 
L 4281 4097 
L 3078 897 
L 2444 897 
L 1241 4097 
L 1241 0 
L 628 0 
L 628 4666 
z
" transform="scale(0.015625)"/>
        <path id="DejaVuSans-3" transform="scale(0.015625)"/>
        <path id="DejaVuSans-4e" d="M 581 4863 
L 1159 4863 
L 1159 1991 
L 2875 3500 
L 3609 3500 
L 1753 1863 
L 3688 0 
L 2938 0 
L 1159 1709 
L 1159 0 
L 581 0 
L 581 4863 
z
" transform="scale(0.015625)"/>
       </defs>
       <use xlink:href="#DejaVuSans-2f"/>
       <use xlink:href="#DejaVuSans-2f" transform="translate(55.71875 0)"/>
       <use xlink:href="#DejaVuSans-30" transform="translate(111.4375 0)"/>
       <use xlink:href="#DejaVuSans-3" transform="translate(197.71875 0)"/>
       <use xlink:href="#DejaVuSans-53" transform="translate(229.5 0)"/>
       <use xlink:href="#DejaVuSans-4c" transform="translate(292.984375 0)"/>
       <use xlink:href="#DejaVuSans-46" transform="translate(320.765625 0)"/>
       <use xlink:href="#DejaVuSans-4e" transform="translate(375.75 0)"/>
       <use xlink:href="#DejaVuSans-56" transform="translate(433.65625 0)"/>
      </g>
      <!-- the tactic -->
      <g transform="translate(264.922401 266.330066) scale(0.11 -0.11)">
       <defs>
        <path id="DejaVuSans-4b" d="M 3513 2113 
L 3513 0 
L 2938 0 
L 2938 2094 
Q 2938 2591 2744 2837 
Q 2550 3084 2163 3084 
Q 1697 3084 1428 2787 
Q 1159 2491 1159 1978 
L 1159 0 
L 581 0 
L 581 4863 
L 1159 4863 
L 1159 2956 
Q 1366 3272 1645 3428 
Q 1925 3584 2291 3584 
Q 2894 3584 3203 3211 
Q 3513 2838 3513 2113 
z
" transform="scale(0.015625)"/>
        <path id="DejaVuSans-44" d="M 2194 1759 
Q 1497 1759 1228 1600 
Q 959 1441 959 1056 
Q 959 750 1161 570 
Q 1363 391 1709 391 
Q 2188 391 2477 730 
Q 2766 1069 2766 1631 
L 2766 1759 
L 2194 1759 
z
M 3341 1997 
L 3341 0 
L 2766 0 
L 2766 531 
Q 2569 213 2275 61 
Q 1981 -91 1556 -91 
Q 1019 -91 701 211 
Q 384 513 384 1019 
Q 384 1609 779 1909 
Q 1175 2209 1959 2209 
L 2766 2209 
L 2766 2266 
Q 2766 2663 2505 2880 
Q 2244 3097 1772 3097 
Q 1472 3097 1187 3025 
Q 903 2953 641 2809 
L 641 3341 
Q 956 3463 1253 3523 
Q 1550 3584 1831 3584 
Q 2591 3584 2966 3190 
Q 3341 2797 3341 1997 
z
" transform="scale(0.015625)"/>
       </defs>
       <use xlink:href="#DejaVuSans-57"/>
       <use xlink:href="#DejaVuSans-4b" transform="translate(39.203125 0)"/>
       <use xlink:href="#DejaVuSans-48" transform="translate(102.578125 0)"/>
       <use xlink:href="#DejaVuSans-3" transform="translate(164.109375 0)"/>
       <use xlink:href="#DejaVuSans-57" transform="translate(195.890625 0)"/>
       <use xlink:href="#DejaVuSans-44" transform="translate(235.09375 0)"/>
       <use xlink:href="#DejaVuSans-46" transform="translate(296.375 0)"/>
       <use xlink:href="#DejaVuSans-57" transform="translate(351.359375 0)"/>
       <use xlink:href="#DejaVuSans-4c" transform="translate(390.5625 0)"/>
       <use xlink:href="#DejaVuSans-46" transform="translate(418.34375 0)"/>
      </g>
     </g>
    </g>
   </g>
   <g id="matplotlib.axis_2">
    <g id="ytick_1">
     <g id="line2d_3">
      <defs>
       <path id="mf8d556199d" d="M 0 0 
L -3.5 0 
" style="stroke: #000000; stroke-width: 0.8"/>
      </defs>
      <g>
       <use xlink:href="#mf8d556199d" x="66.75775" y="236.667703" style="stroke: #000000; stroke-width: 0.8"/>
      </g>
     </g>
     <g id="text_3">
      <!-- 0 -->
      <g transform="translate(52.759 240.846414) scale(0.11 -0.11)">
       <defs>
        <path id="DejaVuSans-13" d="M 2034 4250 
Q 1547 4250 1301 3770 
Q 1056 3291 1056 2328 
Q 1056 1369 1301 889 
Q 1547 409 2034 409 
Q 2525 409 2770 889 
Q 3016 1369 3016 2328 
Q 3016 3291 2770 3770 
Q 2525 4250 2034 4250 
z
M 2034 4750 
Q 2819 4750 3233 4129 
Q 3647 3509 3647 2328 
Q 3647 1150 3233 529 
Q 2819 -91 2034 -91 
Q 1250 -91 836 529 
Q 422 1150 422 2328 
Q 422 3509 836 4129 
Q 1250 4750 2034 4750 
z
" transform="scale(0.015625)"/>
       </defs>
       <use xlink:href="#DejaVuSans-13"/>
      </g>
     </g>
    </g>
    <g id="ytick_2">
     <g id="line2d_4">
      <g>
       <use xlink:href="#mf8d556199d" x="66.75775" y="198.989716" style="stroke: #000000; stroke-width: 0.8"/>
      </g>
     </g>
     <g id="text_4">
      <!-- 100 -->
      <g transform="translate(38.7615 203.168427) scale(0.11 -0.11)">
       <defs>
        <path id="DejaVuSans-14" d="M 794 531 
L 1825 531 
L 1825 4091 
L 703 3866 
L 703 4441 
L 1819 4666 
L 2450 4666 
L 2450 531 
L 3481 531 
L 3481 0 
L 794 0 
L 794 531 
z
" transform="scale(0.015625)"/>
       </defs>
       <use xlink:href="#DejaVuSans-14"/>
       <use xlink:href="#DejaVuSans-13" transform="translate(63.625 0)"/>
       <use xlink:href="#DejaVuSans-13" transform="translate(127.25 0)"/>
      </g>
     </g>
    </g>
    <g id="ytick_3">
     <g id="line2d_5">
      <g>
       <use xlink:href="#mf8d556199d" x="66.75775" y="161.311729" style="stroke: #000000; stroke-width: 0.8"/>
      </g>
     </g>
     <g id="text_5">
      <!-- 200 -->
      <g transform="translate(38.7615 165.49044) scale(0.11 -0.11)">
       <defs>
        <path id="DejaVuSans-15" d="M 1228 531 
L 3431 531 
L 3431 0 
L 469 0 
L 469 531 
Q 828 903 1448 1529 
Q 2069 2156 2228 2338 
Q 2531 2678 2651 2914 
Q 2772 3150 2772 3378 
Q 2772 3750 2511 3984 
Q 2250 4219 1831 4219 
Q 1534 4219 1204 4116 
Q 875 4013 500 3803 
L 500 4441 
Q 881 4594 1212 4672 
Q 1544 4750 1819 4750 
Q 2544 4750 2975 4387 
Q 3406 4025 3406 3419 
Q 3406 3131 3298 2873 
Q 3191 2616 2906 2266 
Q 2828 2175 2409 1742 
Q 1991 1309 1228 531 
z
" transform="scale(0.015625)"/>
       </defs>
       <use xlink:href="#DejaVuSans-15"/>
       <use xlink:href="#DejaVuSans-13" transform="translate(63.625 0)"/>
       <use xlink:href="#DejaVuSans-13" transform="translate(127.25 0)"/>
      </g>
     </g>
    </g>
    <g id="ytick_4">
     <g id="line2d_6">
      <g>
       <use xlink:href="#mf8d556199d" x="66.75775" y="123.633741" style="stroke: #000000; stroke-width: 0.8"/>
      </g>
     </g>
     <g id="text_6">
      <!-- 300 -->
      <g transform="translate(38.7615 127.812452) scale(0.11 -0.11)">
       <defs>
        <path id="DejaVuSans-16" d="M 2597 2516 
Q 3050 2419 3304 2112 
Q 3559 1806 3559 1356 
Q 3559 666 3084 287 
Q 2609 -91 1734 -91 
Q 1441 -91 1130 -33 
Q 819 25 488 141 
L 488 750 
Q 750 597 1062 519 
Q 1375 441 1716 441 
Q 2309 441 2620 675 
Q 2931 909 2931 1356 
Q 2931 1769 2642 2001 
Q 2353 2234 1838 2234 
L 1294 2234 
L 1294 2753 
L 1863 2753 
Q 2328 2753 2575 2939 
Q 2822 3125 2822 3475 
Q 2822 3834 2567 4026 
Q 2313 4219 1838 4219 
Q 1578 4219 1281 4162 
Q 984 4106 628 3988 
L 628 4550 
Q 988 4650 1302 4700 
Q 1616 4750 1894 4750 
Q 2613 4750 3031 4423 
Q 3450 4097 3450 3541 
Q 3450 3153 3228 2886 
Q 3006 2619 2597 2516 
z
" transform="scale(0.015625)"/>
       </defs>
       <use xlink:href="#DejaVuSans-16"/>
       <use xlink:href="#DejaVuSans-13" transform="translate(63.625 0)"/>
       <use xlink:href="#DejaVuSans-13" transform="translate(127.25 0)"/>
      </g>
     </g>
    </g>
    <g id="text_7">
     <!-- median survival (steps) -->
     <g transform="translate(32.118922 229.578973) rotate(-90) scale(0.11 -0.11)">
      <defs>
       <path id="DejaVuSans-50" d="M 3328 2828 
Q 3544 3216 3844 3400 
Q 4144 3584 4550 3584 
Q 5097 3584 5394 3201 
Q 5691 2819 5691 2113 
L 5691 0 
L 5113 0 
L 5113 2094 
Q 5113 2597 4934 2840 
Q 4756 3084 4391 3084 
Q 3944 3084 3684 2787 
Q 3425 2491 3425 1978 
L 3425 0 
L 2847 0 
L 2847 2094 
Q 2847 2600 2669 2842 
Q 2491 3084 2119 3084 
Q 1678 3084 1418 2786 
Q 1159 2488 1159 1978 
L 1159 0 
L 581 0 
L 581 3500 
L 1159 3500 
L 1159 2956 
Q 1356 3278 1631 3431 
Q 1906 3584 2284 3584 
Q 2666 3584 2933 3390 
Q 3200 3197 3328 2828 
z
" transform="scale(0.015625)"/>
       <path id="DejaVuSans-51" d="M 3513 2113 
L 3513 0 
L 2938 0 
L 2938 2094 
Q 2938 2591 2744 2837 
Q 2550 3084 2163 3084 
Q 1697 3084 1428 2787 
Q 1159 2491 1159 1978 
L 1159 0 
L 581 0 
L 581 3500 
L 1159 3500 
L 1159 2956 
Q 1366 3272 1645 3428 
Q 1925 3584 2291 3584 
Q 2894 3584 3203 3211 
Q 3513 2838 3513 2113 
z
" transform="scale(0.015625)"/>
       <path id="DejaVuSans-58" d="M 544 1381 
L 544 3500 
L 1119 3500 
L 1119 1403 
Q 1119 906 1312 657 
Q 1506 409 1894 409 
Q 2359 409 2629 706 
Q 2900 1003 2900 1516 
L 2900 3500 
L 3475 3500 
L 3475 0 
L 2900 0 
L 2900 538 
Q 2691 219 2414 64 
Q 2138 -91 1772 -91 
Q 1169 -91 856 284 
Q 544 659 544 1381 
z
M 1991 3584 
L 1991 3584 
z
" transform="scale(0.015625)"/>
       <path id="DejaVuSans-59" d="M 191 3500 
L 800 3500 
L 1894 563 
L 2988 3500 
L 3597 3500 
L 2284 0 
L 1503 0 
L 191 3500 
z
" transform="scale(0.015625)"/>
       <path id="DejaVuSans-4f" d="M 603 4863 
L 1178 4863 
L 1178 0 
L 603 0 
L 603 4863 
z
" transform="scale(0.015625)"/>
       <path id="DejaVuSans-b" d="M 1984 4856 
Q 1566 4138 1362 3434 
Q 1159 2731 1159 2009 
Q 1159 1288 1364 580 
Q 1569 -128 1984 -844 
L 1484 -844 
Q 1016 -109 783 600 
Q 550 1309 550 2009 
Q 550 2706 781 3412 
Q 1013 4119 1484 4856 
L 1984 4856 
z
" transform="scale(0.015625)"/>
       <path id="DejaVuSans-c" d="M 513 4856 
L 1013 4856 
Q 1481 4119 1714 3412 
Q 1947 2706 1947 2009 
Q 1947 1309 1714 600 
Q 1481 -109 1013 -844 
L 513 -844 
Q 928 -128 1133 580 
Q 1338 1288 1338 2009 
Q 1338 2731 1133 3434 
Q 928 4138 513 4856 
z
" transform="scale(0.015625)"/>
      </defs>
      <use xlink:href="#DejaVuSans-50"/>
      <use xlink:href="#DejaVuSans-48" transform="translate(97.40625 0)"/>
      <use xlink:href="#DejaVuSans-47" transform="translate(158.9375 0)"/>
      <use xlink:href="#DejaVuSans-4c" transform="translate(222.421875 0)"/>
      <use xlink:href="#DejaVuSans-44" transform="translate(250.203125 0)"/>
      <use xlink:href="#DejaVuSans-51" transform="translate(311.484375 0)"/>
      <use xlink:href="#DejaVuSans-3" transform="translate(374.859375 0)"/>
      <use xlink:href="#DejaVuSans-56" transform="translate(406.640625 0)"/>
      <use xlink:href="#DejaVuSans-58" transform="translate(458.734375 0)"/>
      <use xlink:href="#DejaVuSans-55" transform="translate(522.109375 0)"/>
      <use xlink:href="#DejaVuSans-59" transform="translate(563.21875 0)"/>
      <use xlink:href="#DejaVuSans-4c" transform="translate(622.40625 0)"/>
      <use xlink:href="#DejaVuSans-59" transform="translate(650.1875 0)"/>
      <use xlink:href="#DejaVuSans-44" transform="translate(709.375 0)"/>
      <use xlink:href="#DejaVuSans-4f" transform="translate(770.65625 0)"/>
      <use xlink:href="#DejaVuSans-3" transform="translate(798.4375 0)"/>
      <use xlink:href="#DejaVuSans-b" transform="translate(830.21875 0)"/>
      <use xlink:href="#DejaVuSans-56" transform="translate(869.234375 0)"/>
      <use xlink:href="#DejaVuSans-57" transform="translate(921.328125 0)"/>
      <use xlink:href="#DejaVuSans-48" transform="translate(960.53125 0)"/>
      <use xlink:href="#DejaVuSans-53" transform="translate(1022.0625 0)"/>
      <use xlink:href="#DejaVuSans-56" transform="translate(1085.546875 0)"/>
      <use xlink:href="#DejaVuSans-c" transform="translate(1137.640625 0)"/>
     </g>
    </g>
   </g>
   <g id="patch_5">
    <path d="M 66.75775 236.667703 
L 66.75775 93.058055 
" style="fill: none; stroke: #cccccc; stroke-width: 0.8; stroke-linejoin: miter; stroke-linecap: square"/>
   </g>
   <g id="patch_6">
    <path d="M 66.75775 236.667703 
L 349.38775 236.667703 
" style="fill: none; stroke: #cccccc; stroke-width: 0.8; stroke-linejoin: miter; stroke-linecap: square"/>
   </g>
   <g id="text_8">
    <!-- 363 -->
    <g transform="translate(113.709661 97.254031) scale(0.11 -0.11)">
     <defs>
      <path id="DejaVuSans-Bold-16" d="M 2981 2516 
Q 3453 2394 3698 2092 
Q 3944 1791 3944 1325 
Q 3944 631 3412 270 
Q 2881 -91 1863 -91 
Q 1503 -91 1142 -33 
Q 781 25 428 141 
L 428 1069 
Q 766 900 1098 814 
Q 1431 728 1753 728 
Q 2231 728 2486 893 
Q 2741 1059 2741 1369 
Q 2741 1688 2480 1852 
Q 2219 2016 1709 2016 
L 1228 2016 
L 1228 2791 
L 1734 2791 
Q 2188 2791 2409 2933 
Q 2631 3075 2631 3366 
Q 2631 3634 2415 3781 
Q 2200 3928 1806 3928 
Q 1516 3928 1219 3862 
Q 922 3797 628 3669 
L 628 4550 
Q 984 4650 1334 4700 
Q 1684 4750 2022 4750 
Q 2931 4750 3382 4451 
Q 3834 4153 3834 3553 
Q 3834 3144 3618 2883 
Q 3403 2622 2981 2516 
z
" transform="scale(0.015625)"/>
      <path id="DejaVuSans-Bold-19" d="M 2316 2303 
Q 2000 2303 1842 2098 
Q 1684 1894 1684 1484 
Q 1684 1075 1842 870 
Q 2000 666 2316 666 
Q 2634 666 2792 870 
Q 2950 1075 2950 1484 
Q 2950 1894 2792 2098 
Q 2634 2303 2316 2303 
z
M 3803 4544 
L 3803 3681 
Q 3506 3822 3243 3889 
Q 2981 3956 2731 3956 
Q 2194 3956 1894 3657 
Q 1594 3359 1544 2772 
Q 1750 2925 1990 3001 
Q 2231 3078 2516 3078 
Q 3231 3078 3670 2659 
Q 4109 2241 4109 1563 
Q 4109 813 3618 361 
Q 3128 -91 2303 -91 
Q 1394 -91 895 523 
Q 397 1138 397 2266 
Q 397 3422 980 4083 
Q 1563 4744 2578 4744 
Q 2900 4744 3203 4694 
Q 3506 4644 3803 4544 
z
" transform="scale(0.015625)"/>
     </defs>
     <use xlink:href="#DejaVuSans-Bold-16"/>
     <use xlink:href="#DejaVuSans-Bold-19" transform="translate(69.578125 0)"/>
     <use xlink:href="#DejaVuSans-Bold-16" transform="translate(139.15625 0)"/>
    </g>
   </g>
   <g id="text_9">
    <!-- 198 -->
    <g transform="translate(279.475057 159.42271) scale(0.11 -0.11)">
     <defs>
      <path id="DejaVuSans-Bold-14" d="M 750 831 
L 1813 831 
L 1813 3847 
L 722 3622 
L 722 4441 
L 1806 4666 
L 2950 4666 
L 2950 831 
L 4013 831 
L 4013 0 
L 750 0 
L 750 831 
z
" transform="scale(0.015625)"/>
      <path id="DejaVuSans-Bold-1c" d="M 641 103 
L 641 966 
Q 928 831 1190 764 
Q 1453 697 1709 697 
Q 2247 697 2547 995 
Q 2847 1294 2900 1881 
Q 2688 1725 2447 1647 
Q 2206 1569 1925 1569 
Q 1209 1569 770 1986 
Q 331 2403 331 3084 
Q 331 3838 820 4291 
Q 1309 4744 2131 4744 
Q 3044 4744 3544 4128 
Q 4044 3513 4044 2388 
Q 4044 1231 3459 570 
Q 2875 -91 1856 -91 
Q 1528 -91 1228 -42 
Q 928 6 641 103 
z
M 2125 2350 
Q 2441 2350 2600 2554 
Q 2759 2759 2759 3169 
Q 2759 3575 2600 3781 
Q 2441 3988 2125 3988 
Q 1809 3988 1650 3781 
Q 1491 3575 1491 3169 
Q 1491 2759 1650 2554 
Q 1809 2350 2125 2350 
z
" transform="scale(0.015625)"/>
      <path id="DejaVuSans-Bold-1b" d="M 2228 2088 
Q 1891 2088 1709 1903 
Q 1528 1719 1528 1375 
Q 1528 1031 1709 848 
Q 1891 666 2228 666 
Q 2563 666 2741 848 
Q 2919 1031 2919 1375 
Q 2919 1722 2741 1905 
Q 2563 2088 2228 2088 
z
M 1350 2484 
Q 925 2613 709 2878 
Q 494 3144 494 3541 
Q 494 4131 934 4440 
Q 1375 4750 2228 4750 
Q 3075 4750 3515 4442 
Q 3956 4134 3956 3541 
Q 3956 3144 3739 2878 
Q 3522 2613 3097 2484 
Q 3572 2353 3814 2058 
Q 4056 1763 4056 1313 
Q 4056 619 3595 264 
Q 3134 -91 2228 -91 
Q 1319 -91 855 264 
Q 391 619 391 1313 
Q 391 1763 633 2058 
Q 875 2353 1350 2484 
z
M 1631 3419 
Q 1631 3141 1786 2991 
Q 1941 2841 2228 2841 
Q 2509 2841 2662 2991 
Q 2816 3141 2816 3419 
Q 2816 3697 2662 3845 
Q 2509 3994 2228 3994 
Q 1941 3994 1786 3844 
Q 1631 3694 1631 3419 
z
" transform="scale(0.015625)"/>
     </defs>
     <use xlink:href="#DejaVuSans-Bold-14"/>
     <use xlink:href="#DejaVuSans-Bold-1c" transform="translate(69.578125 0)"/>
     <use xlink:href="#DejaVuSans-Bold-1b" transform="translate(139.15625 0)"/>
    </g>
   </g>
   <g id="text_10">
    <!-- Hand the decisions to an LLM -->
    <g transform="translate(98.307531 71.214445) scale(0.132 -0.132)">
     <defs>
      <path id="DejaVuSans-Bold-2b" d="M 588 4666 
L 1791 4666 
L 1791 2888 
L 3566 2888 
L 3566 4666 
L 4769 4666 
L 4769 0 
L 3566 0 
L 3566 1978 
L 1791 1978 
L 1791 0 
L 588 0 
L 588 4666 
z
" transform="scale(0.015625)"/>
      <path id="DejaVuSans-Bold-44" d="M 2106 1575 
Q 1756 1575 1579 1456 
Q 1403 1338 1403 1106 
Q 1403 894 1545 773 
Q 1688 653 1941 653 
Q 2256 653 2472 879 
Q 2688 1106 2688 1447 
L 2688 1575 
L 2106 1575 
z
M 3816 1997 
L 3816 0 
L 2688 0 
L 2688 519 
Q 2463 200 2181 54 
Q 1900 -91 1497 -91 
Q 953 -91 614 226 
Q 275 544 275 1050 
Q 275 1666 698 1953 
Q 1122 2241 2028 2241 
L 2688 2241 
L 2688 2328 
Q 2688 2594 2478 2717 
Q 2269 2841 1825 2841 
Q 1466 2841 1156 2769 
Q 847 2697 581 2553 
L 581 3406 
Q 941 3494 1303 3539 
Q 1666 3584 2028 3584 
Q 2975 3584 3395 3211 
Q 3816 2838 3816 1997 
z
" transform="scale(0.015625)"/>
      <path id="DejaVuSans-Bold-51" d="M 4056 2131 
L 4056 0 
L 2931 0 
L 2931 347 
L 2931 1631 
Q 2931 2084 2911 2256 
Q 2891 2428 2841 2509 
Q 2775 2619 2662 2680 
Q 2550 2741 2406 2741 
Q 2056 2741 1856 2470 
Q 1656 2200 1656 1722 
L 1656 0 
L 538 0 
L 538 3500 
L 1656 3500 
L 1656 2988 
Q 1909 3294 2193 3439 
Q 2478 3584 2822 3584 
Q 3428 3584 3742 3212 
Q 4056 2841 4056 2131 
z
" transform="scale(0.015625)"/>
      <path id="DejaVuSans-Bold-47" d="M 2919 2988 
L 2919 4863 
L 4044 4863 
L 4044 0 
L 2919 0 
L 2919 506 
Q 2688 197 2409 53 
Q 2131 -91 1766 -91 
Q 1119 -91 703 423 
Q 288 938 288 1747 
Q 288 2556 703 3070 
Q 1119 3584 1766 3584 
Q 2128 3584 2408 3439 
Q 2688 3294 2919 2988 
z
M 2181 722 
Q 2541 722 2730 984 
Q 2919 1247 2919 1747 
Q 2919 2247 2730 2509 
Q 2541 2772 2181 2772 
Q 1825 2772 1636 2509 
Q 1447 2247 1447 1747 
Q 1447 1247 1636 984 
Q 1825 722 2181 722 
z
" transform="scale(0.015625)"/>
      <path id="DejaVuSans-Bold-3" transform="scale(0.015625)"/>
      <path id="DejaVuSans-Bold-57" d="M 1759 4494 
L 1759 3500 
L 2913 3500 
L 2913 2700 
L 1759 2700 
L 1759 1216 
Q 1759 972 1856 886 
Q 1953 800 2241 800 
L 2816 800 
L 2816 0 
L 1856 0 
Q 1194 0 917 276 
Q 641 553 641 1216 
L 641 2700 
L 84 2700 
L 84 3500 
L 641 3500 
L 641 4494 
L 1759 4494 
z
" transform="scale(0.015625)"/>
      <path id="DejaVuSans-Bold-4b" d="M 4056 2131 
L 4056 0 
L 2931 0 
L 2931 347 
L 2931 1625 
Q 2931 2084 2911 2256 
Q 2891 2428 2841 2509 
Q 2775 2619 2662 2680 
Q 2550 2741 2406 2741 
Q 2056 2741 1856 2470 
Q 1656 2200 1656 1722 
L 1656 0 
L 538 0 
L 538 4863 
L 1656 4863 
L 1656 2988 
Q 1909 3294 2193 3439 
Q 2478 3584 2822 3584 
Q 3428 3584 3742 3212 
Q 4056 2841 4056 2131 
z
" transform="scale(0.015625)"/>
      <path id="DejaVuSans-Bold-48" d="M 4031 1759 
L 4031 1441 
L 1416 1441 
Q 1456 1047 1700 850 
Q 1944 653 2381 653 
Q 2734 653 3104 758 
Q 3475 863 3866 1075 
L 3866 213 
Q 3469 63 3072 -14 
Q 2675 -91 2278 -91 
Q 1328 -91 801 392 
Q 275 875 275 1747 
Q 275 2603 792 3093 
Q 1309 3584 2216 3584 
Q 3041 3584 3536 3087 
Q 4031 2591 4031 1759 
z
M 2881 2131 
Q 2881 2450 2695 2645 
Q 2509 2841 2209 2841 
Q 1884 2841 1681 2658 
Q 1478 2475 1428 2131 
L 2881 2131 
z
" transform="scale(0.015625)"/>
      <path id="DejaVuSans-Bold-46" d="M 3366 3391 
L 3366 2478 
Q 3138 2634 2908 2709 
Q 2678 2784 2431 2784 
Q 1963 2784 1702 2511 
Q 1441 2238 1441 1747 
Q 1441 1256 1702 982 
Q 1963 709 2431 709 
Q 2694 709 2930 787 
Q 3166 866 3366 1019 
L 3366 103 
Q 3103 6 2833 -42 
Q 2563 -91 2291 -91 
Q 1344 -91 809 395 
Q 275 881 275 1747 
Q 275 2613 809 3098 
Q 1344 3584 2291 3584 
Q 2566 3584 2833 3536 
Q 3100 3488 3366 3391 
z
" transform="scale(0.015625)"/>
      <path id="DejaVuSans-Bold-4c" d="M 538 3500 
L 1656 3500 
L 1656 0 
L 538 0 
L 538 3500 
z
M 538 4863 
L 1656 4863 
L 1656 3950 
L 538 3950 
L 538 4863 
z
" transform="scale(0.015625)"/>
      <path id="DejaVuSans-Bold-56" d="M 3272 3391 
L 3272 2541 
Q 2913 2691 2578 2766 
Q 2244 2841 1947 2841 
Q 1628 2841 1473 2761 
Q 1319 2681 1319 2516 
Q 1319 2381 1436 2309 
Q 1553 2238 1856 2203 
L 2053 2175 
Q 2913 2066 3209 1816 
Q 3506 1566 3506 1031 
Q 3506 472 3093 190 
Q 2681 -91 1863 -91 
Q 1516 -91 1145 -36 
Q 775 19 384 128 
L 384 978 
Q 719 816 1070 734 
Q 1422 653 1784 653 
Q 2113 653 2278 743 
Q 2444 834 2444 1013 
Q 2444 1163 2330 1236 
Q 2216 1309 1875 1350 
L 1678 1375 
Q 931 1469 631 1722 
Q 331 1975 331 2491 
Q 331 3047 712 3315 
Q 1094 3584 1881 3584 
Q 2191 3584 2531 3537 
Q 2872 3491 3272 3391 
z
" transform="scale(0.015625)"/>
      <path id="DejaVuSans-Bold-52" d="M 2203 2784 
Q 1831 2784 1636 2517 
Q 1441 2250 1441 1747 
Q 1441 1244 1636 976 
Q 1831 709 2203 709 
Q 2569 709 2762 976 
Q 2956 1244 2956 1747 
Q 2956 2250 2762 2517 
Q 2569 2784 2203 2784 
z
M 2203 3584 
Q 3106 3584 3614 3096 
Q 4122 2609 4122 1747 
Q 4122 884 3614 396 
Q 3106 -91 2203 -91 
Q 1297 -91 786 396 
Q 275 884 275 1747 
Q 275 2609 786 3096 
Q 1297 3584 2203 3584 
z
" transform="scale(0.015625)"/>
      <path id="DejaVuSans-Bold-2f" d="M 588 4666 
L 1791 4666 
L 1791 909 
L 3903 909 
L 3903 0 
L 588 0 
L 588 4666 
z
" transform="scale(0.015625)"/>
      <path id="DejaVuSans-Bold-30" d="M 588 4666 
L 2119 4666 
L 3181 2169 
L 4250 4666 
L 5778 4666 
L 5778 0 
L 4641 0 
L 4641 3413 
L 3566 897 
L 2803 897 
L 1728 3413 
L 1728 0 
L 588 0 
L 588 4666 
z
" transform="scale(0.015625)"/>
     </defs>
     <use xlink:href="#DejaVuSans-Bold-2b"/>
     <use xlink:href="#DejaVuSans-Bold-44" transform="translate(83.6875 0)"/>
     <use xlink:href="#DejaVuSans-Bold-51" transform="translate(151.171875 0)"/>
     <use xlink:href="#DejaVuSans-Bold-47" transform="translate(222.359375 0)"/>
     <use xlink:href="#DejaVuSans-Bold-3" transform="translate(293.9375 0)"/>
     <use xlink:href="#DejaVuSans-Bold-57" transform="translate(328.75 0)"/>
     <use xlink:href="#DejaVuSans-Bold-4b" transform="translate(376.546875 0)"/>
     <use xlink:href="#DejaVuSans-Bold-48" transform="translate(447.734375 0)"/>
     <use xlink:href="#DejaVuSans-Bold-3" transform="translate(515.5625 0)"/>
     <use xlink:href="#DejaVuSans-Bold-47" transform="translate(550.375 0)"/>
     <use xlink:href="#DejaVuSans-Bold-48" transform="translate(621.953125 0)"/>
     <use xlink:href="#DejaVuSans-Bold-46" transform="translate(689.78125 0)"/>
     <use xlink:href="#DejaVuSans-Bold-4c" transform="translate(749.0625 0)"/>
     <use xlink:href="#DejaVuSans-Bold-56" transform="translate(783.34375 0)"/>
     <use xlink:href="#DejaVuSans-Bold-4c" transform="translate(842.859375 0)"/>
     <use xlink:href="#DejaVuSans-Bold-52" transform="translate(877.140625 0)"/>
     <use xlink:href="#DejaVuSans-Bold-51" transform="translate(945.84375 0)"/>
     <use xlink:href="#DejaVuSans-Bold-56" transform="translate(1017.03125 0)"/>
     <use xlink:href="#DejaVuSans-Bold-3" transform="translate(1076.546875 0)"/>
     <use xlink:href="#DejaVuSans-Bold-57" transform="translate(1111.359375 0)"/>
     <use xlink:href="#DejaVuSans-Bold-52" transform="translate(1159.15625 0)"/>
     <use xlink:href="#DejaVuSans-Bold-3" transform="translate(1227.859375 0)"/>
     <use xlink:href="#DejaVuSans-Bold-44" transform="translate(1262.671875 0)"/>
     <use xlink:href="#DejaVuSans-Bold-51" transform="translate(1330.15625 0)"/>
     <use xlink:href="#DejaVuSans-Bold-3" transform="translate(1401.34375 0)"/>
     <use xlink:href="#DejaVuSans-Bold-2f" transform="translate(1436.15625 0)"/>
     <use xlink:href="#DejaVuSans-Bold-2f" transform="translate(1499.875 0)"/>
     <use xlink:href="#DejaVuSans-Bold-30" transform="translate(1563.59375 0)"/>
    </g>
    <!-- (gemma ≈ GPT-5: same failure) -->
    <g transform="translate(92.136531 87.058055) scale(0.132 -0.132)">
     <defs>
      <path id="DejaVuSans-Bold-b" d="M 2413 -844 
L 1484 -844 
Q 1006 -72 778 623 
Q 550 1319 550 2003 
Q 550 2688 779 3389 
Q 1009 4091 1484 4856 
L 2413 4856 
Q 2013 4116 1813 3408 
Q 1613 2700 1613 2009 
Q 1613 1319 1811 609 
Q 2009 -100 2413 -844 
z
" transform="scale(0.015625)"/>
      <path id="DejaVuSans-Bold-4a" d="M 2919 594 
Q 2688 288 2409 144 
Q 2131 0 1766 0 
Q 1125 0 706 504 
Q 288 1009 288 1791 
Q 288 2575 706 3076 
Q 1125 3578 1766 3578 
Q 2131 3578 2409 3434 
Q 2688 3291 2919 2981 
L 2919 3500 
L 4044 3500 
L 4044 353 
Q 4044 -491 3511 -936 
Q 2978 -1381 1966 -1381 
Q 1638 -1381 1331 -1331 
Q 1025 -1281 716 -1178 
L 716 -306 
Q 1009 -475 1290 -558 
Q 1572 -641 1856 -641 
Q 2406 -641 2662 -400 
Q 2919 -159 2919 353 
L 2919 594 
z
M 2181 2772 
Q 1834 2772 1640 2515 
Q 1447 2259 1447 1791 
Q 1447 1309 1634 1061 
Q 1822 813 2181 813 
Q 2531 813 2725 1069 
Q 2919 1325 2919 1791 
Q 2919 2259 2725 2515 
Q 2531 2772 2181 2772 
z
" transform="scale(0.015625)"/>
      <path id="DejaVuSans-Bold-50" d="M 3781 2919 
Q 3994 3244 4286 3414 
Q 4578 3584 4928 3584 
Q 5531 3584 5847 3212 
Q 6163 2841 6163 2131 
L 6163 0 
L 5038 0 
L 5038 1825 
Q 5041 1866 5042 1909 
Q 5044 1953 5044 2034 
Q 5044 2406 4934 2573 
Q 4825 2741 4581 2741 
Q 4263 2741 4089 2478 
Q 3916 2216 3909 1719 
L 3909 0 
L 2784 0 
L 2784 1825 
Q 2784 2406 2684 2573 
Q 2584 2741 2328 2741 
Q 2006 2741 1831 2477 
Q 1656 2213 1656 1722 
L 1656 0 
L 531 0 
L 531 3500 
L 1656 3500 
L 1656 2988 
Q 1863 3284 2130 3434 
Q 2397 3584 2719 3584 
Q 3081 3584 3359 3409 
Q 3638 3234 3781 2919 
z
" transform="scale(0.015625)"/>
      <path id="DejaVuSans-Bold-cd2" d="M 4684 3309 
L 4684 2547 
Q 4353 2297 4073 2189 
Q 3794 2081 3494 2081 
Q 3159 2081 2713 2263 
Q 2669 2281 2644 2291 
Q 2622 2300 2575 2319 
Q 2091 2509 1797 2509 
Q 1522 2509 1253 2389 
Q 984 2269 678 2009 
L 678 2772 
Q 1006 3016 1286 3123 
Q 1566 3231 1869 3231 
Q 2213 3231 2672 3047 
Q 2703 3034 2719 3028 
Q 2744 3019 2788 3000 
Q 3272 2809 3566 2809 
Q 3834 2809 4098 2926 
Q 4363 3044 4684 3309 
z
M 4684 2003 
L 4684 1241 
Q 4353 991 4073 883 
Q 3794 775 3494 775 
Q 3159 775 2713 956 
Q 2669 975 2641 988 
Q 2622 994 2575 1013 
Q 2091 1203 1797 1203 
Q 1522 1203 1253 1084 
Q 984 966 678 703 
L 678 1466 
Q 1013 1716 1291 1823 
Q 1569 1931 1869 1931 
Q 2203 1931 2650 1750 
Q 2697 1731 2719 1722 
Q 2744 1713 2788 1697 
Q 3272 1503 3566 1503 
Q 3834 1503 4098 1620 
Q 4363 1738 4684 2003 
z
" transform="scale(0.015625)"/>
      <path id="DejaVuSans-Bold-2a" d="M 4781 347 
Q 4331 128 3847 18 
Q 3363 -91 2847 -91 
Q 1681 -91 1000 561 
Q 319 1213 319 2328 
Q 319 3456 1012 4103 
Q 1706 4750 2913 4750 
Q 3378 4750 3804 4662 
Q 4231 4575 4609 4403 
L 4609 3438 
Q 4219 3659 3833 3768 
Q 3447 3878 3059 3878 
Q 2341 3878 1952 3476 
Q 1563 3075 1563 2328 
Q 1563 1588 1938 1184 
Q 2313 781 3003 781 
Q 3191 781 3352 804 
Q 3513 828 3641 878 
L 3641 1784 
L 2906 1784 
L 2906 2591 
L 4781 2591 
L 4781 347 
z
" transform="scale(0.015625)"/>
      <path id="DejaVuSans-Bold-33" d="M 588 4666 
L 2584 4666 
Q 3475 4666 3951 4270 
Q 4428 3875 4428 3144 
Q 4428 2409 3951 2014 
Q 3475 1619 2584 1619 
L 1791 1619 
L 1791 0 
L 588 0 
L 588 4666 
z
M 1791 3794 
L 1791 2491 
L 2456 2491 
Q 2806 2491 2997 2661 
Q 3188 2831 3188 3144 
Q 3188 3456 2997 3625 
Q 2806 3794 2456 3794 
L 1791 3794 
z
" transform="scale(0.015625)"/>
      <path id="DejaVuSans-Bold-37" d="M 31 4666 
L 4331 4666 
L 4331 3756 
L 2784 3756 
L 2784 0 
L 1581 0 
L 1581 3756 
L 31 3756 
L 31 4666 
z
" transform="scale(0.015625)"/>
      <path id="DejaVuSans-Bold-10" d="M 347 2297 
L 2309 2297 
L 2309 1388 
L 347 1388 
L 347 2297 
z
" transform="scale(0.015625)"/>
      <path id="DejaVuSans-Bold-18" d="M 678 4666 
L 3669 4666 
L 3669 3781 
L 1638 3781 
L 1638 3059 
Q 1775 3097 1914 3117 
Q 2053 3138 2203 3138 
Q 3056 3138 3531 2711 
Q 4006 2284 4006 1522 
Q 4006 766 3489 337 
Q 2972 -91 2053 -91 
Q 1656 -91 1267 -14 
Q 878 63 494 219 
L 494 1166 
Q 875 947 1217 837 
Q 1559 728 1863 728 
Q 2300 728 2551 942 
Q 2803 1156 2803 1522 
Q 2803 1891 2551 2103 
Q 2300 2316 1863 2316 
Q 1603 2316 1309 2248 
Q 1016 2181 678 2041 
L 678 4666 
z
" transform="scale(0.015625)"/>
      <path id="DejaVuSans-Bold-1d" d="M 716 3500 
L 1844 3500 
L 1844 2291 
L 716 2291 
L 716 3500 
z
M 716 1209 
L 1844 1209 
L 1844 0 
L 716 0 
L 716 1209 
z
" transform="scale(0.015625)"/>
      <path id="DejaVuSans-Bold-49" d="M 2841 4863 
L 2841 4128 
L 2222 4128 
Q 1984 4128 1890 4042 
Q 1797 3956 1797 3744 
L 1797 3500 
L 2753 3500 
L 2753 2700 
L 1797 2700 
L 1797 0 
L 678 0 
L 678 2700 
L 122 2700 
L 122 3500 
L 678 3500 
L 678 3744 
Q 678 4316 997 4589 
Q 1316 4863 1984 4863 
L 2841 4863 
z
" transform="scale(0.015625)"/>
      <path id="DejaVuSans-Bold-4f" d="M 538 4863 
L 1656 4863 
L 1656 0 
L 538 0 
L 538 4863 
z
" transform="scale(0.015625)"/>
      <path id="DejaVuSans-Bold-58" d="M 500 1363 
L 500 3500 
L 1625 3500 
L 1625 3150 
Q 1625 2866 1622 2436 
Q 1619 2006 1619 1863 
Q 1619 1441 1641 1255 
Q 1663 1069 1716 984 
Q 1784 875 1895 815 
Q 2006 756 2150 756 
Q 2500 756 2700 1025 
Q 2900 1294 2900 1772 
L 2900 3500 
L 4019 3500 
L 4019 0 
L 2900 0 
L 2900 506 
Q 2647 200 2364 54 
Q 2081 -91 1741 -91 
Q 1134 -91 817 281 
Q 500 653 500 1363 
z
" transform="scale(0.015625)"/>
      <path id="DejaVuSans-Bold-55" d="M 3138 2547 
Q 2991 2616 2845 2648 
Q 2700 2681 2553 2681 
Q 2122 2681 1889 2404 
Q 1656 2128 1656 1613 
L 1656 0 
L 538 0 
L 538 3500 
L 1656 3500 
L 1656 2925 
Q 1872 3269 2151 3426 
Q 2431 3584 2822 3584 
Q 2878 3584 2943 3579 
Q 3009 3575 3134 3559 
L 3138 2547 
z
" transform="scale(0.015625)"/>
      <path id="DejaVuSans-Bold-c" d="M 513 -844 
Q 913 -100 1113 609 
Q 1313 1319 1313 2009 
Q 1313 2700 1113 3408 
Q 913 4116 513 4856 
L 1441 4856 
Q 1916 4091 2145 3389 
Q 2375 2688 2375 2003 
Q 2375 1319 2147 623 
Q 1919 -72 1441 -844 
L 513 -844 
z
" transform="scale(0.015625)"/>
     </defs>
     <use xlink:href="#DejaVuSans-Bold-b"/>
     <use xlink:href="#DejaVuSans-Bold-4a" transform="translate(45.703125 0)"/>
     <use xlink:href="#DejaVuSans-Bold-48" transform="translate(117.28125 0)"/>
     <use xlink:href="#DejaVuSans-Bold-50" transform="translate(185.109375 0)"/>
     <use xlink:href="#DejaVuSans-Bold-50" transform="translate(289.3125 0)"/>
     <use xlink:href="#DejaVuSans-Bold-44" transform="translate(393.515625 0)"/>
     <use xlink:href="#DejaVuSans-Bold-3" transform="translate(461 0)"/>
     <use xlink:href="#DejaVuSans-Bold-cd2" transform="translate(495.8125 0)"/>
     <use xlink:href="#DejaVuSans-Bold-3" transform="translate(579.609375 0)"/>
     <use xlink:href="#DejaVuSans-Bold-2a" transform="translate(614.421875 0)"/>
     <use xlink:href="#DejaVuSans-Bold-33" transform="translate(696.5 0)"/>
     <use xlink:href="#DejaVuSans-Bold-37" transform="translate(769.796875 0)"/>
     <use xlink:href="#DejaVuSans-Bold-10" transform="translate(823.3125 0)"/>
     <use xlink:href="#DejaVuSans-Bold-18" transform="translate(864.8125 0)"/>
     <use xlink:href="#DejaVuSans-Bold-1d" transform="translate(934.390625 0)"/>
     <use xlink:href="#DejaVuSans-Bold-3" transform="translate(974.375 0)"/>
     <use xlink:href="#DejaVuSans-Bold-56" transform="translate(1009.1875 0)"/>
     <use xlink:href="#DejaVuSans-Bold-44" transform="translate(1068.703125 0)"/>
     <use xlink:href="#DejaVuSans-Bold-50" transform="translate(1136.1875 0)"/>
     <use xlink:href="#DejaVuSans-Bold-48" transform="translate(1240.390625 0)"/>
     <use xlink:href="#DejaVuSans-Bold-3" transform="translate(1308.21875 0)"/>
     <use xlink:href="#DejaVuSans-Bold-49" transform="translate(1343.03125 0)"/>
     <use xlink:href="#DejaVuSans-Bold-44" transform="translate(1386.53125 0)"/>
     <use xlink:href="#DejaVuSans-Bold-4c" transform="translate(1454.015625 0)"/>
     <use xlink:href="#DejaVuSans-Bold-4f" transform="translate(1488.296875 0)"/>
     <use xlink:href="#DejaVuSans-Bold-58" transform="translate(1522.578125 0)"/>
     <use xlink:href="#DejaVuSans-Bold-55" transform="translate(1593.765625 0)"/>
     <use xlink:href="#DejaVuSans-Bold-48" transform="translate(1643.078125 0)"/>
     <use xlink:href="#DejaVuSans-Bold-c" transform="translate(1710.90625 0)"/>
    </g>
   </g>
  </g>
  <g id="axes_2">
   <g id="patch_7">
    <path d="M 364.76775 236.667703 
L 647.39775 236.667703 
L 647.39775 93.058055 
L 364.76775 93.058055 
z
" style="fill: #ffffff"/>
   </g>
   <g id="patch_8">
    <path d="M 377.614568 236.667703 
L 468.785536 236.667703 
L 468.785536 149.254773 
L 377.614568 149.254773 
z
" clip-path="url(#p0d2dc8c4d0)" style="fill: #9aa0a6"/>
   </g>
   <g id="patch_9">
    <path d="M 543.379964 236.667703 
L 634.550932 236.667703 
L 634.550932 109.692886 
L 543.379964 109.692886 
z
" clip-path="url(#p0d2dc8c4d0)" style="fill: #0e9594"/>
   </g>
   <g id="matplotlib.axis_3">
    <g id="xtick_3">
     <g id="line2d_7">
      <g>
       <use xlink:href="#mfd207fa31c" x="423.200052" y="236.667703" style="stroke: #000000; stroke-width: 0.8"/>
      </g>
     </g>
     <g id="text_11">
      <!-- scripted -->
      <g transform="translate(400.998099 253.127059) scale(0.11 -0.11)">
       <use xlink:href="#DejaVuSans-56"/>
       <use xlink:href="#DejaVuSans-46" transform="translate(52.09375 0)"/>
       <use xlink:href="#DejaVuSans-55" transform="translate(107.078125 0)"/>
       <use xlink:href="#DejaVuSans-4c" transform="translate(148.1875 0)"/>
       <use xlink:href="#DejaVuSans-53" transform="translate(175.96875 0)"/>
       <use xlink:href="#DejaVuSans-57" transform="translate(239.453125 0)"/>
       <use xlink:href="#DejaVuSans-48" transform="translate(278.65625 0)"/>
       <use xlink:href="#DejaVuSans-47" transform="translate(340.1875 0)"/>
      </g>
      <!-- reflexes -->
      <g transform="translate(401.58849 266.330066) scale(0.11 -0.11)">
       <use xlink:href="#DejaVuSans-55"/>
       <use xlink:href="#DejaVuSans-48" transform="translate(38.90625 0)"/>
       <use xlink:href="#DejaVuSans-13b0" transform="translate(100.4375 0)"/>
       <use xlink:href="#DejaVuSans-48" transform="translate(163.421875 0)"/>
       <use xlink:href="#DejaVuSans-5b" transform="translate(223.203125 0)"/>
       <use xlink:href="#DejaVuSans-48" transform="translate(279.3125 0)"/>
       <use xlink:href="#DejaVuSans-56" transform="translate(340.84375 0)"/>
      </g>
     </g>
    </g>
    <g id="xtick_4">
     <g id="line2d_8">
      <g>
       <use xlink:href="#mfd207fa31c" x="588.965448" y="236.667703" style="stroke: #000000; stroke-width: 0.8"/>
      </g>
     </g>
     <g id="text_12">
      <!-- search picks -->
      <g transform="translate(554.854276 253.127059) scale(0.11 -0.11)">
       <use xlink:href="#DejaVuSans-56"/>
       <use xlink:href="#DejaVuSans-48" transform="translate(52.09375 0)"/>
       <use xlink:href="#DejaVuSans-44" transform="translate(113.625 0)"/>
       <use xlink:href="#DejaVuSans-55" transform="translate(174.90625 0)"/>
       <use xlink:href="#DejaVuSans-46" transform="translate(213.8125 0)"/>
       <use xlink:href="#DejaVuSans-4b" transform="translate(268.796875 0)"/>
       <use xlink:href="#DejaVuSans-3" transform="translate(332.171875 0)"/>
       <use xlink:href="#DejaVuSans-53" transform="translate(363.953125 0)"/>
       <use xlink:href="#DejaVuSans-4c" transform="translate(427.4375 0)"/>
       <use xlink:href="#DejaVuSans-46" transform="translate(455.21875 0)"/>
       <use xlink:href="#DejaVuSans-4e" transform="translate(510.203125 0)"/>
       <use xlink:href="#DejaVuSans-56" transform="translate(568.109375 0)"/>
      </g>
      <!-- the action -->
      <g transform="translate(561.261776 266.330066) scale(0.11 -0.11)">
       <defs>
        <path id="DejaVuSans-52" d="M 1959 3097 
Q 1497 3097 1228 2736 
Q 959 2375 959 1747 
Q 959 1119 1226 758 
Q 1494 397 1959 397 
Q 2419 397 2687 759 
Q 2956 1122 2956 1747 
Q 2956 2369 2687 2733 
Q 2419 3097 1959 3097 
z
M 1959 3584 
Q 2709 3584 3137 3096 
Q 3566 2609 3566 1747 
Q 3566 888 3137 398 
Q 2709 -91 1959 -91 
Q 1206 -91 779 398 
Q 353 888 353 1747 
Q 353 2609 779 3096 
Q 1206 3584 1959 3584 
z
" transform="scale(0.015625)"/>
       </defs>
       <use xlink:href="#DejaVuSans-57"/>
       <use xlink:href="#DejaVuSans-4b" transform="translate(39.203125 0)"/>
       <use xlink:href="#DejaVuSans-48" transform="translate(102.578125 0)"/>
       <use xlink:href="#DejaVuSans-3" transform="translate(164.109375 0)"/>
       <use xlink:href="#DejaVuSans-44" transform="translate(195.890625 0)"/>
       <use xlink:href="#DejaVuSans-46" transform="translate(257.171875 0)"/>
       <use xlink:href="#DejaVuSans-57" transform="translate(312.15625 0)"/>
       <use xlink:href="#DejaVuSans-4c" transform="translate(351.359375 0)"/>
       <use xlink:href="#DejaVuSans-52" transform="translate(379.140625 0)"/>
       <use xlink:href="#DejaVuSans-51" transform="translate(440.328125 0)"/>
      </g>
     </g>
    </g>
   </g>
   <g id="matplotlib.axis_4">
    <g id="ytick_5">
     <g id="line2d_9">
      <g>
       <use xlink:href="#mf8d556199d" x="364.76775" y="236.667703" style="stroke: #000000; stroke-width: 0.8"/>
      </g>
     </g>
    </g>
    <g id="ytick_6">
     <g id="line2d_10">
      <g>
       <use xlink:href="#mf8d556199d" x="364.76775" y="198.989716" style="stroke: #000000; stroke-width: 0.8"/>
      </g>
     </g>
    </g>
    <g id="ytick_7">
     <g id="line2d_11">
      <g>
       <use xlink:href="#mf8d556199d" x="364.76775" y="161.311729" style="stroke: #000000; stroke-width: 0.8"/>
      </g>
     </g>
    </g>
    <g id="ytick_8">
     <g id="line2d_12">
      <g>
       <use xlink:href="#mf8d556199d" x="364.76775" y="123.633741" style="stroke: #000000; stroke-width: 0.8"/>
      </g>
     </g>
    </g>
   </g>
   <g id="patch_10">
    <path d="M 364.76775 236.667703 
L 364.76775 93.058055 
" style="fill: none; stroke: #cccccc; stroke-width: 0.8; stroke-linejoin: miter; stroke-linecap: square"/>
   </g>
   <g id="patch_11">
    <path d="M 364.76775 236.667703 
L 647.39775 236.667703 
" style="fill: none; stroke: #cccccc; stroke-width: 0.8; stroke-linejoin: miter; stroke-linecap: square"/>
   </g>
   <g id="text_13">
    <!-- 232 -->
    <g transform="translate(411.719661 146.612195) scale(0.11 -0.11)">
     <defs>
      <path id="DejaVuSans-Bold-15" d="M 1844 884 
L 3897 884 
L 3897 0 
L 506 0 
L 506 884 
L 2209 2388 
Q 2438 2594 2547 2791 
Q 2656 2988 2656 3200 
Q 2656 3528 2436 3728 
Q 2216 3928 1850 3928 
Q 1569 3928 1234 3808 
Q 900 3688 519 3450 
L 519 4475 
Q 925 4609 1322 4679 
Q 1719 4750 2100 4750 
Q 2938 4750 3402 4381 
Q 3866 4013 3866 3353 
Q 3866 2972 3669 2642 
Q 3472 2313 2841 1759 
L 1844 884 
z
" transform="scale(0.015625)"/>
     </defs>
     <use xlink:href="#DejaVuSans-Bold-15"/>
     <use xlink:href="#DejaVuSans-Bold-16" transform="translate(69.578125 0)"/>
     <use xlink:href="#DejaVuSans-Bold-15" transform="translate(139.15625 0)"/>
    </g>
   </g>
   <g id="text_14">
    <!-- 337 -->
    <g transform="translate(577.485057 107.050308) scale(0.11 -0.11)">
     <defs>
      <path id="DejaVuSans-Bold-1a" d="M 428 4666 
L 3944 4666 
L 3944 3988 
L 2125 0 
L 953 0 
L 2675 3781 
L 428 3781 
L 428 4666 
z
" transform="scale(0.015625)"/>
     </defs>
     <use xlink:href="#DejaVuSans-Bold-16"/>
     <use xlink:href="#DejaVuSans-Bold-16" transform="translate(69.578125 0)"/>
     <use xlink:href="#DejaVuSans-Bold-1a" transform="translate(139.15625 0)"/>
    </g>
   </g>
   <g id="text_15">
    <!-- Hand the decisions to -->
    <g transform="translate(425.044031 71.214445) scale(0.132 -0.132)">
     <use xlink:href="#DejaVuSans-Bold-2b"/>
     <use xlink:href="#DejaVuSans-Bold-44" transform="translate(83.6875 0)"/>
     <use xlink:href="#DejaVuSans-Bold-51" transform="translate(151.171875 0)"/>
     <use xlink:href="#DejaVuSans-Bold-47" transform="translate(222.359375 0)"/>
     <use xlink:href="#DejaVuSans-Bold-3" transform="translate(293.9375 0)"/>
     <use xlink:href="#DejaVuSans-Bold-57" transform="translate(328.75 0)"/>
     <use xlink:href="#DejaVuSans-Bold-4b" transform="translate(376.546875 0)"/>
     <use xlink:href="#DejaVuSans-Bold-48" transform="translate(447.734375 0)"/>
     <use xlink:href="#DejaVuSans-Bold-3" transform="translate(515.5625 0)"/>
     <use xlink:href="#DejaVuSans-Bold-47" transform="translate(550.375 0)"/>
     <use xlink:href="#DejaVuSans-Bold-48" transform="translate(621.953125 0)"/>
     <use xlink:href="#DejaVuSans-Bold-46" transform="translate(689.78125 0)"/>
     <use xlink:href="#DejaVuSans-Bold-4c" transform="translate(749.0625 0)"/>
     <use xlink:href="#DejaVuSans-Bold-56" transform="translate(783.34375 0)"/>
     <use xlink:href="#DejaVuSans-Bold-4c" transform="translate(842.859375 0)"/>
     <use xlink:href="#DejaVuSans-Bold-52" transform="translate(877.140625 0)"/>
     <use xlink:href="#DejaVuSans-Bold-51" transform="translate(945.84375 0)"/>
     <use xlink:href="#DejaVuSans-Bold-56" transform="translate(1017.03125 0)"/>
     <use xlink:href="#DejaVuSans-Bold-3" transform="translate(1076.546875 0)"/>
     <use xlink:href="#DejaVuSans-Bold-57" transform="translate(1111.359375 0)"/>
     <use xlink:href="#DejaVuSans-Bold-52" transform="translate(1159.15625 0)"/>
    </g>
    <!-- forward-model search -->
    <g transform="translate(424.256156 87.058055) scale(0.132 -0.132)">
     <defs>
      <path id="DejaVuSans-Bold-5a" d="M 225 3500 
L 1313 3500 
L 1900 1088 
L 2491 3500 
L 3425 3500 
L 4013 1113 
L 4603 3500 
L 5691 3500 
L 4769 0 
L 3547 0 
L 2956 2406 
L 2369 0 
L 1147 0 
L 225 3500 
z
" transform="scale(0.015625)"/>
     </defs>
     <use xlink:href="#DejaVuSans-Bold-49"/>
     <use xlink:href="#DejaVuSans-Bold-52" transform="translate(43.5 0)"/>
     <use xlink:href="#DejaVuSans-Bold-55" transform="translate(112.203125 0)"/>
     <use xlink:href="#DejaVuSans-Bold-5a" transform="translate(161.515625 0)"/>
     <use xlink:href="#DejaVuSans-Bold-44" transform="translate(253.90625 0)"/>
     <use xlink:href="#DejaVuSans-Bold-55" transform="translate(321.390625 0)"/>
     <use xlink:href="#DejaVuSans-Bold-47" transform="translate(370.703125 0)"/>
     <use xlink:href="#DejaVuSans-Bold-10" transform="translate(442.28125 0)"/>
     <use xlink:href="#DejaVuSans-Bold-50" transform="translate(483.78125 0)"/>
     <use xlink:href="#DejaVuSans-Bold-52" transform="translate(587.984375 0)"/>
     <use xlink:href="#DejaVuSans-Bold-47" transform="translate(656.6875 0)"/>
     <use xlink:href="#DejaVuSans-Bold-48" transform="translate(728.265625 0)"/>
     <use xlink:href="#DejaVuSans-Bold-4f" transform="translate(796.09375 0)"/>
     <use xlink:href="#DejaVuSans-Bold-3" transform="translate(830.375 0)"/>
     <use xlink:href="#DejaVuSans-Bold-56" transform="translate(865.1875 0)"/>
     <use xlink:href="#DejaVuSans-Bold-48" transform="translate(924.703125 0)"/>
     <use xlink:href="#DejaVuSans-Bold-44" transform="translate(992.53125 0)"/>
     <use xlink:href="#DejaVuSans-Bold-55" transform="translate(1060.015625 0)"/>
     <use xlink:href="#DejaVuSans-Bold-46" transform="translate(1109.328125 0)"/>
     <use xlink:href="#DejaVuSans-Bold-4b" transform="translate(1168.609375 0)"/>
    </g>
   </g>
  </g>
  <g id="text_16">
   <!-- Same decision points, opposite outcomes: the bottleneck was grounding, not reasoning -->
   <g transform="translate(7.2 17.229938) scale(0.132 -0.132)">
    <defs>
     <path id="DejaVuSans-Bold-36" d="M 3834 4519 
L 3834 3531 
Q 3450 3703 3084 3790 
Q 2719 3878 2394 3878 
Q 1963 3878 1756 3759 
Q 1550 3641 1550 3391 
Q 1550 3203 1689 3098 
Q 1828 2994 2194 2919 
L 2706 2816 
Q 3484 2659 3812 2340 
Q 4141 2022 4141 1434 
Q 4141 663 3683 286 
Q 3225 -91 2284 -91 
Q 1841 -91 1394 -6 
Q 947 78 500 244 
L 500 1259 
Q 947 1022 1364 901 
Q 1781 781 2169 781 
Q 2563 781 2772 912 
Q 2981 1044 2981 1288 
Q 2981 1506 2839 1625 
Q 2697 1744 2272 1838 
L 1806 1941 
Q 1106 2091 782 2419 
Q 459 2747 459 3303 
Q 459 4000 909 4375 
Q 1359 4750 2203 4750 
Q 2588 4750 2994 4692 
Q 3400 4634 3834 4519 
z
" transform="scale(0.015625)"/>
     <path id="DejaVuSans-Bold-53" d="M 1656 506 
L 1656 -1331 
L 538 -1331 
L 538 3500 
L 1656 3500 
L 1656 2988 
Q 1888 3294 2169 3439 
Q 2450 3584 2816 3584 
Q 3463 3584 3878 3070 
Q 4294 2556 4294 1747 
Q 4294 938 3878 423 
Q 3463 -91 2816 -91 
Q 2450 -91 2169 54 
Q 1888 200 1656 506 
z
M 2400 2772 
Q 2041 2772 1848 2508 
Q 1656 2244 1656 1747 
Q 1656 1250 1848 986 
Q 2041 722 2400 722 
Q 2759 722 2948 984 
Q 3138 1247 3138 1747 
Q 3138 2247 2948 2509 
Q 2759 2772 2400 2772 
z
" transform="scale(0.015625)"/>
     <path id="DejaVuSans-Bold-f" d="M 653 1209 
L 1778 1209 
L 1778 256 
L 1006 -909 
L 341 -909 
L 653 256 
L 653 1209 
z
" transform="scale(0.015625)"/>
     <path id="DejaVuSans-Bold-45" d="M 2400 722 
Q 2759 722 2948 984 
Q 3138 1247 3138 1747 
Q 3138 2247 2948 2509 
Q 2759 2772 2400 2772 
Q 2041 2772 1848 2508 
Q 1656 2244 1656 1747 
Q 1656 1250 1848 986 
Q 2041 722 2400 722 
z
M 1656 2988 
Q 1888 3294 2169 3439 
Q 2450 3584 2816 3584 
Q 3463 3584 3878 3070 
Q 4294 2556 4294 1747 
Q 4294 938 3878 423 
Q 3463 -91 2816 -91 
Q 2450 -91 2169 54 
Q 1888 200 1656 506 
L 1656 0 
L 538 0 
L 538 4863 
L 1656 4863 
L 1656 2988 
z
" transform="scale(0.015625)"/>
     <path id="DejaVuSans-Bold-4e" d="M 538 4863 
L 1656 4863 
L 1656 2216 
L 2944 3500 
L 4244 3500 
L 2534 1894 
L 4378 0 
L 3022 0 
L 1656 1459 
L 1656 0 
L 538 0 
L 538 4863 
z
" transform="scale(0.015625)"/>
    </defs>
    <use xlink:href="#DejaVuSans-Bold-36"/>
    <use xlink:href="#DejaVuSans-Bold-44" transform="translate(72.015625 0)"/>
    <use xlink:href="#DejaVuSans-Bold-50" transform="translate(139.5 0)"/>
    <use xlink:href="#DejaVuSans-Bold-48" transform="translate(243.703125 0)"/>
    <use xlink:href="#DejaVuSans-Bold-3" transform="translate(311.53125 0)"/>
    <use xlink:href="#DejaVuSans-Bold-47" transform="translate(346.34375 0)"/>
    <use xlink:href="#DejaVuSans-Bold-48" transform="translate(417.921875 0)"/>
    <use xlink:href="#DejaVuSans-Bold-46" transform="translate(485.75 0)"/>
    <use xlink:href="#DejaVuSans-Bold-4c" transform="translate(545.03125 0)"/>
    <use xlink:href="#DejaVuSans-Bold-56" transform="translate(579.3125 0)"/>
    <use xlink:href="#DejaVuSans-Bold-4c" transform="translate(638.828125 0)"/>
    <use xlink:href="#DejaVuSans-Bold-52" transform="translate(673.109375 0)"/>
    <use xlink:href="#DejaVuSans-Bold-51" transform="translate(741.8125 0)"/>
    <use xlink:href="#DejaVuSans-Bold-3" transform="translate(813 0)"/>
    <use xlink:href="#DejaVuSans-Bold-53" transform="translate(847.8125 0)"/>
    <use xlink:href="#DejaVuSans-Bold-52" transform="translate(919.390625 0)"/>
    <use xlink:href="#DejaVuSans-Bold-4c" transform="translate(988.09375 0)"/>
    <use xlink:href="#DejaVuSans-Bold-51" transform="translate(1022.375 0)"/>
    <use xlink:href="#DejaVuSans-Bold-57" transform="translate(1093.5625 0)"/>
    <use xlink:href="#DejaVuSans-Bold-56" transform="translate(1141.359375 0)"/>
    <use xlink:href="#DejaVuSans-Bold-f" transform="translate(1200.875 0)"/>
    <use xlink:href="#DejaVuSans-Bold-3" transform="translate(1238.859375 0)"/>
    <use xlink:href="#DejaVuSans-Bold-52" transform="translate(1273.671875 0)"/>
    <use xlink:href="#DejaVuSans-Bold-53" transform="translate(1342.375 0)"/>
    <use xlink:href="#DejaVuSans-Bold-53" transform="translate(1413.953125 0)"/>
    <use xlink:href="#DejaVuSans-Bold-52" transform="translate(1485.53125 0)"/>
    <use xlink:href="#DejaVuSans-Bold-56" transform="translate(1554.234375 0)"/>
    <use xlink:href="#DejaVuSans-Bold-4c" transform="translate(1613.75 0)"/>
    <use xlink:href="#DejaVuSans-Bold-57" transform="translate(1648.03125 0)"/>
    <use xlink:href="#DejaVuSans-Bold-48" transform="translate(1695.828125 0)"/>
    <use xlink:href="#DejaVuSans-Bold-3" transform="translate(1763.65625 0)"/>
    <use xlink:href="#DejaVuSans-Bold-52" transform="translate(1798.46875 0)"/>
    <use xlink:href="#DejaVuSans-Bold-58" transform="translate(1867.171875 0)"/>
    <use xlink:href="#DejaVuSans-Bold-57" transform="translate(1938.359375 0)"/>
    <use xlink:href="#DejaVuSans-Bold-46" transform="translate(1986.15625 0)"/>
    <use xlink:href="#DejaVuSans-Bold-52" transform="translate(2045.4375 0)"/>
    <use xlink:href="#DejaVuSans-Bold-50" transform="translate(2114.140625 0)"/>
    <use xlink:href="#DejaVuSans-Bold-48" transform="translate(2218.34375 0)"/>
    <use xlink:href="#DejaVuSans-Bold-56" transform="translate(2286.171875 0)"/>
    <use xlink:href="#DejaVuSans-Bold-1d" transform="translate(2345.6875 0)"/>
    <use xlink:href="#DejaVuSans-Bold-3" transform="translate(2385.671875 0)"/>
    <use xlink:href="#DejaVuSans-Bold-57" transform="translate(2420.484375 0)"/>
    <use xlink:href="#DejaVuSans-Bold-4b" transform="translate(2468.28125 0)"/>
    <use xlink:href="#DejaVuSans-Bold-48" transform="translate(2539.46875 0)"/>
    <use xlink:href="#DejaVuSans-Bold-3" transform="translate(2607.296875 0)"/>
    <use xlink:href="#DejaVuSans-Bold-45" transform="translate(2642.109375 0)"/>
    <use xlink:href="#DejaVuSans-Bold-52" transform="translate(2713.6875 0)"/>
    <use xlink:href="#DejaVuSans-Bold-57" transform="translate(2782.390625 0)"/>
    <use xlink:href="#DejaVuSans-Bold-57" transform="translate(2830.1875 0)"/>
    <use xlink:href="#DejaVuSans-Bold-4f" transform="translate(2877.984375 0)"/>
    <use xlink:href="#DejaVuSans-Bold-48" transform="translate(2912.265625 0)"/>
    <use xlink:href="#DejaVuSans-Bold-51" transform="translate(2980.09375 0)"/>
    <use xlink:href="#DejaVuSans-Bold-48" transform="translate(3051.28125 0)"/>
    <use xlink:href="#DejaVuSans-Bold-46" transform="translate(3119.109375 0)"/>
    <use xlink:href="#DejaVuSans-Bold-4e" transform="translate(3178.390625 0)"/>
    <use xlink:href="#DejaVuSans-Bold-3" transform="translate(3244.890625 0)"/>
    <use xlink:href="#DejaVuSans-Bold-5a" transform="translate(3279.703125 0)"/>
    <use xlink:href="#DejaVuSans-Bold-44" transform="translate(3372.09375 0)"/>
    <use xlink:href="#DejaVuSans-Bold-56" transform="translate(3439.578125 0)"/>
    <use xlink:href="#DejaVuSans-Bold-3" transform="translate(3499.09375 0)"/>
    <use xlink:href="#DejaVuSans-Bold-4a" transform="translate(3533.90625 0)"/>
    <use xlink:href="#DejaVuSans-Bold-55" transform="translate(3605.484375 0)"/>
    <use xlink:href="#DejaVuSans-Bold-52" transform="translate(3654.796875 0)"/>
    <use xlink:href="#DejaVuSans-Bold-58" transform="translate(3723.5 0)"/>
    <use xlink:href="#DejaVuSans-Bold-51" transform="translate(3794.6875 0)"/>
    <use xlink:href="#DejaVuSans-Bold-47" transform="translate(3865.875 0)"/>
    <use xlink:href="#DejaVuSans-Bold-4c" transform="translate(3937.453125 0)"/>
    <use xlink:href="#DejaVuSans-Bold-51" transform="translate(3971.734375 0)"/>
    <use xlink:href="#DejaVuSans-Bold-4a" transform="translate(4042.921875 0)"/>
    <use xlink:href="#DejaVuSans-Bold-f" transform="translate(4114.5 0)"/>
    <use xlink:href="#DejaVuSans-Bold-3" transform="translate(4152.484375 0)"/>
    <use xlink:href="#DejaVuSans-Bold-51" transform="translate(4187.296875 0)"/>
    <use xlink:href="#DejaVuSans-Bold-52" transform="translate(4258.484375 0)"/>
    <use xlink:href="#DejaVuSans-Bold-57" transform="translate(4327.1875 0)"/>
    <use xlink:href="#DejaVuSans-Bold-3" transform="translate(4374.984375 0)"/>
    <use xlink:href="#DejaVuSans-Bold-55" transform="translate(4409.796875 0)"/>
    <use xlink:href="#DejaVuSans-Bold-48" transform="translate(4459.109375 0)"/>
    <use xlink:href="#DejaVuSans-Bold-44" transform="translate(4526.9375 0)"/>
    <use xlink:href="#DejaVuSans-Bold-56" transform="translate(4594.421875 0)"/>
    <use xlink:href="#DejaVuSans-Bold-52" transform="translate(4653.9375 0)"/>
    <use xlink:href="#DejaVuSans-Bold-51" transform="translate(4722.640625 0)"/>
    <use xlink:href="#DejaVuSans-Bold-4c" transform="translate(4793.828125 0)"/>
    <use xlink:href="#DejaVuSans-Bold-51" transform="translate(4828.109375 0)"/>
    <use xlink:href="#DejaVuSans-Bold-4a" transform="translate(4899.296875 0)"/>
   </g>
  </g>
 </g>
 <defs>
  <clipPath id="p02501b0b7c">
   <rect x="66.75775" y="93.058055" width="282.63" height="143.609648"/>
  </clipPath>
  <clipPath id="p0d2dc8c4d0">
   <rect x="364.76775" y="93.058055" width="282.63" height="143.609648"/>
  </clipPath>
 </defs>
</svg>
